<?xml version="1.0" standalone="no"?>
<!DOCTYPE svg PUBLIC "-//W3C//DTD SVG 1.1//EN" "http://www.w3.org/Graphics/SVG/1.1/DTD/svg11.dtd">
<svg version="1.1" width="1200" height="480" onload="init(evt)" viewBox="0 0 1200 480" xmlns="http://www.w3.org/2000/svg" xmlns:xlink="http://www.w3.org/1999/xlink">
<!-- Flame graph stack visualization. See https://github.com/brendangregg/FlameGraph for latest version, and http://www.brendangregg.com/flamegraphs.html for examples. -->
<!-- NOTES:  -->
<defs>
	<linearGradient id="background" y1="0" y2="1" x1="0" x2="0" >
		<stop stop-color="#eeeeee" offset="5%" />
		<stop stop-color="#eeeeb0" offset="95%" />
	</linearGradient>
</defs>
<style type="text/css">
	text { font-family:Verdana; font-size:14px; fill:rgb(0,0,0); }
	#search, #ignorecase { opacity:0.1; cursor:pointer; }
	#search:hover, #search.show, #ignorecase:hover, #ignorecase.show { opacity:1; }
	#subtitle { text-anchor:middle; font-color:rgb(160,160,160); }
	#title { text-anchor:middle; font-size:19px}
	#unzoom { cursor:pointer; }
	#frames > *:hover { stroke:black; stroke-width:0.5; cursor:pointer; }
	.hide { display:none; }
	.parent { opacity:0.5; }
</style>
<script type="text/ecmascript">
<![CDATA[
	"use strict";
	var details, searchbtn, unzoombtn, matchedtxt, svg, searching, currentSearchTerm, ignorecase, ignorecaseBtn;
	function init(evt) {
		details = document.getElementById("details").firstChild;
		searchbtn = document.getElementById("search");
		ignorecaseBtn = document.getElementById("ignorecase");
		unzoombtn = document.getElementById("unzoom");
		matchedtxt = document.getElementById("matched");
		svg = document.getElementsByTagName("svg")[0];
		searching = 0;
		currentSearchTerm = null;

		// use GET parameters to restore a flamegraphs state.
		var params = get_params();
		if (params.x && params.y)
			zoom(find_group(document.querySelector('[x="' + params.x + '"][y="' + params.y + '"]')));
                if (params.s) search(params.s);
	}

	// event listeners
	window.addEventListener("click", function(e) {
		var target = find_group(e.target);
		if (target) {
			if (target.nodeName == "a") {
				if (e.ctrlKey === false) return;
				e.preventDefault();
			}
			if (target.classList.contains("parent")) unzoom(true);
			zoom(target);
			if (!document.querySelector('.parent')) {
				// we have basically done a clearzoom so clear the url
				var params = get_params();
				if (params.x) delete params.x;
				if (params.y) delete params.y;
				history.replaceState(null, null, parse_params(params));
				unzoombtn.classList.add("hide");
				return;
			}

			// set parameters for zoom state
			var el = target.querySelector("rect");
			if (el && el.attributes && el.attributes.y && el.attributes._orig_x) {
				var params = get_params()
				params.x = el.attributes._orig_x.value;
				params.y = el.attributes.y.value;
				history.replaceState(null, null, parse_params(params));
			}
		}
		else if (e.target.id == "unzoom") clearzoom();
		else if (e.target.id == "search") search_prompt();
		else if (e.target.id == "ignorecase") toggle_ignorecase();
	}, false)

	// mouse-over for info
	// show
	window.addEventListener("mouseover", function(e) {
		var target = find_group(e.target);
		if (target) details.nodeValue = "Function: " + g_to_text(target);
	}, false)

	// clear
	window.addEventListener("mouseout", function(e) {
		var target = find_group(e.target);
		if (target) details.nodeValue = ' ';
	}, false)

	// ctrl-F for search
	// ctrl-I to toggle case-sensitive search
	window.addEventListener("keydown",function (e) {
		if (e.keyCode === 114 || (e.ctrlKey && e.keyCode === 70)) {
			e.preventDefault();
			search_prompt();
		}
		else if (e.ctrlKey && e.keyCode === 73) {
			e.preventDefault();
			toggle_ignorecase();
		}
	}, false)

	// functions
	function get_params() {
		var params = {};
		var paramsarr = window.location.search.substr(1).split('&');
		for (var i = 0; i < paramsarr.length; ++i) {
			var tmp = paramsarr[i].split("=");
			if (!tmp[0] || !tmp[1]) continue;
			params[tmp[0]]  = decodeURIComponent(tmp[1]);
		}
		return params;
	}
	function parse_params(params) {
		var uri = "?";
		for (var key in params) {
			uri += key + '=' + encodeURIComponent(params[key]) + '&';
		}
		if (uri.slice(-1) == "&")
			uri = uri.substring(0, uri.length - 1);
		if (uri == '?')
			uri = window.location.href.split('?')[0];
		return uri;
	}
	function find_child(node, selector) {
		var children = node.querySelectorAll(selector);
		if (children.length) return children[0];
	}
	function find_group(node) {
		var parent = node.parentElement;
		if (!parent) return;
		if (parent.id == "frames") return node;
		return find_group(parent);
	}
	function orig_save(e, attr, val) {
		if (e.attributes["_orig_" + attr] != undefined) return;
		if (e.attributes[attr] == undefined) return;
		if (val == undefined) val = e.attributes[attr].value;
		e.setAttribute("_orig_" + attr, val);
	}
	function orig_load(e, attr) {
		if (e.attributes["_orig_"+attr] == undefined) return;
		e.attributes[attr].value = e.attributes["_orig_" + attr].value;
		e.removeAttribute("_orig_"+attr);
	}
	function g_to_text(e) {
		var text = find_child(e, "title").firstChild.nodeValue;
		return (text)
	}
	function g_to_func(e) {
		var func = g_to_text(e);
		// if there's any manipulation we want to do to the function
		// name before it's searched, do it here before returning.
		return (func);
	}
	function update_text(e) {
		var r = find_child(e, "rect");
		var t = find_child(e, "text");
		var w = parseFloat(r.attributes.width.value) -3;
		var txt = find_child(e, "title").textContent.replace(/\([^(]*\)$/,"");
		t.attributes.x.value = parseFloat(r.attributes.x.value) + 3;

		// Smaller than this size won't fit anything
		if (w < 2 * 14 * 0.59) {
			t.textContent = "";
			return;
		}

		t.textContent = txt;
		var sl = t.getSubStringLength(0, txt.length);
		// check if only whitespace or if we can fit the entire string into width w
		if (/^ *$/.test(txt) || sl < w)
			return;

		// this isn't perfect, but gives a good starting point
		// and avoids calling getSubStringLength too often
		var start = Math.floor((w/sl) * txt.length);
		for (var x = start; x > 0; x = x-2) {
			if (t.getSubStringLength(0, x + 2) <= w) {
				t.textContent = txt.substring(0, x) + "..";
				return;
			}
		}
		t.textContent = "";
	}

	// zoom
	function zoom_reset(e) {
		if (e.attributes != undefined) {
			orig_load(e, "x");
			orig_load(e, "width");
		}
		if (e.childNodes == undefined) return;
		for (var i = 0, c = e.childNodes; i < c.length; i++) {
			zoom_reset(c[i]);
		}
	}
	function zoom_child(e, x, ratio) {
		if (e.attributes != undefined) {
			if (e.attributes.x != undefined) {
				orig_save(e, "x");
				e.attributes.x.value = (parseFloat(e.attributes.x.value) - x - 10) * ratio + 10;
				if (e.tagName == "text")
					e.attributes.x.value = find_child(e.parentNode, "rect[x]").attributes.x.value + 3;
			}
			if (e.attributes.width != undefined) {
				orig_save(e, "width");
				e.attributes.width.value = parseFloat(e.attributes.width.value) * ratio;
			}
		}

		if (e.childNodes == undefined) return;
		for (var i = 0, c = e.childNodes; i < c.length; i++) {
			zoom_child(c[i], x - 10, ratio);
		}
	}
	function zoom_parent(e) {
		if (e.attributes) {
			if (e.attributes.x != undefined) {
				orig_save(e, "x");
				e.attributes.x.value = 10;
			}
			if (e.attributes.width != undefined) {
				orig_save(e, "width");
				e.attributes.width.value = parseInt(svg.width.baseVal.value) - (10 * 2);
			}
		}
		if (e.childNodes == undefined) return;
		for (var i = 0, c = e.childNodes; i < c.length; i++) {
			zoom_parent(c[i]);
		}
	}
	function zoom(node) {
		var attr = find_child(node, "rect").attributes;
		var width = parseFloat(attr.width.value);
		var xmin = parseFloat(attr.x.value);
		var xmax = parseFloat(xmin + width);
		var ymin = parseFloat(attr.y.value);
		var ratio = (svg.width.baseVal.value - 2 * 10) / width;

		// XXX: Workaround for JavaScript float issues (fix me)
		var fudge = 0.0001;

		unzoombtn.classList.remove("hide");

		var el = document.getElementById("frames").children;
		for (var i = 0; i < el.length; i++) {
			var e = el[i];
			var a = find_child(e, "rect").attributes;
			var ex = parseFloat(a.x.value);
			var ew = parseFloat(a.width.value);
			var upstack;
			// Is it an ancestor
			if (0 == 0) {
				upstack = parseFloat(a.y.value) > ymin;
			} else {
				upstack = parseFloat(a.y.value) < ymin;
			}
			if (upstack) {
				// Direct ancestor
				if (ex <= xmin && (ex+ew+fudge) >= xmax) {
					e.classList.add("parent");
					zoom_parent(e);
					update_text(e);
				}
				// not in current path
				else
					e.classList.add("hide");
			}
			// Children maybe
			else {
				// no common path
				if (ex < xmin || ex + fudge >= xmax) {
					e.classList.add("hide");
				}
				else {
					zoom_child(e, xmin, ratio);
					update_text(e);
				}
			}
		}
		search();
	}
	function unzoom(dont_update_text) {
		unzoombtn.classList.add("hide");
		var el = document.getElementById("frames").children;
		for(var i = 0; i < el.length; i++) {
			el[i].classList.remove("parent");
			el[i].classList.remove("hide");
			zoom_reset(el[i]);
			if(!dont_update_text) update_text(el[i]);
		}
		search();
	}
	function clearzoom() {
		unzoom();

		// remove zoom state
		var params = get_params();
		if (params.x) delete params.x;
		if (params.y) delete params.y;
		history.replaceState(null, null, parse_params(params));
	}

	// search
	function toggle_ignorecase() {
		ignorecase = !ignorecase;
		if (ignorecase) {
			ignorecaseBtn.classList.add("show");
		} else {
			ignorecaseBtn.classList.remove("show");
		}
		reset_search();
		search();
	}
	function reset_search() {
		var el = document.querySelectorAll("#frames rect");
		for (var i = 0; i < el.length; i++) {
			orig_load(el[i], "fill")
		}
		var params = get_params();
		delete params.s;
		history.replaceState(null, null, parse_params(params));
	}
	function search_prompt() {
		if (!searching) {
			var term = prompt("Enter a search term (regexp " +
			    "allowed, eg: ^ext4_)"
			    + (ignorecase ? ", ignoring case" : "")
			    + "\nPress Ctrl-i to toggle case sensitivity", "");
			if (term != null) search(term);
		} else {
			reset_search();
			searching = 0;
			currentSearchTerm = null;
			searchbtn.classList.remove("show");
			searchbtn.firstChild.nodeValue = "Search"
			matchedtxt.classList.add("hide");
			matchedtxt.firstChild.nodeValue = ""
		}
	}
	function search(term) {
		if (term) currentSearchTerm = term;

		var re = new RegExp(currentSearchTerm, ignorecase ? 'i' : '');
		var el = document.getElementById("frames").children;
		var matches = new Object();
		var maxwidth = 0;
		for (var i = 0; i < el.length; i++) {
			var e = el[i];
			var func = g_to_func(e);
			var rect = find_child(e, "rect");
			if (func == null || rect == null)
				continue;

			// Save max width. Only works as we have a root frame
			var w = parseFloat(rect.attributes.width.value);
			if (w > maxwidth)
				maxwidth = w;

			if (func.match(re)) {
				// highlight
				var x = parseFloat(rect.attributes.x.value);
				orig_save(rect, "fill");
				rect.attributes.fill.value = "rgb(230,0,230)";

				// remember matches
				if (matches[x] == undefined) {
					matches[x] = w;
				} else {
					if (w > matches[x]) {
						// overwrite with parent
						matches[x] = w;
					}
				}
				searching = 1;
			}
		}
		if (!searching)
			return;
		var params = get_params();
		params.s = currentSearchTerm;
		history.replaceState(null, null, parse_params(params));

		searchbtn.classList.add("show");
		searchbtn.firstChild.nodeValue = "Reset Search";

		// calculate percent matched, excluding vertical overlap
		var count = 0;
		var lastx = -1;
		var lastw = 0;
		var keys = Array();
		for (k in matches) {
			if (matches.hasOwnProperty(k))
				keys.push(k);
		}
		// sort the matched frames by their x location
		// ascending, then width descending
		keys.sort(function(a, b){
			return a - b;
		});
		// Step through frames saving only the biggest bottom-up frames
		// thanks to the sort order. This relies on the tree property
		// where children are always smaller than their parents.
		var fudge = 0.0001;	// JavaScript floating point
		for (var k in keys) {
			var x = parseFloat(keys[k]);
			var w = matches[keys[k]];
			if (x >= lastx + lastw - fudge) {
				count += w;
				lastx = x;
				lastw = w;
			}
		}
		// display matched percent
		matchedtxt.classList.remove("hide");
		var pct = 100 * count / maxwidth;
		if (pct != 100) pct = pct.toFixed(1)
		matchedtxt.firstChild.nodeValue = "Matched: " + pct + "%";
	}
]]>
</script>
<rect x="0.0" y="0" width="1200.0" height="480.0" fill="url(#background)"  />
<text id="title" x="600.00" y="28" >Flame Graph</text>
<text id="details" x="10.00" y="461" > </text>
<text id="unzoom" x="10.00" y="28" class="hide">Reset Zoom</text>
<text id="search" x="1090.00" y="28" >Search</text>
<text id="ignorecase" x="1174.00" y="28" >ic</text>
<text id="matched" x="1090.00" y="461" > </text>
<g id="frames">
<g >
<title>__schedule (52,972,930 samples, 0.02%)</title><rect x="1189.8" y="331" width="0.2" height="15.0" fill="rgb(227,103,24)" rx="2" ry="2" />
<text  x="1192.80" y="341.5" ></text>
</g>
<g >
<title>__handle_mm_fault (1,777,086,973 samples, 0.57%)</title><rect x="1180.5" y="315" width="6.7" height="15.0" fill="rgb(207,9,2)" rx="2" ry="2" />
<text  x="1183.52" y="325.5" ></text>
</g>
<g >
<title>__alloc_pages (40,207,033 samples, 0.01%)</title><rect x="1186.9" y="251" width="0.2" height="15.0" fill="rgb(233,129,30)" rx="2" ry="2" />
<text  x="1189.90" y="261.5" ></text>
</g>
<g >
<title>percpu_counter_add_batch (202,238,440 samples, 0.06%)</title><rect x="1186.0" y="251" width="0.8" height="15.0" fill="rgb(241,166,39)" rx="2" ry="2" />
<text  x="1189.02" y="261.5" ></text>
</g>
<g >
<title>tasklet_action_common.isra.0 (122,921,097 samples, 0.04%)</title><rect x="796.7" y="315" width="0.4" height="15.0" fill="rgb(224,88,21)" rx="2" ry="2" />
<text  x="799.65" y="325.5" ></text>
</g>
<g >
<title>__enqueue_entity (40,228,813 samples, 0.01%)</title><rect x="1178.3" y="75" width="0.1" height="15.0" fill="rgb(241,166,39)" rx="2" ry="2" />
<text  x="1181.27" y="85.5" ></text>
</g>
<g >
<title>folio_add_file_rmap_ptes (581,350,890 samples, 0.19%)</title><rect x="1183.8" y="251" width="2.2" height="15.0" fill="rgb(225,92,22)" rx="2" ry="2" />
<text  x="1186.83" y="261.5" ></text>
</g>
<g >
<title>asm_exc_page_fault (214,082,688 samples, 0.07%)</title><rect x="797.1" y="379" width="0.8" height="15.0" fill="rgb(225,93,22)" rx="2" ry="2" />
<text  x="800.12" y="389.5" ></text>
</g>
<g >
<title>__pte_offset_map_lock (80,594,460 samples, 0.03%)</title><rect x="1181.0" y="267" width="0.3" height="15.0" fill="rgb(240,163,39)" rx="2" ry="2" />
<text  x="1183.96" y="277.5" ></text>
</g>
<g >
<title>asm_sysvec_apic_timer_interrupt (42,741,203 samples, 0.01%)</title><rect x="154.8" y="379" width="0.2" height="15.0" fill="rgb(232,127,30)" rx="2" ry="2" />
<text  x="157.82" y="389.5" ></text>
</g>
<g >
<title>common_interrupt (42,242,712 samples, 0.01%)</title><rect x="1182.8" y="203" width="0.1" height="15.0" fill="rgb(215,46,11)" rx="2" ry="2" />
<text  x="1185.76" y="213.5" ></text>
</g>
<g >
<title>xhci_get_frame (40,303,211 samples, 0.01%)</title><rect x="796.7" y="235" width="0.1" height="15.0" fill="rgb(225,94,22)" rx="2" ry="2" />
<text  x="799.65" y="245.5" ></text>
</g>
<g >
<title>__memcg_kmem_charge_page (40,207,033 samples, 0.01%)</title><rect x="1186.9" y="235" width="0.2" height="15.0" fill="rgb(217,57,13)" rx="2" ry="2" />
<text  x="1189.90" y="245.5" ></text>
</g>
<g >
<title>task_tick_fair (84,190,034 samples, 0.03%)</title><rect x="798.1" y="235" width="0.3" height="15.0" fill="rgb(217,57,13)" rx="2" ry="2" />
<text  x="801.09" y="245.5" ></text>
</g>
<g >
<title>perf_adjust_freq_unthr_context (40,290,767 samples, 0.01%)</title><rect x="1182.3" y="91" width="0.2" height="15.0" fill="rgb(236,146,35)" rx="2" ry="2" />
<text  x="1185.30" y="101.5" ></text>
</g>
<g >
<title>hashmap_find (171,170,932,615 samples, 54.55%)</title><rect x="155.0" y="395" width="643.7" height="15.0" fill="rgb(238,154,37)" rx="2" ry="2" />
<text  x="157.98" y="405.5" >hashmap_find</text>
</g>
<g >
<title>__mod_node_page_state (38,042,628 samples, 0.01%)</title><rect x="1184.9" y="203" width="0.1" height="15.0" fill="rgb(213,38,9)" rx="2" ry="2" />
<text  x="1187.89" y="213.5" ></text>
</g>
<g >
<title>asm_sysvec_reschedule_ipi (52,972,930 samples, 0.02%)</title><rect x="1189.8" y="379" width="0.2" height="15.0" fill="rgb(249,205,49)" rx="2" ry="2" />
<text  x="1192.80" y="389.5" ></text>
</g>
<g >
<title>ktime_get (40,224,337 samples, 0.01%)</title><rect x="1189.3" y="283" width="0.2" height="15.0" fill="rgb(207,10,2)" rx="2" ry="2" />
<text  x="1192.34" y="293.5" ></text>
</g>
<g >
<title>do_user_addr_fault (2,135,969,138 samples, 0.68%)</title><rect x="1179.9" y="347" width="8.1" height="15.0" fill="rgb(228,108,25)" rx="2" ry="2" />
<text  x="1182.93" y="357.5" ></text>
</g>
<g >
<title>__kernel_text_address (39,236,280 samples, 0.01%)</title><rect x="796.8" y="123" width="0.2" height="15.0" fill="rgb(248,199,47)" rx="2" ry="2" />
<text  x="799.81" y="133.5" ></text>
</g>
<g >
<title>smp_call_function_many_cond (71,766,401 samples, 0.02%)</title><rect x="797.4" y="235" width="0.3" height="15.0" fill="rgb(220,71,17)" rx="2" ry="2" />
<text  x="800.40" y="245.5" ></text>
</g>
<g >
<title>sync_regs (200,848,350 samples, 0.06%)</title><rect x="1188.0" y="363" width="0.7" height="15.0" fill="rgb(228,106,25)" rx="2" ry="2" />
<text  x="1190.96" y="373.5" ></text>
</g>
<g >
<title>__put_user_8 (40,995,142 samples, 0.01%)</title><rect x="798.4" y="331" width="0.2" height="15.0" fill="rgb(230,118,28)" rx="2" ry="2" />
<text  x="801.40" y="341.5" ></text>
</g>
<g >
<title>__pte_offset_map (40,300,816 samples, 0.01%)</title><rect x="1181.0" y="251" width="0.1" height="15.0" fill="rgb(249,205,49)" rx="2" ry="2" />
<text  x="1183.96" y="261.5" ></text>
</g>
<g >
<title>scheduler_tick (127,637,540 samples, 0.04%)</title><rect x="797.9" y="251" width="0.5" height="15.0" fill="rgb(246,190,45)" rx="2" ry="2" />
<text  x="800.92" y="261.5" ></text>
</g>
<g >
<title>exc_page_fault (146,875,029 samples, 0.05%)</title><rect x="797.1" y="363" width="0.6" height="15.0" fill="rgb(212,35,8)" rx="2" ry="2" />
<text  x="800.12" y="373.5" ></text>
</g>
<g >
<title>common_interrupt (81,016,790 samples, 0.03%)</title><rect x="1178.3" y="363" width="0.3" height="15.0" fill="rgb(215,46,11)" rx="2" ry="2" />
<text  x="1181.27" y="373.5" ></text>
</g>
<g >
<title>next_uptodate_folio (602,387,378 samples, 0.19%)</title><rect x="1181.3" y="267" width="2.2" height="15.0" fill="rgb(209,20,4)" rx="2" ry="2" />
<text  x="1184.26" y="277.5" ></text>
</g>
<g >
<title>enqueue_entity (40,228,813 samples, 0.01%)</title><rect x="1178.3" y="91" width="0.1" height="15.0" fill="rgb(218,62,15)" rx="2" ry="2" />
<text  x="1181.27" y="101.5" ></text>
</g>
<g >
<title>xas_load (243,464,850 samples, 0.08%)</title><rect x="1182.6" y="235" width="0.9" height="15.0" fill="rgb(217,59,14)" rx="2" ry="2" />
<text  x="1185.61" y="245.5" ></text>
</g>
<g >
<title>usb_hcd_submit_urb (42,242,712 samples, 0.01%)</title><rect x="1182.8" y="75" width="0.1" height="15.0" fill="rgb(244,181,43)" rx="2" ry="2" />
<text  x="1185.76" y="85.5" ></text>
</g>
<g >
<title>__mod_lruvec_state (77,801,239 samples, 0.02%)</title><rect x="1184.7" y="219" width="0.3" height="15.0" fill="rgb(226,100,24)" rx="2" ry="2" />
<text  x="1187.74" y="229.5" ></text>
</g>
<g >
<title>__kmalloc (39,236,280 samples, 0.01%)</title><rect x="796.8" y="203" width="0.2" height="15.0" fill="rgb(212,33,8)" rx="2" ry="2" />
<text  x="799.81" y="213.5" ></text>
</g>
<g >
<title>[ld-linux-x86-64.so.2] (136,951,351 samples, 0.04%)</title><rect x="12.6" y="379" width="0.5" height="15.0" fill="rgb(243,178,42)" rx="2" ry="2" />
<text  x="15.63" y="389.5" ></text>
</g>
<g >
<title>scheduler_tick (40,290,767 samples, 0.01%)</title><rect x="1182.3" y="123" width="0.2" height="15.0" fill="rgb(246,190,45)" rx="2" ry="2" />
<text  x="1185.30" y="133.5" ></text>
</g>
<g >
<title>__sysvec_apic_timer_interrupt (127,637,540 samples, 0.04%)</title><rect x="797.9" y="347" width="0.5" height="15.0" fill="rgb(242,173,41)" rx="2" ry="2" />
<text  x="800.92" y="357.5" ></text>
</g>
<g >
<title>tick_nohz_highres_handler (127,637,540 samples, 0.04%)</title><rect x="797.9" y="299" width="0.5" height="15.0" fill="rgb(215,50,11)" rx="2" ry="2" />
<text  x="800.92" y="309.5" ></text>
</g>
<g >
<title>tick_sched_handle (40,290,767 samples, 0.01%)</title><rect x="1182.3" y="155" width="0.2" height="15.0" fill="rgb(219,68,16)" rx="2" ry="2" />
<text  x="1185.30" y="165.5" ></text>
</g>
<g >
<title>do_user_addr_fault (146,875,029 samples, 0.05%)</title><rect x="797.1" y="347" width="0.6" height="15.0" fill="rgb(228,108,25)" rx="2" ry="2" />
<text  x="800.12" y="357.5" ></text>
</g>
<g >
<title>1BR (313,762,164,900 samples, 100.00%)</title><rect x="10.0" y="411" width="1180.0" height="15.0" fill="rgb(240,165,39)" rx="2" ry="2" />
<text  x="13.00" y="421.5" >1BR</text>
</g>
<g >
<title>usb_giveback_urb_bh (42,242,712 samples, 0.01%)</title><rect x="1182.8" y="139" width="0.1" height="15.0" fill="rgb(211,30,7)" rx="2" ry="2" />
<text  x="1185.76" y="149.5" ></text>
</g>
<g >
<title>common_interrupt (122,921,097 samples, 0.04%)</title><rect x="796.7" y="363" width="0.4" height="15.0" fill="rgb(215,46,11)" rx="2" ry="2" />
<text  x="799.65" y="373.5" ></text>
</g>
<g >
<title>schedule (52,972,930 samples, 0.02%)</title><rect x="1189.8" y="347" width="0.2" height="15.0" fill="rgb(254,229,54)" rx="2" ry="2" />
<text  x="1192.80" y="357.5" ></text>
</g>
<g >
<title>xhci_urb_enqueue (42,242,712 samples, 0.01%)</title><rect x="1182.8" y="59" width="0.1" height="15.0" fill="rgb(236,144,34)" rx="2" ry="2" />
<text  x="1185.76" y="69.5" ></text>
</g>
<g >
<title>asm_exc_page_fault (2,697,710,756 samples, 0.86%)</title><rect x="1178.6" y="379" width="10.1" height="15.0" fill="rgb(225,93,22)" rx="2" ry="2" />
<text  x="1181.57" y="389.5" ></text>
</g>
<g >
<title>usb_hcd_submit_urb (82,617,886 samples, 0.03%)</title><rect x="796.8" y="235" width="0.3" height="15.0" fill="rgb(244,181,43)" rx="2" ry="2" />
<text  x="799.81" y="245.5" ></text>
</g>
<g >
<title>tick_nohz_highres_handler (40,290,767 samples, 0.01%)</title><rect x="1182.3" y="171" width="0.2" height="15.0" fill="rgb(215,50,11)" rx="2" ry="2" />
<text  x="1185.30" y="181.5" ></text>
</g>
<g >
<title>enqueue_hrtimer (43,597,893 samples, 0.01%)</title><rect x="1189.2" y="299" width="0.1" height="15.0" fill="rgb(211,29,7)" rx="2" ry="2" />
<text  x="1192.17" y="309.5" ></text>
</g>
<g >
<title>set_pte_range (864,178,489 samples, 0.28%)</title><rect x="1183.5" y="267" width="3.3" height="15.0" fill="rgb(224,90,21)" rx="2" ry="2" />
<text  x="1186.53" y="277.5" ></text>
</g>
<g >
<title>__usb_hcd_giveback_urb (42,242,712 samples, 0.01%)</title><rect x="1182.8" y="123" width="0.1" height="15.0" fill="rgb(231,123,29)" rx="2" ry="2" />
<text  x="1185.76" y="133.5" ></text>
</g>
<g >
<title>update_blocked_averages (42,741,203 samples, 0.01%)</title><rect x="154.8" y="299" width="0.2" height="15.0" fill="rgb(240,163,38)" rx="2" ry="2" />
<text  x="157.82" y="309.5" ></text>
</g>
<g >
<title>do_wp_page (71,766,401 samples, 0.02%)</title><rect x="797.4" y="299" width="0.3" height="15.0" fill="rgb(212,36,8)" rx="2" ry="2" />
<text  x="800.40" y="309.5" ></text>
</g>
<g >
<title>timerqueue_add (43,597,893 samples, 0.01%)</title><rect x="1189.2" y="283" width="0.1" height="15.0" fill="rgb(214,42,10)" rx="2" ry="2" />
<text  x="1192.17" y="293.5" ></text>
</g>
<g >
<title>schedule (43,034,491 samples, 0.01%)</title><rect x="798.6" y="347" width="0.1" height="15.0" fill="rgb(254,229,54)" rx="2" ry="2" />
<text  x="801.56" y="357.5" ></text>
</g>
<g >
<title>gk104_fifo_intr (40,228,813 samples, 0.01%)</title><rect x="1178.3" y="267" width="0.1" height="15.0" fill="rgb(229,111,26)" rx="2" ry="2" />
<text  x="1181.27" y="277.5" ></text>
</g>
<g >
<title>load_balance (40,172,740 samples, 0.01%)</title><rect x="1188.9" y="299" width="0.1" height="15.0" fill="rgb(226,96,23)" rx="2" ry="2" />
<text  x="1191.87" y="309.5" ></text>
</g>
<g >
<title>pte_offset_map_nolock (40,229,688 samples, 0.01%)</title><rect x="1187.1" y="299" width="0.1" height="15.0" fill="rgb(240,162,38)" rx="2" ry="2" />
<text  x="1190.05" y="309.5" ></text>
</g>
<g >
<title>sysvec_apic_timer_interrupt (40,290,767 samples, 0.01%)</title><rect x="1182.3" y="235" width="0.2" height="15.0" fill="rgb(220,69,16)" rx="2" ry="2" />
<text  x="1185.30" y="245.5" ></text>
</g>
<g >
<title>update_process_times (40,290,767 samples, 0.01%)</title><rect x="1182.3" y="139" width="0.2" height="15.0" fill="rgb(250,209,50)" rx="2" ry="2" />
<text  x="1185.30" y="149.5" ></text>
</g>
<g >
<title>run_timer_softirq (40,275,325 samples, 0.01%)</title><rect x="1189.0" y="315" width="0.2" height="15.0" fill="rgb(249,206,49)" rx="2" ry="2" />
<text  x="1192.02" y="325.5" ></text>
</g>
<g >
<title>xhci_urb_enqueue (82,617,886 samples, 0.03%)</title><rect x="796.8" y="219" width="0.3" height="15.0" fill="rgb(236,144,34)" rx="2" ry="2" />
<text  x="799.81" y="229.5" ></text>
</g>
<g >
<title>irqentry_exit_to_user_mode (84,029,633 samples, 0.03%)</title><rect x="798.4" y="363" width="0.3" height="15.0" fill="rgb(254,229,54)" rx="2" ry="2" />
<text  x="801.40" y="373.5" ></text>
</g>
<g >
<title>hrtimer_interrupt (124,119,693 samples, 0.04%)</title><rect x="1189.2" y="331" width="0.4" height="15.0" fill="rgb(228,109,26)" rx="2" ry="2" />
<text  x="1192.17" y="341.5" ></text>
</g>
<g >
<title>handle_mm_fault (1,934,800,040 samples, 0.62%)</title><rect x="1180.1" y="331" width="7.3" height="15.0" fill="rgb(234,135,32)" rx="2" ry="2" />
<text  x="1183.08" y="341.5" ></text>
</g>
<g >
<title>__schedule (43,034,491 samples, 0.01%)</title><rect x="798.6" y="331" width="0.1" height="15.0" fill="rgb(227,103,24)" rx="2" ry="2" />
<text  x="801.56" y="341.5" ></text>
</g>
<g >
<title>__update_load_avg_cfs_rq (42,741,203 samples, 0.01%)</title><rect x="154.8" y="267" width="0.2" height="15.0" fill="rgb(228,107,25)" rx="2" ry="2" />
<text  x="157.82" y="277.5" ></text>
</g>
<g >
<title>retire_playback_urb (40,303,211 samples, 0.01%)</title><rect x="796.7" y="251" width="0.1" height="15.0" fill="rgb(235,140,33)" rx="2" ry="2" />
<text  x="799.65" y="261.5" ></text>
</g>
<g >
<title>update_process_times (40,297,463 samples, 0.01%)</title><rect x="1189.5" y="267" width="0.1" height="15.0" fill="rgb(250,209,50)" rx="2" ry="2" />
<text  x="1192.49" y="277.5" ></text>
</g>
<g >
<title>irqtime_account_irq (43,005,680 samples, 0.01%)</title><rect x="1189.6" y="347" width="0.2" height="15.0" fill="rgb(224,88,21)" rx="2" ry="2" />
<text  x="1192.64" y="357.5" ></text>
</g>
<g >
<title>irqentry_exit_to_user_mode (67,207,659 samples, 0.02%)</title><rect x="797.7" y="363" width="0.2" height="15.0" fill="rgb(254,229,54)" rx="2" ry="2" />
<text  x="800.67" y="373.5" ></text>
</g>
<g >
<title>__do_softirq (80,448,065 samples, 0.03%)</title><rect x="1188.9" y="331" width="0.3" height="15.0" fill="rgb(246,191,45)" rx="2" ry="2" />
<text  x="1191.87" y="341.5" ></text>
</g>
<g >
<title>down_read_trylock (80,291,592 samples, 0.03%)</title><rect x="1187.5" y="315" width="0.3" height="15.0" fill="rgb(219,66,15)" rx="2" ry="2" />
<text  x="1190.51" y="325.5" ></text>
</g>
<g >
<title>unwind_get_return_address (39,236,280 samples, 0.01%)</title><rect x="796.8" y="139" width="0.2" height="15.0" fill="rgb(251,211,50)" rx="2" ry="2" />
<text  x="799.81" y="149.5" ></text>
</g>
<g >
<title>is_module_text_address (39,236,280 samples, 0.01%)</title><rect x="796.8" y="91" width="0.2" height="15.0" fill="rgb(208,16,4)" rx="2" ry="2" />
<text  x="799.81" y="101.5" ></text>
</g>
<g >
<title>nvkm_event_ntfy (40,228,813 samples, 0.01%)</title><rect x="1178.3" y="251" width="0.1" height="15.0" fill="rgb(240,162,38)" rx="2" ry="2" />
<text  x="1181.27" y="261.5" ></text>
</g>
<g >
<title>sysvec_apic_timer_interrupt (127,637,540 samples, 0.04%)</title><rect x="797.9" y="363" width="0.5" height="15.0" fill="rgb(220,69,16)" rx="2" ry="2" />
<text  x="800.92" y="373.5" ></text>
</g>
<g >
<title>__common_interrupt (81,016,790 samples, 0.03%)</title><rect x="1178.3" y="347" width="0.3" height="15.0" fill="rgb(237,150,36)" rx="2" ry="2" />
<text  x="1181.27" y="357.5" ></text>
</g>
<g >
<title>__pte_offset_map (40,229,688 samples, 0.01%)</title><rect x="1187.1" y="283" width="0.1" height="15.0" fill="rgb(249,205,49)" rx="2" ry="2" />
<text  x="1190.05" y="293.5" ></text>
</g>
<g >
<title>pick_next_task_fair (42,761,782 samples, 0.01%)</title><rect x="798.6" y="315" width="0.1" height="15.0" fill="rgb(242,170,40)" rx="2" ry="2" />
<text  x="801.56" y="325.5" ></text>
</g>
<g >
<title>__kfence_alloc (39,236,280 samples, 0.01%)</title><rect x="796.8" y="187" width="0.2" height="15.0" fill="rgb(238,155,37)" rx="2" ry="2" />
<text  x="799.81" y="197.5" ></text>
</g>
<g >
<title>lock_vma_under_rcu (160,875,858 samples, 0.05%)</title><rect x="1187.4" y="331" width="0.6" height="15.0" fill="rgb(251,211,50)" rx="2" ry="2" />
<text  x="1190.36" y="341.5" ></text>
</g>
<g >
<title>alloc_pages_mpol (40,207,033 samples, 0.01%)</title><rect x="1186.9" y="267" width="0.2" height="15.0" fill="rgb(254,227,54)" rx="2" ry="2" />
<text  x="1189.90" y="277.5" ></text>
</g>
<g >
<title>nvkm_client_event (40,228,813 samples, 0.01%)</title><rect x="1178.3" y="235" width="0.1" height="15.0" fill="rgb(213,36,8)" rx="2" ry="2" />
<text  x="1181.27" y="245.5" ></text>
</g>
<g >
<title>nvkm_intr (81,016,790 samples, 0.03%)</title><rect x="1178.3" y="283" width="0.3" height="15.0" fill="rgb(207,9,2)" rx="2" ry="2" />
<text  x="1181.27" y="293.5" ></text>
</g>
<g >
<title>__do_softirq (42,242,712 samples, 0.01%)</title><rect x="1182.8" y="171" width="0.1" height="15.0" fill="rgb(246,191,45)" rx="2" ry="2" />
<text  x="1185.76" y="181.5" ></text>
</g>
<g >
<title>all (313,762,360,452 samples, 100%)</title><rect x="10.0" y="427" width="1180.0" height="15.0" fill="rgb(213,39,9)" rx="2" ry="2" />
<text  x="13.00" y="437.5" ></text>
</g>
<g >
<title>sysvec_apic_timer_interrupt (247,573,438 samples, 0.08%)</title><rect x="1188.9" y="363" width="0.9" height="15.0" fill="rgb(220,69,16)" rx="2" ry="2" />
<text  x="1191.87" y="373.5" ></text>
</g>
<g >
<title>hrtimer_interrupt (40,290,767 samples, 0.01%)</title><rect x="1182.3" y="203" width="0.2" height="15.0" fill="rgb(228,109,26)" rx="2" ry="2" />
<text  x="1185.30" y="213.5" ></text>
</g>
<g >
<title>malloc (740,362,541 samples, 0.24%)</title><rect x="16.0" y="379" width="2.8" height="15.0" fill="rgb(230,119,28)" rx="2" ry="2" />
<text  x="19.05" y="389.5" ></text>
</g>
<g >
<title>perf_adjust_freq_unthr_context (43,447,506 samples, 0.01%)</title><rect x="797.9" y="219" width="0.2" height="15.0" fill="rgb(236,146,35)" rx="2" ry="2" />
<text  x="800.92" y="229.5" ></text>
</g>
<g >
<title>xas_start (160,924,992 samples, 0.05%)</title><rect x="1182.9" y="219" width="0.6" height="15.0" fill="rgb(250,209,50)" rx="2" ry="2" />
<text  x="1185.92" y="229.5" ></text>
</g>
<g >
<title>xhci_queue_isoc_tx_prepare (42,242,712 samples, 0.01%)</title><rect x="1182.8" y="43" width="0.1" height="15.0" fill="rgb(243,178,42)" rx="2" ry="2" />
<text  x="1185.76" y="53.5" ></text>
</g>
<g >
<title>asm_sysvec_apic_timer_interrupt (40,290,767 samples, 0.01%)</title><rect x="1182.3" y="251" width="0.2" height="15.0" fill="rgb(232,127,30)" rx="2" ry="2" />
<text  x="1185.30" y="261.5" ></text>
</g>
<g >
<title>irqentry_exit_to_user_mode (52,972,930 samples, 0.02%)</title><rect x="1189.8" y="363" width="0.2" height="15.0" fill="rgb(254,229,54)" rx="2" ry="2" />
<text  x="1192.80" y="373.5" ></text>
</g>
<g >
<title>__hrtimer_run_queues (124,119,693 samples, 0.04%)</title><rect x="1189.2" y="315" width="0.4" height="15.0" fill="rgb(237,150,35)" rx="2" ry="2" />
<text  x="1192.17" y="325.5" ></text>
</g>
<g >
<title>set_ptes.isra.0 (32,409,046 samples, 0.01%)</title><rect x="1186.8" y="267" width="0.1" height="15.0" fill="rgb(248,199,47)" rx="2" ry="2" />
<text  x="1189.78" y="277.5" ></text>
</g>
<g >
<title>__sysvec_apic_timer_interrupt (40,290,767 samples, 0.01%)</title><rect x="1182.3" y="219" width="0.2" height="15.0" fill="rgb(242,173,41)" rx="2" ry="2" />
<text  x="1185.30" y="229.5" ></text>
</g>
<g >
<title>queue_work_on (40,228,813 samples, 0.01%)</title><rect x="1178.3" y="203" width="0.1" height="15.0" fill="rgb(248,200,48)" rx="2" ry="2" />
<text  x="1181.27" y="213.5" ></text>
</g>
<g >
<title>asm_sysvec_reschedule_ipi (84,029,633 samples, 0.03%)</title><rect x="798.4" y="379" width="0.3" height="15.0" fill="rgb(249,205,49)" rx="2" ry="2" />
<text  x="801.40" y="389.5" ></text>
</g>
<g >
<title>xhci_queue_isoc_tx_prepare (43,381,606 samples, 0.01%)</title><rect x="797.0" y="203" width="0.1" height="15.0" fill="rgb(243,178,42)" rx="2" ry="2" />
<text  x="799.95" y="213.5" ></text>
</g>
<g >
<title>asm_common_interrupt (122,921,097 samples, 0.04%)</title><rect x="796.7" y="379" width="0.4" height="15.0" fill="rgb(227,105,25)" rx="2" ry="2" />
<text  x="799.65" y="389.5" ></text>
</g>
<g >
<title>worker (104,041,757,435 samples, 33.16%)</title><rect x="798.7" y="395" width="391.3" height="15.0" fill="rgb(211,28,6)" rx="2" ry="2" />
<text  x="801.72" y="405.5" >worker</text>
</g>
<g >
<title>tick_nohz_highres_handler (80,521,800 samples, 0.03%)</title><rect x="1189.3" y="299" width="0.3" height="15.0" fill="rgb(215,50,11)" rx="2" ry="2" />
<text  x="1192.34" y="309.5" ></text>
</g>
<g >
<title>__hrtimer_run_queues (127,637,540 samples, 0.04%)</title><rect x="797.9" y="315" width="0.5" height="15.0" fill="rgb(237,150,35)" rx="2" ry="2" />
<text  x="800.92" y="325.5" ></text>
</g>
<g >
<title>exc_page_fault (2,135,969,138 samples, 0.68%)</title><rect x="1179.9" y="363" width="8.1" height="15.0" fill="rgb(212,35,8)" rx="2" ry="2" />
<text  x="1182.93" y="373.5" ></text>
</g>
<g >
<title>ioread32 (40,787,977 samples, 0.01%)</title><rect x="1178.4" y="251" width="0.2" height="15.0" fill="rgb(254,226,54)" rx="2" ry="2" />
<text  x="1181.42" y="261.5" ></text>
</g>
<g >
<title>asm_sysvec_apic_timer_interrupt (287,316,363 samples, 0.09%)</title><rect x="1188.7" y="379" width="1.1" height="15.0" fill="rgb(232,127,30)" rx="2" ry="2" />
<text  x="1191.72" y="389.5" ></text>
</g>
<g >
<title>[libc.so.6] (698,937,749 samples, 0.22%)</title><rect x="10.0" y="395" width="2.6" height="15.0" fill="rgb(223,84,20)" rx="2" ry="2" />
<text  x="13.00" y="405.5" ></text>
</g>
<g >
<title>__module_address (39,236,280 samples, 0.01%)</title><rect x="796.8" y="75" width="0.2" height="15.0" fill="rgb(206,5,1)" rx="2" ry="2" />
<text  x="799.81" y="85.5" ></text>
</g>
<g >
<title>handle_irq_event (81,016,790 samples, 0.03%)</title><rect x="1178.3" y="315" width="0.3" height="15.0" fill="rgb(209,19,4)" rx="2" ry="2" />
<text  x="1181.27" y="325.5" ></text>
</g>
<g >
<title>handle_edge_irq (81,016,790 samples, 0.03%)</title><rect x="1178.3" y="331" width="0.3" height="15.0" fill="rgb(220,69,16)" rx="2" ry="2" />
<text  x="1181.27" y="341.5" ></text>
</g>
<g >
<title>mas_walk (40,299,712 samples, 0.01%)</title><rect x="1187.8" y="315" width="0.2" height="15.0" fill="rgb(242,170,40)" rx="2" ry="2" />
<text  x="1190.81" y="325.5" ></text>
</g>
<g >
<title>__rseq_handle_notify_resume (40,995,142 samples, 0.01%)</title><rect x="798.4" y="347" width="0.2" height="15.0" fill="rgb(238,153,36)" rx="2" ry="2" />
<text  x="801.40" y="357.5" ></text>
</g>
<g >
<title>__irq_exit_rcu (42,741,203 samples, 0.01%)</title><rect x="154.8" y="347" width="0.2" height="15.0" fill="rgb(227,101,24)" rx="2" ry="2" />
<text  x="157.82" y="357.5" ></text>
</g>
<g >
<title>_raw_spin_lock (75,108,628 samples, 0.02%)</title><rect x="797.1" y="267" width="0.3" height="15.0" fill="rgb(239,160,38)" rx="2" ry="2" />
<text  x="800.12" y="277.5" ></text>
</g>
<g >
<title>xas_find (285,487,124 samples, 0.09%)</title><rect x="1182.5" y="251" width="1.0" height="15.0" fill="rgb(211,29,7)" rx="2" ry="2" />
<text  x="1185.45" y="261.5" ></text>
</g>
<g >
<title>__do_softirq (42,741,203 samples, 0.01%)</title><rect x="154.8" y="331" width="0.2" height="15.0" fill="rgb(246,191,45)" rx="2" ry="2" />
<text  x="157.82" y="341.5" ></text>
</g>
<g >
<title>perf_event_task_tick (40,290,767 samples, 0.01%)</title><rect x="1182.3" y="107" width="0.2" height="15.0" fill="rgb(205,3,0)" rx="2" ry="2" />
<text  x="1185.30" y="117.5" ></text>
</g>
<g >
<title>__irq_exit_rcu (80,448,065 samples, 0.03%)</title><rect x="1188.9" y="347" width="0.3" height="15.0" fill="rgb(227,101,24)" rx="2" ry="2" />
<text  x="1191.87" y="357.5" ></text>
</g>
<g >
<title>__sysvec_apic_timer_interrupt (124,119,693 samples, 0.04%)</title><rect x="1189.2" y="347" width="0.4" height="15.0" fill="rgb(242,173,41)" rx="2" ry="2" />
<text  x="1192.17" y="357.5" ></text>
</g>
<g >
<title>hrtimer_active (39,566,793 samples, 0.01%)</title><rect x="798.1" y="219" width="0.1" height="15.0" fill="rgb(212,34,8)" rx="2" ry="2" />
<text  x="801.09" y="229.5" ></text>
</g>
<g >
<title>snd_complete_urb (42,242,712 samples, 0.01%)</title><rect x="1182.8" y="107" width="0.1" height="15.0" fill="rgb(225,93,22)" rx="2" ry="2" />
<text  x="1185.76" y="117.5" ></text>
</g>
<g >
<title>[unknown] (1,649,762,995 samples, 0.53%)</title><rect x="12.6" y="395" width="6.2" height="15.0" fill="rgb(210,24,5)" rx="2" ry="2" />
<text  x="15.63" y="405.5" ></text>
</g>
<g >
<title>update_process_times (127,637,540 samples, 0.04%)</title><rect x="797.9" y="267" width="0.5" height="15.0" fill="rgb(250,209,50)" rx="2" ry="2" />
<text  x="800.92" y="277.5" ></text>
</g>
<g >
<title>filemap_map_pages (1,696,650,252 samples, 0.54%)</title><rect x="1180.5" y="283" width="6.4" height="15.0" fill="rgb(229,112,27)" rx="2" ry="2" />
<text  x="1183.52" y="293.5" ></text>
</g>
<g >
<title>pick_next_task_fair (52,756,099 samples, 0.02%)</title><rect x="1189.8" y="315" width="0.2" height="15.0" fill="rgb(242,170,40)" rx="2" ry="2" />
<text  x="1192.80" y="325.5" ></text>
</g>
<g >
<title>stack_trace_save (39,236,280 samples, 0.01%)</title><rect x="796.8" y="171" width="0.2" height="15.0" fill="rgb(248,197,47)" rx="2" ry="2" />
<text  x="799.81" y="181.5" ></text>
</g>
<g >
<title>mem_cgroup_from_task (41,846,313 samples, 0.01%)</title><rect x="1187.2" y="315" width="0.2" height="15.0" fill="rgb(247,195,46)" rx="2" ry="2" />
<text  x="1190.20" y="325.5" ></text>
</g>
<g >
<title>usb_giveback_urb_bh (122,921,097 samples, 0.04%)</title><rect x="796.7" y="299" width="0.4" height="15.0" fill="rgb(211,30,7)" rx="2" ry="2" />
<text  x="799.65" y="309.5" ></text>
</g>
<g >
<title>sysvec_apic_timer_interrupt (42,741,203 samples, 0.01%)</title><rect x="154.8" y="363" width="0.2" height="15.0" fill="rgb(220,69,16)" rx="2" ry="2" />
<text  x="157.82" y="373.5" ></text>
</g>
<g >
<title>update_curr (44,623,241 samples, 0.01%)</title><rect x="798.2" y="219" width="0.2" height="15.0" fill="rgb(227,105,25)" rx="2" ry="2" />
<text  x="801.23" y="229.5" ></text>
</g>
<g >
<title>_raw_spin_lock (40,293,644 samples, 0.01%)</title><rect x="1181.1" y="251" width="0.2" height="15.0" fill="rgb(239,160,38)" rx="2" ry="2" />
<text  x="1184.11" y="261.5" ></text>
</g>
<g >
<title>__mod_memcg_lruvec_state (261,620,566 samples, 0.08%)</title><rect x="1185.0" y="219" width="1.0" height="15.0" fill="rgb(247,195,46)" rx="2" ry="2" />
<text  x="1188.03" y="229.5" ></text>
</g>
<g >
<title>__hrtimer_run_queues (40,290,767 samples, 0.01%)</title><rect x="1182.3" y="187" width="0.2" height="15.0" fill="rgb(237,150,35)" rx="2" ry="2" />
<text  x="1185.30" y="197.5" ></text>
</g>
<g >
<title>on_each_cpu_cond_mask (71,766,401 samples, 0.02%)</title><rect x="797.4" y="251" width="0.3" height="15.0" fill="rgb(243,178,42)" rx="2" ry="2" />
<text  x="800.40" y="261.5" ></text>
</g>
<g >
<title>snd_complete_urb (122,921,097 samples, 0.04%)</title><rect x="796.7" y="267" width="0.4" height="15.0" fill="rgb(225,93,22)" rx="2" ry="2" />
<text  x="799.65" y="277.5" ></text>
</g>
<g >
<title>arch_stack_walk (39,236,280 samples, 0.01%)</title><rect x="796.8" y="155" width="0.2" height="15.0" fill="rgb(227,105,25)" rx="2" ry="2" />
<text  x="799.81" y="165.5" ></text>
</g>
<g >
<title>perf_event_task_tick (43,447,506 samples, 0.01%)</title><rect x="797.9" y="235" width="0.2" height="15.0" fill="rgb(205,3,0)" rx="2" ry="2" />
<text  x="800.92" y="245.5" ></text>
</g>
<g >
<title>__run_timers (40,275,325 samples, 0.01%)</title><rect x="1189.0" y="299" width="0.2" height="15.0" fill="rgb(206,5,1)" rx="2" ry="2" />
<text  x="1192.02" y="309.5" ></text>
</g>
<g >
<title>[libc.so.6] (771,991,944 samples, 0.25%)</title><rect x="13.1" y="379" width="2.9" height="15.0" fill="rgb(223,84,20)" rx="2" ry="2" />
<text  x="16.14" y="389.5" ></text>
</g>
<g >
<title>nouveau_fence_wait_uevent_handler (40,228,813 samples, 0.01%)</title><rect x="1178.3" y="219" width="0.1" height="15.0" fill="rgb(216,54,13)" rx="2" ry="2" />
<text  x="1181.27" y="229.5" ></text>
</g>
<g >
<title>snd_usb_queue_pending_output_urbs (82,617,886 samples, 0.03%)</title><rect x="796.8" y="251" width="0.3" height="15.0" fill="rgb(211,30,7)" rx="2" ry="2" />
<text  x="799.81" y="261.5" ></text>
</g>
<g >
<title>enqueue_task (40,228,813 samples, 0.01%)</title><rect x="1178.3" y="123" width="0.1" height="15.0" fill="rgb(230,116,27)" rx="2" ry="2" />
<text  x="1181.27" y="133.5" ></text>
</g>
<g >
<title>tick_sched_handle (40,297,463 samples, 0.01%)</title><rect x="1189.5" y="283" width="0.1" height="15.0" fill="rgb(219,68,16)" rx="2" ry="2" />
<text  x="1192.49" y="293.5" ></text>
</g>
<g >
<title>enqueue_task_fair (40,228,813 samples, 0.01%)</title><rect x="1178.3" y="107" width="0.1" height="15.0" fill="rgb(216,52,12)" rx="2" ry="2" />
<text  x="1181.27" y="117.5" ></text>
</g>
<g >
<title>kernel_text_address (39,236,280 samples, 0.01%)</title><rect x="796.8" y="107" width="0.2" height="15.0" fill="rgb(225,95,22)" rx="2" ry="2" />
<text  x="799.81" y="117.5" ></text>
</g>
<g >
<title>__do_softirq (122,921,097 samples, 0.04%)</title><rect x="796.7" y="331" width="0.4" height="15.0" fill="rgb(246,191,45)" rx="2" ry="2" />
<text  x="799.65" y="341.5" ></text>
</g>
<g >
<title>__irq_exit_rcu (42,242,712 samples, 0.01%)</title><rect x="1182.8" y="187" width="0.1" height="15.0" fill="rgb(227,101,24)" rx="2" ry="2" />
<text  x="1185.76" y="197.5" ></text>
</g>
<g >
<title>hrtimer_interrupt (127,637,540 samples, 0.04%)</title><rect x="797.9" y="331" width="0.5" height="15.0" fill="rgb(228,109,26)" rx="2" ry="2" />
<text  x="800.92" y="341.5" ></text>
</g>
<g >
<title>rebalance_domains (40,172,740 samples, 0.01%)</title><rect x="1188.9" y="315" width="0.1" height="15.0" fill="rgb(248,202,48)" rx="2" ry="2" />
<text  x="1191.87" y="325.5" ></text>
</g>
<g >
<title>__usb_hcd_giveback_urb (122,921,097 samples, 0.04%)</title><rect x="796.7" y="283" width="0.4" height="15.0" fill="rgb(231,123,29)" rx="2" ry="2" />
<text  x="799.65" y="293.5" ></text>
</g>
<g >
<title>fnv_string_hash (36,162,187,994 samples, 11.53%)</title><rect x="19.0" y="395" width="136.0" height="15.0" fill="rgb(208,15,3)" rx="2" ry="2" />
<text  x="21.98" y="405.5" >fnv_string_hash</text>
</g>
<g >
<title>__queue_work.part.0 (40,228,813 samples, 0.01%)</title><rect x="1178.3" y="187" width="0.1" height="15.0" fill="rgb(222,79,19)" rx="2" ry="2" />
<text  x="1181.27" y="197.5" ></text>
</g>
<g >
<title>ptep_clear_flush (71,766,401 samples, 0.02%)</title><rect x="797.4" y="283" width="0.3" height="15.0" fill="rgb(207,11,2)" rx="2" ry="2" />
<text  x="800.40" y="293.5" ></text>
</g>
<g >
<title>nv04_mc_intr_pending (40,787,977 samples, 0.01%)</title><rect x="1178.4" y="267" width="0.2" height="15.0" fill="rgb(248,200,47)" rx="2" ry="2" />
<text  x="1181.42" y="277.5" ></text>
</g>
<g >
<title>tasklet_action_common.isra.0 (42,242,712 samples, 0.01%)</title><rect x="1182.8" y="155" width="0.1" height="15.0" fill="rgb(224,88,21)" rx="2" ry="2" />
<text  x="1185.76" y="165.5" ></text>
</g>
<g >
<title>kick_pool (40,228,813 samples, 0.01%)</title><rect x="1178.3" y="171" width="0.1" height="15.0" fill="rgb(244,181,43)" rx="2" ry="2" />
<text  x="1181.27" y="181.5" ></text>
</g>
<g >
<title>asm_sysvec_apic_timer_interrupt (127,789,032 samples, 0.04%)</title><rect x="797.9" y="379" width="0.5" height="15.0" fill="rgb(232,127,30)" rx="2" ry="2" />
<text  x="800.92" y="389.5" ></text>
</g>
<g >
<title>flush_tlb_mm_range (71,766,401 samples, 0.02%)</title><rect x="797.4" y="267" width="0.3" height="15.0" fill="rgb(215,48,11)" rx="2" ry="2" />
<text  x="800.40" y="277.5" ></text>
</g>
<g >
<title>run_rebalance_domains (42,741,203 samples, 0.01%)</title><rect x="154.8" y="315" width="0.2" height="15.0" fill="rgb(232,126,30)" rx="2" ry="2" />
<text  x="157.82" y="325.5" ></text>
</g>
<g >
<title>pte_alloc_one (40,207,033 samples, 0.01%)</title><rect x="1186.9" y="283" width="0.2" height="15.0" fill="rgb(252,217,51)" rx="2" ry="2" />
<text  x="1189.90" y="293.5" ></text>
</g>
<g >
<title>tick_sched_handle (127,637,540 samples, 0.04%)</title><rect x="797.9" y="283" width="0.5" height="15.0" fill="rgb(219,68,16)" rx="2" ry="2" />
<text  x="800.92" y="293.5" ></text>
</g>
<g >
<title>try_to_wake_up (40,228,813 samples, 0.01%)</title><rect x="1178.3" y="155" width="0.1" height="15.0" fill="rgb(220,70,16)" rx="2" ry="2" />
<text  x="1181.27" y="165.5" ></text>
</g>
<g >
<title>snd_usb_queue_pending_output_urbs (42,242,712 samples, 0.01%)</title><rect x="1182.8" y="91" width="0.1" height="15.0" fill="rgb(211,30,7)" rx="2" ry="2" />
<text  x="1185.76" y="101.5" ></text>
</g>
<g >
<title>do_anonymous_page (75,108,628 samples, 0.02%)</title><rect x="797.1" y="299" width="0.3" height="15.0" fill="rgb(238,155,37)" rx="2" ry="2" />
<text  x="800.12" y="309.5" ></text>
</g>
<g >
<title>asm_common_interrupt (81,016,790 samples, 0.03%)</title><rect x="1178.3" y="379" width="0.3" height="15.0" fill="rgb(227,105,25)" rx="2" ry="2" />
<text  x="1181.27" y="389.5" ></text>
</g>
<g >
<title>__handle_mm_fault (146,875,029 samples, 0.05%)</title><rect x="797.1" y="315" width="0.6" height="15.0" fill="rgb(207,9,2)" rx="2" ry="2" />
<text  x="800.12" y="325.5" ></text>
</g>
<g >
<title>handle_mm_fault (146,875,029 samples, 0.05%)</title><rect x="797.1" y="331" width="0.6" height="15.0" fill="rgb(234,135,32)" rx="2" ry="2" />
<text  x="800.12" y="341.5" ></text>
</g>
<g >
<title>update_load_avg (42,741,203 samples, 0.01%)</title><rect x="154.8" y="283" width="0.2" height="15.0" fill="rgb(240,165,39)" rx="2" ry="2" />
<text  x="157.82" y="293.5" ></text>
</g>
<g >
<title>__handle_irq_event_percpu (81,016,790 samples, 0.03%)</title><rect x="1178.3" y="299" width="0.3" height="15.0" fill="rgb(236,147,35)" rx="2" ry="2" />
<text  x="1181.27" y="309.5" ></text>
</g>
<g >
<title>mod_find (39,236,280 samples, 0.01%)</title><rect x="796.8" y="59" width="0.2" height="15.0" fill="rgb(238,156,37)" rx="2" ry="2" />
<text  x="799.81" y="69.5" ></text>
</g>
<g >
<title>__irq_exit_rcu (122,921,097 samples, 0.04%)</title><rect x="796.7" y="347" width="0.4" height="15.0" fill="rgb(227,101,24)" rx="2" ry="2" />
<text  x="799.65" y="357.5" ></text>
</g>
<g >
<title>do_fault (1,736,857,285 samples, 0.55%)</title><rect x="1180.5" y="299" width="6.6" height="15.0" fill="rgb(248,200,47)" rx="2" ry="2" />
<text  x="1183.52" y="309.5" ></text>
</g>
<g >
<title>asm_common_interrupt (42,242,712 samples, 0.01%)</title><rect x="1182.8" y="219" width="0.1" height="15.0" fill="rgb(227,105,25)" rx="2" ry="2" />
<text  x="1185.76" y="229.5" ></text>
</g>
<g >
<title>ttwu_do_activate (40,228,813 samples, 0.01%)</title><rect x="1178.3" y="139" width="0.1" height="15.0" fill="rgb(215,48,11)" rx="2" ry="2" />
<text  x="1181.27" y="149.5" ></text>
</g>
<g >
<title>__pte_offset_map_lock (75,108,628 samples, 0.02%)</title><rect x="797.1" y="283" width="0.3" height="15.0" fill="rgb(240,163,39)" rx="2" ry="2" />
<text  x="800.12" y="293.5" ></text>
</g>
<g >
<title>__lruvec_stat_mod_folio (420,009,839 samples, 0.13%)</title><rect x="1184.4" y="235" width="1.6" height="15.0" fill="rgb(246,191,45)" rx="2" ry="2" />
<text  x="1187.44" y="245.5" ></text>
</g>
</g>
</svg>
