<?xml version="1.0" standalone="no"?>
<!DOCTYPE svg PUBLIC "-//W3C//DTD SVG 20010904//EN"
 "http://www.w3.org/TR/2001/REC-SVG-20010904/DTD/svg10.dtd">
<svg version="1.0" xmlns="http://www.w3.org/2000/svg"
 width="1133.000000pt" height="1336.000000pt" viewBox="0 0 1133.000000 1336.000000"
 preserveAspectRatio="xMidYMid meet">
<metadata>
Created by potrace 1.16, written by Peter Selinger 2001-2019
</metadata>
<g transform="translate(0.000000,1336.000000) scale(0.100000,-0.100000)"
fill="#000000" stroke="none">
<path d="M0 6680 l0 -6680 5665 0 5665 0 0 6680 0 6680 -5665 0 -5665 0 0
-6680z m5426 2832 c1 -7 0 -8 -3 -2 -7 16 -43 12 -43 -5 0 -8 6 -15 13 -15 7
0 22 -6 32 -14 16 -12 17 -16 6 -30 -17 -20 -45 -21 -61 -1 -9 10 -9 15 -1 15
6 0 11 -4 11 -10 0 -13 37 -13 45 1 4 5 -7 15 -24 22 -29 11 -40 35 -24 51 11
11 46 2 49 -12z m425 2 c11 -14 10 -18 -6 -30 -10 -8 -24 -14 -31 -14 -7 0
-15 -10 -17 -22 -2 -13 -5 1 -6 30 -1 48 1 52 23 52 13 0 30 -7 37 -16z m153
-6 c-1 -13 -3 -36 -4 -53 -3 -30 -3 -30 -9 5 -7 38 -3 70 8 70 4 0 7 -10 5
-22z m-496 -30 c3 -14 -3 -18 -23 -18 -16 0 -24 -4 -20 -10 4 -6 16 -8 28 -4
17 5 19 3 11 -6 -27 -28 -65 7 -50 46 8 21 50 14 54 -8z m77 -5 l7 -28 14 30
c11 25 13 25 8 5 -13 -51 -22 -57 -36 -22 -15 38 -38 43 -38 7 0 -14 -4 -25
-10 -25 -5 0 -10 14 -10 30 0 26 3 30 29 30 23 0 30 -5 36 -27z m103 5 c3 -14
-3 -18 -23 -18 -16 0 -24 -4 -20 -10 4 -6 16 -8 28 -4 17 5 19 4 10 -6 -24
-25 -62 11 -49 46 8 21 50 14 54 -8z m45 14 c-6 -4 -13 -21 -16 -37 -4 -27 -4
-27 -6 8 -1 29 3 37 17 37 11 0 13 -3 5 -8z m195 -14 c3 -14 -3 -18 -23 -18
-16 0 -24 -4 -20 -10 4 -6 16 -8 28 -4 17 5 19 3 11 -6 -27 -28 -65 7 -50 46
8 21 50 14 54 -8z m34 10 c-5 -7 -12 -24 -15 -38 -3 -18 -5 -15 -6 13 -1 28 3
37 15 37 12 0 14 -3 6 -12z m113 -23 c0 -23 -5 -31 -22 -33 -17 -3 -24 3 -29
22 -8 32 3 48 29 44 17 -2 22 -10 22 -33z m49 27 c-7 -4 -14 -18 -17 -32 -4
-21 -4 -20 -6 8 -1 24 3 32 17 32 11 0 13 -3 6 -8z m104 -29 c-1 -37 -1 -37
-5 -5 -3 19 -10 32 -19 32 -9 0 -15 -12 -16 -32 l-1 -33 -4 33 c-3 18 -10 32
-18 32 -8 0 -15 -14 -18 -32 -4 -32 -4 -32 -5 5 l-2 37 45 0 45 0 -2 -37z m74
3 c3 -30 1 -33 -23 -34 -37 -1 -46 26 -14 38 30 11 34 25 5 17 -11 -3 -20 -1
-20 4 0 5 11 9 24 9 20 0 25 -6 28 -34z m75 -1 c2 -28 1 -28 -5 -5 -11 34 -35
31 -43 -5 -6 -29 -7 -28 -8 8 -1 36 1 38 27 35 22 -2 27 -8 29 -33z m68 25 c4
-7 -3 -8 -20 -4 -24 6 -26 4 -23 -17 2 -16 9 -24 21 -23 9 1 17 -3 17 -8 0 -5
-10 -8 -22 -6 -38 5 -37 68 1 68 11 0 23 -5 26 -10z m73 -12 c3 -14 -3 -18
-23 -18 -16 0 -24 -4 -20 -11 4 -6 13 -8 21 -5 8 3 14 1 14 -5 0 -6 -10 -9
-22 -7 -23 3 -34 28 -24 54 8 21 50 14 54 -8z m-5443 -228 c3 -5 0 -7 -8 -4
-8 3 -18 1 -22 -5 -3 -7 2 -11 14 -11 22 0 30 -33 11 -45 -14 -9 -40 13 -40
34 0 30 32 52 45 31z m-527 -87 c-1 -37 -2 -40 -5 -15 -2 17 -9 32 -15 32 -6
0 -6 6 2 15 19 22 20 19 18 -32z m126 39 c3 -5 -4 -8 -16 -8 -12 1 -23 -5 -26
-12 -2 -7 2 -13 9 -11 31 4 40 -2 37 -23 -2 -17 -10 -23 -28 -23 -27 0 -36 20
-26 61 6 23 39 34 50 16z m125 -39 c-2 -35 -3 -40 -6 -18 -3 16 -10 33 -16 37
-9 6 -8 11 3 18 8 5 16 10 18 10 1 0 1 -21 1 -47z m89 6 c4 -45 -18 -68 -42
-44 -29 30 -17 88 18 83 16 -2 22 -11 24 -39z m-149 5 c-10 -12 -10 -20 -1
-35 7 -10 8 -19 3 -19 -5 0 -12 6 -14 13 -4 9 -8 9 -15 -1 -7 -10 -9 -5 -8 16
1 18 6 28 12 25 7 -2 15 0 19 6 3 6 9 11 12 11 3 0 0 -7 -8 -16z m10306 -2474
l0 -2465 -4927 -3 -4928 -2 0 2470 0 2470 4928 -2 4927 -3 0 -2465z m-9965
1888 c0 -23 -36 -24 -44 -2 -4 9 -4 25 -1 35 6 17 7 17 26 1 10 -9 19 -24 19
-34z m-409 -72 c-3 -16 -5 -16 -13 -2 -5 9 -16 16 -23 16 -20 0 -19 6 8 43
l22 32 5 -35 c3 -19 4 -43 1 -54z m127 32 c-1 -44 -2 -46 -5 -15 -2 20 -9 37
-15 37 -7 0 -6 6 2 15 19 23 20 20 18 -37z m87 2 c0 -35 -4 -45 -17 -48 -27
-5 -45 41 -29 74 19 43 46 28 46 -26z m-337 -7 c-1 -44 -2 -45 -5 -10 -2 20
-10 37 -16 37 -7 0 -6 4 3 10 8 5 16 10 18 10 1 0 1 -21 0 -47z m184 14 c3 4
3 2 1 -5 -1 -7 2 -23 9 -35 10 -20 10 -21 -5 -8 -14 11 -20 11 -34 0 -16 -13
-17 -12 -5 3 9 11 11 26 6 40 -6 20 -5 21 9 10 8 -7 17 -9 19 -5z m343 -537
c3 -5 0 -7 -8 -4 -8 3 -18 1 -22 -5 -3 -7 2 -11 14 -11 23 0 30 -33 10 -46
-19 -11 -42 22 -35 50 6 26 29 35 41 16z m-527 -87 c-1 -44 -2 -45 -5 -10 -2
20 -10 37 -16 37 -7 0 -6 4 3 10 8 5 16 10 18 10 1 0 1 -21 0 -47z m129 30 c4
-11 -3 -24 -22 -39 l-28 -22 29 -5 29 -4 -32 -2 c-39 -1 -42 11 -8 37 14 11
25 25 25 31 0 15 -23 14 -38 -1 -7 -7 -12 -8 -12 -2 0 28 47 34 57 7z m122
-30 c-2 -35 -3 -40 -6 -18 -3 17 -9 35 -14 42 -9 10 -4 15 19 22 1 1 1 -20 1
-46z m86 2 c0 -33 -4 -41 -22 -43 -25 -4 -38 26 -29 64 5 19 12 25 29 22 18
-3 22 -9 22 -43z m-172 13 c3 -10 8 -9 22 2 17 14 17 14 5 -7 -11 -18 -12 -24
-1 -37 8 -9 9 -16 3 -16 -6 0 -13 6 -16 13 -5 10 -7 10 -12 0 -3 -7 -10 -13
-16 -13 -6 0 -5 7 3 16 10 12 10 20 1 35 -7 10 -8 19 -3 19 5 0 11 -6 14 -12z
m361 -536 c2 -4 -4 -8 -14 -8 -10 0 -16 4 -14 8 3 4 9 8 14 8 5 0 11 -4 14 -8z
m4 -45 c4 -22 -27 -35 -39 -16 -5 8 -9 20 -9 27 0 20 44 10 48 -11z m-390 -44
c-1 -37 -2 -40 -5 -15 -2 17 -9 32 -14 32 -8 0 10 28 19 30 1 0 1 -21 0 -47z
m140 -5 c-1 -44 -2 -46 -5 -15 -2 20 -9 37 -15 37 -7 0 -6 6 2 15 19 23 20 20
18 -37z m92 27 c12 -31 -3 -75 -25 -75 -9 0 -20 11 -25 25 -12 31 3 75 25 75
9 0 20 -11 25 -25z m-160 -16 c0 6 5 11 11 11 8 0 8 -5 -1 -15 -10 -12 -10
-18 0 -30 7 -9 10 -18 7 -22 -4 -3 -9 2 -13 11 -4 11 -10 13 -18 7 -8 -7 -11
-1 -11 19 0 22 3 26 13 18 8 -7 12 -7 12 1z m-535 -209 c9 -28 -2 -40 -36 -40
-27 0 -33 8 -30 37 1 6 -6 14 -16 16 -10 3 3 5 29 6 38 1 48 -3 53 -19z m-29
-69 c-39 -8 -35 -24 6 -32 l33 -6 -36 -2 c-25 -1 -39 4 -43 15 -9 24 2 34 37
33 l32 -1 -29 -7z m15 -61 c24 -14 24 -36 0 -50 -38 -20 -74 16 -45 45 18 18
20 18 45 5z m-40 -83 c-13 -16 -5 -27 20 -27 24 0 35 20 18 32 -12 8 -11 9 1
5 8 -2 15 -12 15 -23 0 -22 -53 -33 -65 -13 -10 15 -2 39 12 39 7 0 6 -5 -1
-13z m3 -71 c-18 -14 -18 -15 -1 -21 26 -11 50 2 42 23 -5 13 -3 14 6 5 19
-19 3 -43 -30 -43 -35 0 -50 28 -25 47 10 7 20 11 23 8 2 -3 -4 -12 -15 -19z
m-26 -76 c-10 -15 -10 -22 0 -32 9 -9 14 -5 23 20 11 32 41 44 54 21 11 -17
-4 -59 -22 -59 -15 0 -15 2 2 14 12 8 16 19 12 30 -9 24 -30 15 -37 -15 -7
-29 -43 -33 -48 -6 -5 23 4 47 18 47 6 0 6 -7 -2 -20z m429 -57 c3 -46 -6 -58
-37 -48 -35 11 -17 100 18 93 12 -2 18 -15 19 -45z m73 22 c12 -31 -3 -75 -25
-75 -22 0 -37 44 -25 75 5 14 16 25 25 25 9 0 20 -11 25 -25z m68 13 c17 -17
15 -63 -3 -78 -30 -25 -57 26 -39 74 7 19 25 21 42 4z m77 -38 c0 -35 -4 -45
-17 -48 -27 -5 -45 41 -29 74 19 43 46 28 46 -26z m73 38 c29 -29 3 -98 -33
-84 -15 5 -22 76 -8 89 10 11 28 8 41 -5z m80 -36 c2 -31 -1 -44 -13 -48 -36
-14 -63 54 -33 84 24 24 43 9 46 -36z m-743 -65 c13 -3 9 -5 -12 -6 -24 -1
-33 3 -33 15 0 12 3 14 13 6 6 -5 21 -12 32 -15z m-15 -28 c0 -5 -4 -8 -9 -5
-5 3 -12 -1 -15 -9 -7 -18 16 -30 40 -21 10 4 14 12 9 24 -5 13 -3 14 6 5 17
-17 3 -43 -24 -43 -34 0 -54 25 -37 45 14 17 30 20 30 4z m30 -74 c6 -8 9 -18
6 -24 -4 -5 2 -12 11 -14 10 -3 -3 -5 -29 -6 -49 -1 -62 11 -46 42 11 21 41
22 58 2z m8 -123 c2 -12 -1 -22 -7 -22 -6 0 -8 6 -5 14 3 8 1 17 -5 20 -5 4
-12 -3 -16 -14 -7 -22 -30 -27 -41 -9 -3 6 -1 16 6 22 10 9 11 9 6 0 -3 -6 -1
-15 5 -18 6 -4 13 2 16 14 7 28 37 23 41 -7z m-4 -54 c-3 -5 -23 -8 -45 -8
-22 0 -38 3 -35 8 2 4 22 7 44 7 22 0 38 -3 36 -7z m6 -54 c0 -7 -5 -16 -11
-20 -8 -4 -9 0 -4 15 8 27 -2 27 -24 0 -15 -19 -18 -20 -30 -5 -12 14 -12 19
-1 29 10 10 12 9 7 -5 -10 -28 9 -30 22 -2 9 22 14 24 26 14 8 -7 15 -18 15
-26z m-40 -45 c0 -5 -4 -7 -10 -4 -5 3 -10 -3 -10 -14 0 -14 6 -21 19 -21 26
0 36 17 21 35 -7 9 -8 15 -2 15 13 0 23 -26 16 -45 -4 -8 -16 -15 -29 -15 -32
0 -51 25 -35 45 14 17 30 20 30 4z m35 -79 c9 -29 -2 -40 -38 -39 l-32 1 29 7
c41 9 43 28 4 40 l-33 9 32 1 c23 1 33 -4 38 -19z m349 -58 c3 -5 -4 -8 -16
-8 -12 1 -23 -4 -25 -10 -2 -6 7 -10 19 -10 32 1 33 -48 1 -52 -25 -4 -38 26
-29 64 6 23 39 34 50 16z m80 -17 c8 -30 -8 -65 -30 -65 -18 0 -35 41 -27 69
8 31 49 28 57 -4z m74 2 c2 -10 1 -30 -2 -43 -10 -37 -50 -29 -54 9 -2 16 -1
35 2 44 8 20 50 12 54 -10z m67 -22 c0 -33 -4 -41 -21 -43 -16 -2 -23 4 -28
23 -10 40 2 67 27 63 18 -2 22 -10 22 -43z m81 21 c9 -38 -4 -68 -29 -64 -23
3 -35 43 -23 74 9 24 45 17 52 -10z m69 -21 c0 -33 -4 -41 -22 -43 -25 -4 -38
26 -29 64 5 19 12 25 29 22 18 -3 22 -9 22 -43z m-700 27 c-5 -4 -15 -16 -21
-27 -15 -26 -45 -31 -60 -10 -22 29 -6 45 45 45 25 0 42 -4 36 -8z m-71 -76
c-18 -14 -18 -15 6 -24 31 -12 48 1 30 23 -9 11 -9 15 -1 15 18 0 25 -29 11
-45 -17 -20 -47 -19 -58 3 -12 22 -5 42 16 42 13 0 12 -3 -4 -14z m56 -63 c0
-2 -11 -8 -25 -13 -30 -11 -33 -40 -5 -40 11 0 20 -4 20 -10 0 -5 -20 -10 -45
-10 -44 0 -45 0 -45 33 0 19 2 36 4 38 5 5 96 7 96 2z m341 -547 c-3 -16 -5
-16 -13 -2 -5 9 -16 16 -23 16 -20 0 -19 6 8 43 l22 32 5 -35 c3 -19 4 -43 1
-54z m79 59 c12 -31 -3 -75 -25 -75 -22 0 -37 44 -25 75 5 14 16 25 25 25 9 0
20 -11 25 -25z m68 13 c24 -24 11 -88 -18 -88 -19 0 -30 19 -30 54 0 21 17 46
30 46 3 0 11 -5 18 -12z m70 3 c20 -12 12 -85 -10 -89 -26 -5 -45 41 -30 73
12 27 19 30 40 16z m87 -25 c11 -33 -3 -61 -31 -61 -14 0 -20 8 -22 33 -4 35
13 65 32 59 6 -2 15 -16 21 -31z m63 22 c17 -17 15 -77 -3 -84 -22 -9 -45 14
-45 45 0 25 15 51 30 51 3 0 11 -5 18 -12z m-361 -625 c4 -11 -3 -24 -22 -39
l-28 -22 29 -5 29 -4 -32 -2 c-39 -1 -42 12 -8 35 27 17 34 44 12 44 -7 0 -18
-5 -25 -12 -7 -7 -12 -8 -12 -2 0 28 47 34 57 7z m73 -3 c16 -30 2 -70 -25
-70 -17 0 -24 7 -28 27 -10 53 30 85 53 43z m76 -4 c10 -41 1 -61 -26 -61 -20
0 -26 6 -28 28 -5 40 4 57 27 57 13 0 23 -9 27 -24z m69 -21 c0 -33 -4 -41
-22 -43 -25 -4 -38 26 -29 64 5 19 12 25 29 22 18 -3 22 -9 22 -43z m81 21 c9
-38 -4 -68 -29 -64 -23 3 -35 43 -23 74 9 24 45 17 52 -10z m69 -21 c0 -33 -4
-41 -22 -43 -25 -4 -38 26 -29 64 5 19 12 25 29 22 18 -3 22 -9 22 -43z m113
-613 c2 -31 -1 -44 -13 -48 -36 -14 -63 54 -33 84 24 24 43 9 46 -36z m160
-219 c-1 -44 -2 -45 -5 -10 -2 20 -10 37 -16 37 -7 0 -6 4 3 10 8 5 16 10 18
10 1 0 1 -21 0 -47z m1964 12 c2 -19 0 -41 -4 -48 -6 -9 -8 -9 -8 1 0 6 -9 12
-20 12 -24 0 -25 4 -3 41 23 38 30 37 35 -6z m1916 -12 c-1 -44 -2 -45 -5 -10
-2 20 -10 37 -16 37 -7 0 -6 4 3 10 8 5 16 10 18 10 1 0 1 -21 0 -47z m92 38
c0 -5 -9 -7 -20 -4 -11 3 -20 0 -20 -6 0 -6 6 -11 14 -11 20 0 37 -25 30 -44
-11 -28 -48 -16 -52 17 -2 16 -1 35 2 43 6 15 46 20 46 5z m1890 0 c0 -5 -9
-7 -20 -4 -11 3 -20 0 -20 -6 0 -6 6 -11 14 -11 20 0 37 -25 30 -44 -9 -23
-45 -16 -54 9 -11 29 6 65 30 65 11 0 20 -4 20 -9z m72 -26 c2 -19 0 -41 -4
-48 -6 -9 -8 -9 -8 1 0 6 -9 12 -20 12 -25 0 -25 14 -2 45 23 33 29 31 34 -10z
m1848 15 c0 -11 -9 -25 -20 -32 -26 -17 -25 -26 3 -31 16 -3 13 -5 -10 -6 -39
-1 -42 11 -8 37 14 11 25 25 25 31 0 15 -23 14 -38 -1 -7 -7 -12 -8 -12 -2 0
17 11 24 37 24 16 0 23 -6 23 -20z m53 13 c-28 -5 -31 -23 -4 -23 21 0 33 -22
25 -45 -6 -15 -54 -21 -54 -7 0 5 10 8 23 8 13 -1 22 5 22 14 0 9 -9 15 -22
14 -18 0 -23 5 -23 23 0 19 5 23 28 22 23 -2 24 -2 5 -6z m91 -1 c3 -5 -4 -8
-16 -8 -12 1 -23 -4 -25 -10 -2 -6 7 -10 19 -10 18 1 23 -4 23 -24 0 -20 -5
-25 -25 -25 -20 0 -26 6 -28 28 -2 16 -1 35 2 43 6 15 42 19 50 6z m1764 -39
c-1 -44 -2 -45 -5 -10 -2 20 -10 37 -16 37 -7 0 -6 4 3 10 8 5 16 10 18 10 1
0 1 -21 0 -47z m97 28 c3 -11 3 -31 -1 -46 -9 -37 -48 -31 -52 8 -2 16 -1 35
2 43 8 21 44 17 51 -5z m72 2 c4 -11 -3 -24 -22 -39 l-28 -22 29 -5 29 -4 -32
-2 c-40 -1 -41 5 -6 41 29 30 24 50 -7 30 -11 -7 -20 -8 -20 -4 0 26 47 30 57
5z m73 -38 c4 -5 2 -16 -6 -23 -8 -7 -14 -8 -14 -2 0 5 -9 10 -20 10 -25 0
-25 5 3 43 l22 32 3 -25 c2 -14 8 -29 12 -35z m-5870 -270 c15 -18 -1 -20 -18
-3 -19 19 -46 -14 -38 -46 7 -28 33 -34 55 -13 11 10 13 9 9 -3 -6 -19 -45
-25 -64 -10 -17 15 -19 61 -2 78 16 16 43 15 58 -3z m680 0 c15 -18 -1 -20
-18 -3 -16 16 -42 -7 -42 -39 0 -28 25 -41 51 -25 15 10 17 9 13 -3 -8 -20
-60 -19 -68 1 -23 60 27 114 64 69z m-127 -44 c1 -23 -1 -41 -4 -41 -8 0 -16
63 -11 80 7 20 14 3 15 -39z m520 0 c1 -23 -1 -41 -4 -41 -8 0 -16 63 -11 80
7 20 14 3 15 -39z m-998 -6 c0 -21 -5 -31 -19 -33 -26 -5 -40 12 -32 43 5 20
12 26 29 23 17 -2 22 -10 22 -33z m73 -2 c-1 -37 -1 -37 -5 -5 -3 18 -10 32
-18 32 -8 0 -15 -14 -18 -32 -4 -32 -4 -32 -5 5 -2 33 0 37 23 37 23 0 25 -4
23 -37z m66 28 c4 -5 -3 -7 -14 -4 -16 4 -20 0 -20 -22 0 -22 4 -26 20 -22 11
3 20 1 20 -4 0 -18 -48 -9 -53 10 -9 35 30 70 47 42z m51 -51 c8 0 15 14 18
33 4 31 4 31 5 -5 2 -34 0 -38 -23 -38 -23 0 -25 4 -23 38 1 36 1 36 5 5 3
-19 10 -33 18 -33z m67 48 c-5 -7 -12 -24 -15 -38 -3 -18 -5 -15 -6 13 -1 28
3 37 15 37 12 0 14 -3 6 -12z m45 -1 c-9 -7 -18 -23 -20 -37 -3 -19 -5 -17 -6
10 -1 30 3 36 20 37 19 2 19 0 6 -10z m71 -10 c3 -13 -3 -17 -23 -17 -16 0
-24 -4 -19 -11 3 -6 15 -9 25 -6 11 3 17 1 13 -4 -3 -5 -14 -9 -24 -9 -23 0
-36 36 -19 56 16 19 43 14 47 -9z m70 -14 c-1 -37 -1 -37 -5 -5 -3 18 -10 32
-18 32 -8 0 -15 -14 -18 -32 -4 -32 -4 -32 -5 5 -2 33 0 37 23 37 23 0 25 -4
23 -37z m237 2 c0 -21 -5 -31 -19 -33 -26 -5 -40 12 -32 43 5 20 12 26 29 23
17 -2 22 -10 22 -33z m73 -2 c-1 -37 -1 -37 -5 -5 -3 18 -10 32 -18 32 -8 0
-15 -14 -18 -32 -4 -32 -4 -32 -5 5 -2 33 0 37 23 37 23 0 25 -4 23 -37z m70
0 c-1 -37 -1 -37 -5 -5 -3 18 -10 32 -18 32 -8 0 -15 -14 -18 -32 -4 -32 -4
-32 -5 5 -2 33 0 37 23 37 23 0 25 -4 23 -37z m72 33 c0 -2 3 -11 6 -20 5 -12
0 -16 -20 -16 -14 0 -26 -5 -26 -11 0 -6 9 -9 20 -6 11 3 20 1 20 -5 0 -5 -10
-8 -22 -6 -39 5 -37 68 2 68 11 0 20 -2 20 -4z m70 -5 c0 -5 -9 -7 -20 -4 -16
4 -20 0 -20 -22 0 -22 4 -26 20 -22 11 3 20 1 20 -5 0 -5 -10 -8 -22 -6 -39 5
-37 68 2 68 11 0 20 -4 20 -9z m67 -43 c-2 -13 -4 -5 -4 17 -1 22 1 32 4 23 2
-10 2 -28 0 -40z m68 17 c0 -21 -5 -31 -19 -33 -26 -5 -40 12 -32 43 5 20 12
26 29 23 17 -2 22 -10 22 -33z m73 -2 c-1 -37 -1 -37 -5 -5 -3 18 -10 32 -18
32 -8 0 -15 -14 -18 -32 -4 -32 -4 -32 -5 5 -2 33 0 37 23 37 23 0 25 -4 23
-37z m68 26 c4 -8 0 -9 -15 -4 -11 3 -21 2 -21 -3 0 -5 9 -12 20 -15 29 -8 26
-37 -5 -37 -14 0 -25 4 -25 9 0 5 10 7 23 5 l22 -5 -22 17 c-13 9 -23 23 -23
30 0 17 36 19 46 3z"/>
<path d="M5800 9499 c0 -25 33 -22 38 4 2 12 -3 17 -17 17 -15 0 -21 -6 -21
-21z"/>
<path d="M5460 9480 c0 -5 9 -10 20 -10 11 0 20 5 20 10 0 6 -9 10 -20 10 -11
0 -20 -4 -20 -10z"/>
<path d="M5650 9480 c0 -5 7 -10 15 -10 8 0 15 5 15 10 0 6 -7 10 -15 10 -8 0
-15 -4 -15 -10z"/>
<path d="M5880 9480 c0 -5 9 -10 21 -10 11 0 17 5 14 10 -3 6 -13 10 -21 10
-8 0 -14 -4 -14 -10z"/>
<path d="M6033 9474 c-7 -18 11 -39 26 -30 17 11 13 46 -4 46 -9 0 -18 -7 -22
-16z"/>
<path d="M6270 9460 c-8 -5 -11 -12 -7 -16 4 -4 13 -2 19 4 15 15 7 24 -12 12z"/>
<path d="M6470 9480 c0 -5 7 -10 15 -10 8 0 15 5 15 10 0 6 -7 10 -15 10 -8 0
-15 -4 -15 -10z"/>
<path d="M1047 9214 c-8 -8 1 -24 14 -24 5 0 9 7 9 15 0 15 -12 20 -23 9z"/>
<path d="M641 9156 c-12 -14 -5 -26 16 -26 15 0 18 26 4 34 -5 3 -14 0 -20 -8z"/>
<path d="M846 9182 c-8 -25 2 -52 21 -52 10 0 13 9 11 32 -3 36 -23 48 -32 20z"/>
<path d="M1200 8850 l0 -300 43 -1 42 -2 -40 -6 -40 -6 -3 -297 -2 -298 40 0
c22 0 40 -4 40 -10 0 -5 -18 -10 -40 -10 l-40 0 0 -299 0 -300 43 -4 42 -4
-42 -1 -43 -2 0 -300 0 -300 40 0 c22 0 40 -4 40 -10 0 -5 -18 -10 -40 -10
l-40 0 2 -297 3 -298 40 -6 40 -6 -42 -2 -43 -1 0 -300 0 -300 40 0 c22 0 40
-4 40 -10 0 -5 -18 -10 -40 -10 l-40 0 2 -297 3 -298 40 -6 40 -6 -42 -2 -43
-1 0 -60 c0 -60 11 -75 36 -50 6 6 24 12 41 13 17 1 29 4 27 6 -2 3 58 31 133
63 76 33 207 92 291 133 85 40 161 71 169 68 22 -9 -7 -24 -31 -17 -10 4 -16
2 -13 -3 3 -5 -65 -40 -151 -78 -162 -70 -353 -162 -362 -174 -3 -4 -34 -18
-70 -32 l-65 -25 -3 -222 -2 -222 984 0 985 0 4 43 4 42 1 -42 2 -43 974 0
975 0 4 43 4 42 1 -42 2 -43 975 0 975 0 0 41 c0 24 4 38 10 34 6 -3 10 -22
10 -41 l0 -34 979 0 980 0 4 43 4 42 1 -42 2 -43 975 0 975 0 0 225 0 225
-197 3 -198 2 198 3 197 2 0 69 0 70 -42 4 -43 4 43 1 42 2 0 300 0 300 -34 0
c-19 0 -38 5 -41 10 -4 6 10 10 34 10 l41 0 0 299 0 300 -42 4 -43 4 43 1 42
2 0 300 0 300 -35 0 c-19 0 -35 5 -35 10 0 6 16 10 35 10 l35 0 0 299 0 300
-42 4 -43 4 43 1 42 2 0 300 0 300 -41 0 c-24 0 -38 4 -34 10 3 6 22 10 41 10
l34 0 0 300 c0 165 -1 301 -2 302 -2 1 -228 4 -503 8 l-500 6 503 2 502 2 0
295 0 295 -974 0 -975 0 -4 -42 -4 -43 -1 43 -2 42 -980 0 -980 0 0 -34 c0
-19 -4 -38 -10 -41 -6 -4 -10 10 -10 34 l0 41 -974 0 -975 0 -4 -42 -4 -43 -1
43 -2 42 -974 0 -975 0 -4 -42 -4 -43 -1 43 -2 42 -985 0 -985 0 0 -300z m988
150 c4 -12 2 -13 -9 -2 -17 16 -52 16 -47 0 3 -7 15 -15 29 -18 29 -7 38 -44
13 -54 -24 -9 -54 3 -54 22 0 13 2 13 14 -3 8 -12 19 -16 30 -12 22 9 16 31
-10 35 -27 5 -38 18 -30 37 7 20 57 17 64 -5z m199 -47 c-2 -16 -4 -5 -4 22 0
28 2 40 4 28 2 -13 2 -35 0 -50z m193 58 c0 -4 -11 -6 -25 -3 -36 6 -32 -17 5
-29 33 -12 38 -30 15 -49 -16 -13 -55 -5 -55 12 0 7 5 7 14 -1 14 -12 46 -5
46 9 0 4 -13 13 -30 19 -28 9 -38 29 -23 44 9 10 53 8 53 -2z m183 -33 c11 17
28 15 21 -3 -4 -8 -1 -22 6 -30 7 -9 8 -15 2 -15 -5 0 -13 8 -17 18 -6 16 -7
16 -21 -2 -13 -18 -14 -16 -13 30 1 41 2 44 8 19 4 -20 9 -26 14 -17z m141
-18 c1 -22 -2 -40 -5 -40 -8 0 -18 72 -12 83 9 15 16 -2 17 -43z m-687 -12
c-2 -13 -4 -5 -4 17 -1 22 1 32 4 23 2 -10 2 -28 0 -40z m70 11 c1 -33 1 -33
-5 -5 -4 17 -11 30 -17 30 -5 0 -13 -13 -16 -30 l-7 -29 -1 32 c-1 30 12 44
34 39 6 -1 11 -18 12 -37z m83 1 c0 -43 -10 -60 -34 -60 -20 0 -23 6 -24 42
-2 45 9 59 39 51 13 -4 19 -14 19 -33z m88 28 c19 -19 14 -28 -14 -28 -16 0
-24 -5 -21 -12 2 -7 12 -12 22 -11 11 1 14 -2 8 -8 -5 -5 -17 -7 -26 -3 -20 7
-23 60 -4 67 19 8 22 8 35 -5z m186 6 c21 -8 21 -60 0 -68 -34 -13 -59 35 -32
62 14 14 12 14 32 6z m70 0 c9 -3 16 -11 16 -16 0 -7 -5 -6 -14 1 -17 14 -39
-9 -30 -33 7 -19 16 -20 32 -4 9 9 12 9 12 0 0 -19 -28 -26 -45 -12 -18 15
-19 42 -3 58 14 14 12 14 32 6z m144 -6 c19 -19 14 -28 -13 -28 -26 0 -33 -14
-15 -25 6 -4 19 -1 28 6 16 12 16 12 1 -4 -20 -23 -49 -12 -49 17 0 21 17 46
30 46 3 0 11 -5 18 -12z m-100 -198 c4 -12 2 -13 -9 -2 -18 17 -39 15 -39 -3
0 -8 6 -15 13 -15 7 0 22 -6 32 -14 16 -12 17 -16 6 -30 -18 -21 -45 -20 -62
2 -11 14 -11 15 1 5 19 -17 50 -16 50 1 0 8 -10 18 -22 22 -30 9 -40 25 -26
42 14 17 50 12 56 -8z m99 -57 c-2 -16 -4 -3 -4 27 0 30 2 43 4 28 2 -16 2
-40 0 -55z m184 60 c5 -50 2 -82 -6 -80 -14 5 -19 87 -6 87 6 0 11 -3 12 -7z
m-203 -35 c3 -14 -3 -18 -23 -18 -16 0 -24 -4 -20 -10 4 -6 16 -8 28 -4 17 5
19 3 11 -6 -27 -28 -65 7 -50 46 8 21 50 14 54 -8z m100 0 c3 -14 -3 -18 -23
-18 -16 0 -24 -4 -20 -10 4 -6 16 -8 28 -4 17 5 19 3 11 -6 -27 -28 -65 7 -50
46 8 21 50 14 54 -8z m67 12 c4 -6 -4 -9 -17 -7 -17 1 -23 -3 -23 -18 0 -15 6
-19 25 -17 18 2 22 0 13 -9 -27 -27 -64 8 -49 47 6 16 42 19 51 4z m593 -17
c-65 -2 -171 -2 -235 0 -65 1 -12 3 117 3 129 0 182 -2 118 -3z m5487 -42
c-16 -4 -40 -13 -52 -20 -13 -6 -23 -9 -23 -7 0 11 56 35 80 35 23 -1 22 -2
-5 -8z m78 -8 c-7 -2 -21 -2 -30 0 -10 3 -4 5 12 5 17 0 24 -2 18 -5z m60 -10
c-7 -2 -21 -2 -30 0 -10 3 -4 5 12 5 17 0 24 -2 18 -5z m60 -10 c-7 -2 -21 -2
-30 0 -10 3 -4 5 12 5 17 0 24 -2 18 -5z m-283 -8 c0 -3 -31 -21 -70 -40 -38
-19 -70 -33 -70 -30 0 4 126 72 138 75 1 0 2 -2 2 -5z m343 -2 c-7 -2 -19 -2
-25 0 -7 3 -2 5 12 5 14 0 19 -2 13 -5z m60 -10 c-7 -2 -19 -2 -25 0 -7 3 -2
5 12 5 14 0 19 -2 13 -5z m60 -10 c-7 -2 -19 -2 -25 0 -7 3 -2 5 12 5 14 0 19
-2 13 -5z m60 -10 c-7 -2 -19 -2 -25 0 -7 3 -2 5 12 5 14 0 19 -2 13 -5z m60
-10 c-7 -2 -19 -2 -25 0 -7 3 -2 5 12 5 14 0 19 -2 13 -5z m70 -10 c-7 -2 -21
-2 -30 0 -10 3 -4 5 12 5 17 0 24 -2 18 -5z m60 -10 c-7 -2 -21 -2 -30 0 -10
3 -4 5 12 5 17 0 24 -2 18 -5z m60 -10 c-7 -2 -21 -2 -30 0 -10 3 -4 5 12 5
17 0 24 -2 18 -5z m-6819 -18 c20 -21 10 -45 -19 -45 -17 0 -25 -7 -28 -22 -2
-13 -5 1 -6 30 -1 45 2 52 18 52 11 0 26 -7 35 -15z m133 -62 c-2 -16 -4 -3
-4 27 0 30 2 43 4 28 2 -16 2 -40 0 -55z m5763 72 c0 -3 -36 -23 -80 -45 -44
-22 -80 -38 -80 -35 0 4 146 82 158 85 1 0 2 -2 2 -5z m983 -2 c-7 -2 -21 -2
-30 0 -10 3 -4 5 12 5 17 0 24 -2 18 -5z m-6776 -70 c-2 -16 -4 -5 -4 22 0 28
2 40 4 28 2 -13 2 -35 0 -50z m6836 60 c-7 -2 -21 -2 -30 0 -10 3 -4 5 12 5
17 0 24 -2 18 -5z m60 -10 c-7 -2 -21 -2 -30 0 -10 3 -4 5 12 5 17 0 24 -2 18
-5z m-6923 -18 c6 -8 10 -22 8 -32 -5 -25 -51 -25 -56 0 -8 42 23 63 48 32z
m6983 8 c-7 -2 -21 -2 -30 0 -10 3 -4 5 12 5 17 0 24 -2 18 -5z m-1338 -62
c-14 -12 -311 -166 -302 -155 8 8 298 163 307 164 2 0 0 -4 -5 -9z m-5628
-188 c-2 -16 -4 -5 -4 22 0 28 2 40 4 28 2 -13 2 -35 0 -50z m30 0 c-2 -16 -4
-5 -4 22 0 28 2 40 4 28 2 -13 2 -35 0 -50z m-197 18 c-1 -14 -2 -14 -11 2
-13 23 -29 13 -29 -19 0 -22 3 -24 23 -19 18 6 20 5 9 -6 -9 -10 -17 -11 -30
-3 -23 15 -26 38 -7 57 18 19 45 12 45 -12z m74 6 c13 -20 -3 -52 -25 -52 -8
0 -17 -7 -21 -15 -4 -8 -7 6 -7 32 -1 57 27 76 53 35z m64 11 c19 -19 14 -56
-8 -63 -26 -8 -40 1 -40 29 0 21 16 46 30 46 3 0 11 -5 18 -12z m5337 -17
c-14 -12 -311 -166 -302 -155 8 8 298 163 307 164 2 0 0 -4 -5 -9z m-320 -170
c-14 -12 -311 -166 -302 -155 8 8 298 163 307 164 2 0 0 -4 -5 -9z m-5418 -73
c-2 -13 -4 -5 -4 17 -1 22 1 32 4 23 2 -10 2 -28 0 -40z m78 17 c0 -25 -4 -30
-25 -30 -16 0 -26 6 -28 18 -6 30 6 49 30 45 18 -2 23 -9 23 -33z m80 -25 c8
0 15 14 18 33 4 31 4 31 5 -5 2 -34 0 -38 -23 -38 -23 0 -25 4 -23 38 1 36 1
36 5 5 3 -19 10 -33 18 -33z m67 48 c-5 -7 -12 -24 -15 -38 -3 -18 -5 -15 -6
13 -1 28 3 37 15 37 12 0 14 -3 6 -12z m25 -40 c-2 -13 -4 -5 -4 17 -1 22 1
32 4 23 2 -10 2 -28 0 -40z m79 17 c1 -30 1 -30 -3 -2 -6 38 -36 32 -44 -8 -6
-29 -7 -28 -8 8 -1 36 1 38 27 35 22 -2 27 -8 28 -33z m72 -12 c-2 -37 -7 -49
-22 -51 -10 -2 -23 2 -30 9 -8 9 -7 10 7 5 11 -3 24 -3 30 1 7 4 2 9 -13 13
-44 10 -39 70 5 70 25 0 26 -2 23 -47z m4697 -102 c-14 -12 -311 -166 -302
-155 8 8 298 163 307 164 2 0 0 -4 -5 -9z m-5660 -71 c10 -43 22 -45 35 -5 16
49 30 43 29 -12 -2 -46 -2 -46 -8 -13 l-6 35 -12 -32 c-7 -18 -16 -33 -22 -33
-5 0 -13 15 -17 33 l-8 32 -7 -35 c-6 -33 -6 -33 -8 13 -1 52 14 63 24 17z
m162 -37 c-2 -16 -4 -5 -4 22 0 28 2 40 4 28 2 -13 2 -35 0 -50z m181 60 c-13
-3 -18 -16 -20 -46 l-1 -42 -4 42 c-3 29 -9 43 -21 46 -9 3 1 5 23 5 22 0 32
-2 23 -5z m57 -18 c16 0 20 -7 22 -35 1 -33 1 -33 -5 -6 -10 41 -29 43 -41 4
-9 -32 -9 -31 -9 17 -1 28 2 43 6 35 4 -8 16 -15 27 -15z m285 -19 c0 -47 -20
-67 -46 -45 -30 24 -5 83 27 63 5 -3 9 2 9 10 0 9 2 16 5 16 3 0 5 -20 5 -44z
m150 0 c0 -33 -4 -45 -17 -48 -25 -7 -43 1 -43 18 0 9 -11 14 -30 14 -29 0
-38 -9 -23 -23 3 -4 12 -2 20 4 8 7 13 8 13 1 0 -18 -29 -22 -45 -6 -18 18
-18 20 -5 45 13 24 36 25 49 2 9 -17 11 -17 24 1 9 12 20 17 31 13 10 -4 16
-1 16 8 0 8 2 15 5 15 3 0 5 -20 5 -44z m-635 -16 c1 -21 -3 -37 -7 -34 -4 3
-8 24 -8 46 0 52 14 41 15 -12z m-90 -21 c6 0 13 15 16 33 l6 33 2 -36 c1 -25
-4 -39 -15 -43 -25 -10 -34 2 -33 42 l2 37 6 -33 c3 -18 11 -33 16 -33z m122
9 c-2 -13 -4 -5 -4 17 -1 22 1 32 4 23 2 -10 2 -28 0 -40z m235 40 c-7 -7 -12
-22 -12 -35 0 -13 -4 -23 -10 -23 -15 0 -12 57 3 63 22 10 31 7 19 -5z m66 0
c19 -19 14 -28 -13 -28 -24 0 -32 -10 -18 -23 3 -4 12 -2 20 4 9 8 13 8 13 1
0 -16 -16 -23 -34 -16 -16 6 -22 54 -9 67 10 11 28 8 41 -5z m66 0 c17 -56 16
-64 -12 -63 -33 0 -43 30 -13 40 12 3 21 11 21 16 0 6 -9 7 -21 4 -15 -5 -19
-4 -15 4 10 15 36 14 40 -1z m944 -15 c-65 -2 -171 -2 -235 0 -65 1 -12 3 117
3 129 0 182 -2 118 -3z m3797 -82 c-14 -12 -311 -166 -302 -155 8 8 298 163
307 164 2 0 0 -4 -5 -9z m-5722 -123 l14 -43 13 43 c18 57 30 53 29 -10 -2
-52 -2 -53 -8 -13 l-7 40 -8 -32 c-11 -47 -23 -49 -37 -6 l-14 38 -6 -40 c-6
-39 -6 -39 -8 13 -1 63 12 67 32 10z m154 -35 c-2 -16 -4 -3 -4 27 0 30 2 43
4 28 2 -16 2 -40 0 -55z m181 70 c-14 -3 -18 -16 -20 -51 l-2 -47 -3 47 c-3
33 -9 48 -21 51 -9 3 1 5 23 5 22 0 32 -2 23 -5z m63 -23 c16 0 19 -7 17 -37
-1 -37 -1 -37 -5 -5 -5 39 -30 43 -36 5 -2 -16 -4 -5 -4 22 -1 28 1 42 4 33 2
-10 13 -18 24 -18z m269 -64 c-16 -16 -45 6 -45 35 0 17 6 25 23 27 12 2 23
11 24 20 1 9 3 -3 5 -27 3 -24 -1 -49 -7 -55z m160 45 c0 -46 -1 -48 -27 -47
-24 1 -28 5 -28 31 0 23 5 31 23 33 12 2 22 10 22 18 0 8 2 14 5 14 3 0 5 -22
5 -49z m277 -28 c-2 -16 -4 -3 -4 27 0 30 2 43 4 28 2 -16 2 -40 0 -55z m33
32 c0 -25 -4 -45 -10 -45 -5 0 -10 20 -10 45 0 25 5 45 10 45 6 0 10 -20 10
-45z m-938 -10 c2 -27 -1 -44 -7 -42 -13 5 -19 87 -7 87 6 0 12 -20 14 -45z
m-96 -32 c6 -2 16 11 21 29 l11 33 1 -32 c1 -23 -4 -33 -19 -38 -29 -9 -40 2
-39 38 l1 32 7 -29 c3 -16 11 -31 17 -33z m121 5 c-2 -13 -4 -5 -4 17 -1 22 1
32 4 23 2 -10 2 -28 0 -40z m236 44 c-6 -4 -13 -21 -16 -37 -4 -27 -4 -27 -6
8 -1 29 3 37 17 37 11 0 13 -3 5 -8z m75 -14 c3 -14 -3 -18 -23 -18 -16 0 -24
-4 -20 -10 4 -6 16 -8 28 -4 17 5 19 3 11 -6 -27 -28 -65 7 -50 46 8 21 50 14
54 -8z m70 -14 c3 -28 1 -31 -25 -30 -18 1 -29 7 -31 19 -2 11 3 17 15 16 10
0 13 -3 6 -6 -18 -7 -16 -23 2 -23 10 0 15 10 15 26 0 21 -4 25 -20 21 -11 -3
-17 -1 -14 5 3 5 16 8 27 6 16 -2 23 -11 25 -34z m150 14 c3 -14 -3 -18 -23
-18 -16 0 -24 -4 -20 -11 4 -6 14 -8 24 -4 12 5 13 3 4 -6 -17 -17 -43 -3 -43
24 0 13 3 27 7 31 13 13 48 1 51 -16z m175 8 c7 -18 -1 -26 -25 -26 -11 0 -16
-5 -13 -11 4 -6 14 -8 24 -4 12 5 13 3 4 -6 -17 -17 -43 -3 -43 24 0 13 3 27
7 30 11 12 41 7 46 -7z m72 -21 c0 -23 -4 -30 -20 -30 -11 0 -23 -9 -27 -20
-3 -12 -6 2 -7 33 -1 52 -1 53 27 50 23 -3 27 -8 27 -33z m70 0 c0 -23 -5 -30
-19 -30 -24 0 -41 27 -33 49 4 11 15 16 29 14 18 -2 23 -9 23 -33z m853 8
c-65 -2 -171 -2 -235 0 -65 1 -12 3 117 3 129 0 182 -2 118 -3z m3477 -32
c-14 -12 -311 -166 -302 -155 8 8 298 163 307 164 2 0 0 -4 -5 -9z m-315 -166
c0 -3 -36 -23 -80 -45 -44 -22 -80 -38 -80 -35 0 4 146 82 158 85 1 0 2 -2 2
-5z m-170 -90 c0 -3 -31 -21 -70 -40 -38 -19 -70 -33 -70 -30 0 4 126 72 138
75 1 0 2 -2 2 -5z m-150 -80 c0 -3 -36 -23 -80 -45 -44 -22 -80 -38 -80 -35 0
4 146 82 158 85 1 0 2 -2 2 -5z m-170 -90 c0 -3 -31 -21 -70 -40 -38 -19 -70
-33 -70 -30 0 4 126 72 138 75 1 0 2 -2 2 -5z m-150 -80 c0 -3 -36 -23 -80
-45 -44 -22 -80 -38 -80 -35 0 4 146 82 158 85 1 0 2 -2 2 -5z m2943 -12 c-7
-2 -19 -2 -25 0 -7 3 -2 5 12 5 14 0 19 -2 13 -5z m110 0 c-13 -2 -35 -2 -50
0 -16 2 -5 4 22 4 28 0 40 -2 28 -4z m-156 -9 c-3 -3 -12 -4 -19 -1 -8 3 -5 6
6 6 11 1 17 -2 13 -5z m276 -1 c-13 -2 -33 -2 -45 0 -13 2 -3 4 22 4 25 0 35
-2 23 -4z m-320 -10 c-7 -2 -19 -2 -25 0 -7 3 -2 5 12 5 14 0 19 -2 13 -5z
m440 0 c-13 -2 -33 -2 -45 0 -13 2 -3 4 22 4 25 0 35 -2 23 -4z m-486 -9 c-3
-3 -12 -4 -19 -1 -8 3 -5 6 6 6 11 1 17 -2 13 -5z m606 -1 c-13 -2 -33 -2 -45
0 -13 2 -3 4 22 4 25 0 35 -2 23 -4z m-646 -9 c-3 -3 -12 -4 -19 -1 -8 3 -5 6
6 6 11 1 17 -2 13 -5z m776 -1 c-13 -2 -35 -2 -50 0 -16 2 -5 4 22 4 28 0 40
-2 28 -4z m-826 -9 c-3 -3 -12 -4 -19 -1 -8 3 -5 6 6 6 11 1 17 -2 13 -5z
m946 -1 c-13 -2 -35 -2 -50 0 -16 2 -5 4 22 4 28 0 40 -2 28 -4z m-986 -9 c-3
-3 -12 -4 -19 -1 -8 3 -5 6 6 6 11 1 17 -2 13 -5z m1106 -1 c-13 -2 -35 -2
-50 0 -16 2 -5 4 22 4 28 0 40 -2 28 -4z m-1156 -9 c-3 -3 -12 -4 -19 -1 -8 3
-5 6 6 6 11 1 17 -2 13 -5z m1266 -1 c-13 -2 -33 -2 -45 0 -13 2 -3 4 22 4 25
0 35 -2 23 -4z m-4063 -8 c0 -3 -31 -21 -70 -40 -38 -19 -70 -33 -70 -30 0 4
126 72 138 75 1 0 2 -2 2 -5z m2757 -1 c-3 -3 -12 -4 -19 -1 -8 3 -5 6 6 6 11
1 17 -2 13 -5z m-44 -11 c-7 -2 -19 -2 -25 0 -7 3 -2 5 12 5 14 0 19 -2 13 -5z
m-46 -9 c-3 -3 -12 -4 -19 -1 -8 3 -5 6 6 6 11 1 17 -2 13 -5z m-40 -10 c-3
-3 -12 -4 -19 -1 -8 3 -5 6 6 6 11 1 17 -2 13 -5z m-50 -10 c-3 -3 -12 -4 -19
-1 -8 3 -5 6 6 6 11 1 17 -2 13 -5z m-40 -10 c-3 -3 -12 -4 -19 -1 -8 3 -5 6
6 6 11 1 17 -2 13 -5z m-44 -11 c-7 -2 -19 -2 -25 0 -7 3 -2 5 12 5 14 0 19
-2 13 -5z m-46 -9 c-3 -3 -12 -4 -19 -1 -8 3 -5 6 6 6 11 1 17 -2 13 -5z
m-2597 -9 c0 -3 -36 -23 -80 -45 -44 -22 -80 -38 -80 -35 0 4 146 82 158 85 1
0 2 -2 2 -5z m2553 -2 c-7 -2 -19 -2 -25 0 -7 3 -2 5 12 5 14 0 19 -2 13 -5z
m-46 -9 c-3 -3 -12 -4 -19 -1 -8 3 -5 6 6 6 11 1 17 -2 13 -5z m-44 -11 c-7
-2 -19 -2 -25 0 -7 3 -2 5 12 5 14 0 19 -2 13 -5z m-46 -9 c-3 -3 -12 -4 -19
-1 -8 3 -5 6 6 6 11 1 17 -2 13 -5z m-40 -10 c-3 -3 -12 -4 -19 -1 -8 3 -5 6
6 6 11 1 17 -2 13 -5z m-50 -10 c-3 -3 -12 -4 -19 -1 -8 3 -5 6 6 6 11 1 17
-2 13 -5z m-40 -10 c-3 -3 -12 -4 -19 -1 -8 3 -5 6 6 6 11 1 17 -2 13 -5z
m-44 -11 c-7 -2 -19 -2 -25 0 -7 3 -2 5 12 5 14 0 19 -2 13 -5z m-46 -9 c-3
-3 -12 -4 -19 -1 -8 3 -5 6 6 6 11 1 17 -2 13 -5z m-2367 -9 c0 -3 -31 -21
-70 -40 -38 -19 -70 -33 -70 -30 0 4 126 72 138 75 1 0 2 -2 2 -5z m2323 -2
c-7 -2 -19 -2 -25 0 -7 3 -2 5 12 5 14 0 19 -2 13 -5z m-46 -9 c-3 -3 -12 -4
-19 -1 -8 3 -5 6 6 6 11 1 17 -2 13 -5z m-44 -11 c-7 -2 -19 -2 -25 0 -7 3 -2
5 12 5 14 0 19 -2 13 -5z m-46 -9 c-3 -3 -12 -4 -19 -1 -8 3 -5 6 6 6 11 1 17
-2 13 -5z m-40 -10 c-3 -3 -12 -4 -19 -1 -8 3 -5 6 6 6 11 1 17 -2 13 -5z
m-50 -10 c-3 -3 -12 -4 -19 -1 -8 3 -5 6 6 6 11 1 17 -2 13 -5z m-40 -10 c-3
-3 -12 -4 -19 -1 -8 3 -5 6 6 6 11 1 17 -2 13 -5z m-44 -11 c-7 -2 -19 -2 -25
0 -7 3 -2 5 12 5 14 0 19 -2 13 -5z m-2163 -8 c0 -3 -36 -23 -80 -45 -44 -22
-80 -38 -80 -35 0 4 146 82 158 85 1 0 2 -2 2 -5z m2117 -1 c-3 -3 -12 -4 -19
-1 -8 3 -5 6 6 6 11 1 17 -2 13 -5z m-44 -11 c-7 -2 -19 -2 -25 0 -7 3 -2 5
12 5 14 0 19 -2 13 -5z m-46 -9 c-3 -3 -12 -4 -19 -1 -8 3 -5 6 6 6 11 1 17
-2 13 -5z m-40 -10 c-3 -3 -12 -4 -19 -1 -8 3 -5 6 6 6 11 1 17 -2 13 -5z
m-50 -10 c-3 -3 -12 -4 -19 -1 -8 3 -5 6 6 6 11 1 17 -2 13 -5z m-40 -10 c-3
-3 -12 -4 -19 -1 -8 3 -5 6 6 6 11 1 17 -2 13 -5z m-44 -11 c-7 -2 -19 -2 -25
0 -7 3 -2 5 12 5 14 0 19 -2 13 -5z m-46 -9 c-3 -3 -12 -4 -19 -1 -8 3 -5 6 6
6 11 1 17 -2 13 -5z m-44 -11 c-7 -2 -19 -2 -25 0 -7 3 -2 5 12 5 14 0 19 -2
13 -5z m-1933 -8 c0 -3 -31 -21 -70 -40 -38 -19 -70 -33 -70 -30 0 4 126 72
138 75 1 0 2 -2 2 -5z m1887 -1 c-3 -3 -12 -4 -19 -1 -8 3 -5 6 6 6 11 1 17
-2 13 -5z m-44 -11 c-7 -2 -19 -2 -25 0 -7 3 -2 5 12 5 14 0 19 -2 13 -5z
m-46 -9 c-3 -3 -12 -4 -19 -1 -8 3 -5 6 6 6 11 1 17 -2 13 -5z m-40 -10 c-3
-3 -12 -4 -19 -1 -8 3 -5 6 6 6 11 1 17 -2 13 -5z m-50 -10 c-3 -3 -12 -4 -19
-1 -8 3 -5 6 6 6 11 1 17 -2 13 -5z m-40 -10 c-3 -3 -12 -4 -19 -1 -8 3 -5 6
6 6 11 1 17 -2 13 -5z m-44 -11 c-7 -2 -19 -2 -25 0 -7 3 -2 5 12 5 14 0 19
-2 13 -5z m-46 -9 c-3 -3 -12 -4 -19 -1 -8 3 -5 6 6 6 11 1 17 -2 13 -5z
m-1727 -9 c0 -3 -36 -23 -80 -45 -44 -22 -80 -38 -80 -35 0 4 146 82 158 85 1
0 2 -2 2 -5z m1683 -2 c-7 -2 -19 -2 -25 0 -7 3 -2 5 12 5 14 0 19 -2 13 -5z
m-46 -9 c-3 -3 -12 -4 -19 -1 -8 3 -5 6 6 6 11 1 17 -2 13 -5z m-40 -10 c-3
-3 -12 -4 -19 -1 -8 3 -5 6 6 6 11 1 17 -2 13 -5z m-50 -10 c-3 -3 -12 -4 -19
-1 -8 3 -5 6 6 6 11 1 17 -2 13 -5z m-40 -10 c-3 -3 -12 -4 -19 -1 -8 3 -5 6
6 6 11 1 17 -2 13 -5z m-44 -11 c-7 -2 -19 -2 -25 0 -7 3 -2 5 12 5 14 0 19
-2 13 -5z m-46 -9 c-3 -3 -12 -4 -19 -1 -8 3 -5 6 6 6 11 1 17 -2 13 -5z m-44
-11 c-7 -2 -19 -2 -25 0 -7 3 -2 5 12 5 14 0 19 -2 13 -5z m-46 -9 c-3 -3 -12
-4 -19 -1 -8 3 -5 6 6 6 11 1 17 -2 13 -5z m-1497 -9 c0 -3 -31 -21 -70 -40
-38 -19 -70 -33 -70 -30 0 4 126 72 138 75 1 0 2 -2 2 -5z m1453 -2 c-7 -2
-19 -2 -25 0 -7 3 -2 5 12 5 14 0 19 -2 13 -5z m-46 -9 c-3 -3 -12 -4 -19 -1
-8 3 -5 6 6 6 11 1 17 -2 13 -5z m-40 -10 c-3 -3 -12 -4 -19 -1 -8 3 -5 6 6 6
11 1 17 -2 13 -5z m-50 -10 c-3 -3 -12 -4 -19 -1 -8 3 -5 6 6 6 11 1 17 -2 13
-5z m-40 -10 c-3 -3 -12 -4 -19 -1 -8 3 -5 6 6 6 11 1 17 -2 13 -5z m-44 -11
c-7 -2 -19 -2 -25 0 -7 3 -2 5 12 5 14 0 19 -2 13 -5z m-46 -9 c-3 -3 -12 -4
-19 -1 -8 3 -5 6 6 6 11 1 17 -2 13 -5z m-44 -11 c-7 -2 -19 -2 -25 0 -7 3 -2
5 12 5 14 0 19 -2 13 -5z m-1293 -8 c0 -3 -36 -23 -80 -45 -44 -22 -80 -38
-80 -35 0 4 146 82 158 85 1 0 2 -2 2 -5z m1247 -1 c-3 -3 -12 -4 -19 -1 -8 3
-5 6 6 6 11 1 17 -2 13 -5z m-44 -11 c-7 -2 -19 -2 -25 0 -7 3 -2 5 12 5 14 0
19 -2 13 -5z m-46 -9 c-3 -3 -12 -4 -19 -1 -8 3 -5 6 6 6 11 1 17 -2 13 -5z
m-40 -10 c-3 -3 -12 -4 -19 -1 -8 3 -5 6 6 6 11 1 17 -2 13 -5z m-50 -10 c-3
-3 -12 -4 -19 -1 -8 3 -5 6 6 6 11 1 17 -2 13 -5z m-40 -10 c-3 -3 -12 -4 -19
-1 -8 3 -5 6 6 6 11 1 17 -2 13 -5z m-44 -11 c-7 -2 -19 -2 -25 0 -7 3 -2 5
12 5 14 0 19 -2 13 -5z m-46 -9 c-3 -3 -12 -4 -19 -1 -8 3 -5 6 6 6 11 1 17
-2 13 -5z m-44 -11 c-7 -2 -19 -2 -25 0 -7 3 -2 5 12 5 14 0 19 -2 13 -5z
m-1063 -7 c0 -6 -251 -138 -255 -134 -3 3 243 137 253 138 1 0 2 -2 2 -4z
m1017 -2 c-3 -3 -12 -4 -19 -1 -8 3 -5 6 6 6 11 1 17 -2 13 -5z m-40 -10 c-3
-3 -12 -4 -19 -1 -8 3 -5 6 6 6 11 1 17 -2 13 -5z m-50 -10 c-3 -3 -12 -4 -19
-1 -8 3 -5 6 6 6 11 1 17 -2 13 -5z m-40 -10 c-3 -3 -12 -4 -19 -1 -8 3 -5 6
6 6 11 1 17 -2 13 -5z m-44 -11 c-7 -2 -19 -2 -25 0 -7 3 -2 5 12 5 14 0 19
-2 13 -5z m-46 -9 c-3 -3 -12 -4 -19 -1 -8 3 -5 6 6 6 11 1 17 -2 13 -5z m-44
-11 c-7 -2 -19 -2 -25 0 -7 3 -2 5 12 5 14 0 19 -2 13 -5z m-46 -9 c-3 -3 -12
-4 -19 -1 -8 3 -5 6 6 6 11 1 17 -2 13 -5z m-44 -11 c-7 -2 -19 -2 -25 0 -7 3
-2 5 12 5 14 0 19 -2 13 -5z m-46 -9 c-3 -3 -12 -4 -19 -1 -8 3 -5 6 6 6 11 1
17 -2 13 -5z m-40 -10 c-3 -3 -12 -4 -19 -1 -8 3 -5 6 6 6 11 1 17 -2 13 -5z
m-50 -10 c-3 -3 -12 -4 -19 -1 -8 3 -5 6 6 6 11 1 17 -2 13 -5z m-40 -10 c-3
-3 -12 -4 -19 -1 -8 3 -5 6 6 6 11 1 17 -2 13 -5z m-44 -11 c-7 -2 -19 -2 -25
0 -7 3 -2 5 12 5 14 0 19 -2 13 -5z m-46 -9 c-3 -3 -12 -4 -19 -1 -8 3 -5 6 6
6 11 1 17 -2 13 -5z m-807 -69 c-69 -35 -129 -64 -135 -64 -5 0 46 29 115 64
69 35 130 64 135 64 6 0 -46 -29 -115 -64z m763 58 c-7 -2 -19 -2 -25 0 -7 3
-2 5 12 5 14 0 19 -2 13 -5z m-46 -9 c-3 -3 -12 -4 -19 -1 -8 3 -5 6 6 6 11 1
17 -2 13 -5z m-40 -10 c-3 -3 -12 -4 -19 -1 -8 3 -5 6 6 6 11 1 17 -2 13 -5z
m-50 -10 c-3 -3 -12 -4 -19 -1 -8 3 -5 6 6 6 11 1 17 -2 13 -5z m-40 -10 c-3
-3 -12 -4 -19 -1 -8 3 -5 6 6 6 11 1 17 -2 13 -5z m-44 -11 c-7 -2 -19 -2 -25
0 -7 3 -2 5 12 5 14 0 19 -2 13 -5z m-46 -9 c-3 -3 -12 -4 -19 -1 -8 3 -5 6 6
6 11 1 17 -2 13 -5z m-44 -11 c-7 -2 -19 -2 -25 0 -7 3 -2 5 12 5 14 0 19 -2
13 -5z m-46 -9 c-3 -3 -12 -4 -19 -1 -8 3 -5 6 6 6 11 1 17 -2 13 -5z m-44
-11 c-7 -2 -19 -2 -25 0 -7 3 -2 5 12 5 14 0 19 -2 13 -5z m-46 -9 c-3 -3 -12
-4 -19 -1 -8 3 -5 6 6 6 11 1 17 -2 13 -5z m-40 -10 c-3 -3 -12 -4 -19 -1 -8
3 -5 6 6 6 11 1 17 -2 13 -5z m-62 -14 c-27 -12 -43 -12 -25 0 8 5 22 9 30 9
10 0 8 -3 -5 -9z m-495 -70 c-63 -32 -119 -59 -125 -59 -5 0 42 27 105 59 63
32 120 59 125 59 6 0 -42 -27 -105 -59z m420 40 c-8 -5 -19 -10 -25 -10 -5 0
-3 5 5 10 8 5 20 10 25 10 6 0 3 -5 -5 -10z m-60 -25 c-14 -8 -29 -14 -35 -14
-5 0 1 6 15 14 14 8 30 14 35 14 6 0 -1 -6 -15 -14z m-70 -30 c-14 -8 -29 -14
-35 -14 -5 0 1 6 15 14 14 8 30 14 35 14 6 0 -1 -6 -15 -14z m-70 -30 c-14 -8
-29 -14 -35 -14 -5 0 1 6 15 14 14 8 30 14 35 14 6 0 -1 -6 -15 -14z m-60 -25
c-8 -5 -19 -10 -25 -10 -5 0 -3 5 5 10 8 5 20 10 25 10 6 0 3 -5 -5 -10z
m-430 -60 c-63 -32 -119 -59 -125 -59 -5 0 42 27 105 59 63 32 120 59 125 59
6 0 -42 -27 -105 -59z m360 30 c-8 -5 -19 -10 -25 -10 -5 0 -3 5 5 10 8 5 20
10 25 10 6 0 3 -5 -5 -10z m-60 -25 c-14 -8 -29 -14 -35 -14 -5 0 1 6 15 14
14 8 30 14 35 14 6 0 -1 -6 -15 -14z m-70 -30 c-14 -8 -29 -14 -35 -14 -5 0 1
6 15 14 14 8 30 14 35 14 6 0 -1 -6 -15 -14z m-70 -30 c-14 -8 -29 -14 -35
-14 -5 0 1 6 15 14 14 8 30 14 35 14 6 0 -1 -6 -15 -14z m-440 -80 c-69 -35
-129 -64 -135 -64 -5 0 46 29 115 64 69 35 130 64 135 64 6 0 -46 -29 -115
-64z m380 55 c-8 -5 -19 -10 -25 -10 -5 0 -3 5 5 10 8 5 20 10 25 10 6 0 3 -5
-5 -10z m-70 -30 c-8 -5 -19 -10 -25 -10 -5 0 -3 5 5 10 8 5 20 10 25 10 6 0
3 -5 -5 -10z m-60 -25 c-14 -8 -29 -14 -35 -14 -5 0 1 6 15 14 14 8 30 14 35
14 6 0 -1 -6 -15 -14z m-70 -30 c-14 -8 -29 -14 -35 -14 -5 0 1 6 15 14 14 8
30 14 35 14 6 0 -1 -6 -15 -14z m-70 -30 c-14 -8 -29 -14 -35 -14 -5 0 1 6 15
14 14 8 30 14 35 14 6 0 -1 -6 -15 -14z m-390 -75 c-63 -32 -119 -59 -125 -59
-5 0 42 27 105 59 63 32 120 59 125 59 6 0 -42 -27 -105 -59z m330 50 c-8 -5
-19 -10 -25 -10 -5 0 -3 5 5 10 8 5 20 10 25 10 6 0 3 -5 -5 -10z m-70 -30
c-8 -5 -19 -10 -25 -10 -5 0 -3 5 5 10 8 5 20 10 25 10 6 0 3 -5 -5 -10z m-60
-25 c-14 -8 -29 -14 -35 -14 -5 0 1 6 15 14 14 8 30 14 35 14 6 0 -1 -6 -15
-14z m-70 -30 c-14 -8 -29 -14 -35 -14 -5 0 1 6 15 14 14 8 30 14 35 14 6 0
-1 -6 -15 -14z m-70 -30 c-14 -8 -29 -14 -35 -14 -5 0 1 6 15 14 14 8 30 14
35 14 6 0 -1 -6 -15 -14z m-340 -70 c-69 -35 -129 -64 -135 -64 -5 0 46 29
115 64 69 35 130 64 135 64 6 0 -46 -29 -115 -64z m280 45 c-8 -5 -19 -10 -25
-10 -5 0 -3 5 5 10 8 5 20 10 25 10 6 0 3 -5 -5 -10z m-60 -25 c-14 -8 -29
-14 -35 -14 -5 0 1 6 15 14 14 8 30 14 35 14 6 0 -1 -6 -15 -14z m-70 -30
c-14 -8 -29 -14 -35 -14 -5 0 1 6 15 14 14 8 30 14 35 14 6 0 -1 -6 -15 -14z
m-70 -30 c-14 -8 -29 -14 -35 -14 -5 0 1 6 15 14 14 8 30 14 35 14 6 0 -1 -6
-15 -14z m-70 -30 c-14 -8 -29 -14 -35 -14 -5 0 1 6 15 14 14 8 30 14 35 14 6
0 -1 -6 -15 -14z m-290 -65 c-63 -32 -119 -59 -125 -59 -5 0 42 27 105 59 63
32 120 59 125 59 6 0 -42 -27 -105 -59z m230 40 c-8 -5 -19 -10 -25 -10 -5 0
-3 5 5 10 8 5 20 10 25 10 6 0 3 -5 -5 -10z m-60 -25 c-14 -8 -29 -14 -35 -14
-5 0 1 6 15 14 14 8 30 14 35 14 6 0 -1 -6 -15 -14z m-70 -30 c-14 -8 -29 -14
-35 -14 -5 0 1 6 15 14 14 8 30 14 35 14 6 0 -1 -6 -15 -14z m-70 -30 c-14 -8
-29 -14 -35 -14 -5 0 1 6 15 14 14 8 30 14 35 14 6 0 -1 -6 -15 -14z m-60 -25
c-8 -5 -19 -10 -25 -10 -5 0 -3 5 5 10 8 5 20 10 25 10 6 0 3 -5 -5 -10z
m-240 -60 c-63 -32 -119 -59 -125 -59 -5 0 42 27 105 59 63 32 120 59 125 59
6 0 -42 -27 -105 -59z m170 30 c-8 -5 -19 -10 -25 -10 -5 0 -3 5 5 10 8 5 20
10 25 10 6 0 3 -5 -5 -10z m-60 -25 c-14 -8 -29 -14 -35 -14 -5 0 1 6 15 14
14 8 30 14 35 14 6 0 -1 -6 -15 -14z m-70 -30 c-14 -8 -29 -14 -35 -14 -5 0 1
6 15 14 14 8 30 14 35 14 6 0 -1 -6 -15 -14z m-70 -30 c-14 -8 -29 -14 -35
-14 -5 0 1 6 15 14 14 8 30 14 35 14 6 0 -1 -6 -15 -14z m-60 -25 c-8 -5 -19
-10 -25 -10 -5 0 -3 5 5 10 8 5 20 10 25 10 6 0 3 -5 -5 -10z m-180 -50 c-52
-27 -88 -49 -80 -50 9 0 4 -7 -12 -15 -15 -8 -34 -12 -44 -8 -12 4 15 23 97
64 63 32 119 58 124 58 6 0 -33 -22 -85 -49z m110 20 c-8 -5 -19 -10 -25 -10
-5 0 -3 5 5 10 8 5 20 10 25 10 6 0 3 -5 -5 -10z m-60 -25 c-14 -8 -29 -14
-35 -14 -5 0 1 6 15 14 14 8 30 14 35 14 6 0 -1 -6 -15 -14z m-70 -30 c-14 -8
-29 -14 -35 -14 -5 0 1 6 15 14 14 8 30 14 35 14 6 0 -1 -6 -15 -14z m-427
-322 c-46 -2 -120 -2 -165 0 -46 1 -9 3 82 3 91 0 128 -2 83 -3z m720 -10
c-84 -2 -222 -2 -305 0 -84 1 -16 3 152 3 168 0 236 -2 153 -3z m665 -10 c-43
-2 -113 -2 -155 0 -43 1 -8 3 77 3 85 0 120 -2 78 -3z m5095 -20 c-721 -2
-1905 -2 -2630 0 -725 1 -135 2 1312 2 1447 0 2040 -1 1318 -2z"/>
<path d="M2323 8974 c-3 -9 -1 -25 5 -35 9 -13 8 -19 -1 -22 -7 -4 -6 -6 4 -6
11 -1 16 9 17 34 1 37 -14 56 -25 29z"/>
<path d="M2425 8980 c-3 -5 3 -10 15 -10 12 0 18 5 15 10 -3 6 -10 10 -15 10
-5 0 -12 -4 -15 -10z"/>
<path d="M2621 8977 c-13 -17 -4 -50 13 -44 15 5 20 37 9 48 -6 6 -14 4 -22
-4z"/>
<path d="M2825 8980 c-3 -5 3 -10 15 -10 12 0 18 5 15 10 -3 6 -10 10 -15 10
-5 0 -12 -4 -15 -10z"/>
<path d="M2790 8760 c0 -5 9 -10 21 -10 11 0 17 5 14 10 -3 6 -13 10 -21 10
-8 0 -14 -4 -14 -10z"/>
<path d="M2890 8760 c0 -5 9 -10 21 -10 11 0 17 5 14 10 -3 6 -13 10 -21 10
-8 0 -14 -4 -14 -10z"/>
<path d="M2910 8565 c0 -8 9 -15 20 -15 11 0 20 7 20 15 0 8 -9 15 -20 15 -11
0 -20 -7 -20 -15z"/>
<path d="M2997 8554 c-15 -15 -7 -45 11 -42 9 2 17 12 17 22 0 20 -16 31 -28
20z"/>
<path d="M2912 8318 c2 -12 10 -23 18 -23 22 0 19 39 -3 43 -15 3 -18 -1 -15
-20z"/>
<path d="M2982 8318 c2 -13 10 -23 18 -23 8 0 16 10 18 23 3 17 -2 22 -18 22
-16 0 -21 -5 -18 -22z"/>
<path d="M2653 8114 c-8 -21 13 -42 28 -27 13 13 5 43 -11 43 -6 0 -13 -7 -17
-16z"/>
<path d="M2973 8114 c-8 -21 13 -42 28 -27 13 13 5 43 -11 43 -6 0 -13 -7 -17
-16z"/>
<path d="M2697 7914 c-16 -16 -7 -44 14 -44 15 0 20 5 17 22 -3 22 -19 33 -31
22z"/>
<path d="M2770 7910 c0 -5 7 -10 15 -10 8 0 15 5 15 10 0 6 -7 10 -15 10 -8 0
-15 -4 -15 -10z"/>
<path d="M2844 7905 c-4 -8 -3 -23 0 -32 6 -15 8 -15 22 -2 8 9 12 23 8 32 -8
21 -23 22 -30 2z"/>
<path d="M2555 7910 c-3 -5 1 -10 9 -10 9 0 16 5 16 10 0 6 -4 10 -9 10 -6 0
-13 -4 -16 -10z"/>
<path d="M2625 7879 c-4 -6 -5 -13 -2 -16 7 -7 27 6 27 18 0 12 -17 12 -25 -2z"/>
<path d="M2306 7691 c-9 -14 5 -42 18 -38 18 6 20 47 2 47 -8 0 -17 -4 -20 -9z"/>
<path d="M2452 7678 c2 -12 10 -23 18 -23 22 0 19 39 -3 43 -15 3 -18 -1 -15
-20z"/>
<path d="M2160 7690 c0 -5 9 -10 20 -10 11 0 20 5 20 10 0 6 -9 10 -20 10 -11
0 -20 -4 -20 -10z"/>
<path d="M2380 7690 c0 -5 7 -10 15 -10 8 0 15 5 15 10 0 6 -7 10 -15 10 -8 0
-15 -4 -15 -10z"/>
<path d="M2560 7690 c0 -5 7 -10 15 -10 8 0 15 5 15 10 0 6 -7 10 -15 10 -8 0
-15 -4 -15 -10z"/>
<path d="M2633 7684 c-7 -18 11 -39 26 -30 17 11 13 46 -4 46 -9 0 -18 -7 -22
-16z"/>
<path d="M2703 7684 c-7 -18 11 -39 26 -30 17 11 13 46 -4 46 -9 0 -18 -7 -22
-16z"/>
<path d="M1930 5040 c-8 -5 -10 -10 -5 -10 6 0 17 5 25 10 8 5 11 10 5 10 -5
0 -17 -5 -25 -10z"/>
<path d="M1044 8602 c2 -9 8 -18 14 -20 17 -5 15 25 -2 31 -9 4 -13 0 -12 -11z"/>
<path d="M640 8555 c-10 -12 -10 -15 4 -15 9 0 16 7 16 15 0 8 -2 15 -4 15 -2
0 -9 -7 -16 -15z"/>
<path d="M851 8573 c-12 -23 -3 -65 13 -60 14 5 20 57 8 69 -7 7 -14 3 -21 -9z"/>
<path d="M1042 7978 c6 -18 28 -21 28 -4 0 9 -7 16 -16 16 -9 0 -14 -5 -12
-12z"/>
<path d="M845 7951 c-7 -24 4 -51 21 -51 9 0 14 12 14 35 0 38 -24 50 -35 16z"/>
<path d="M1047 7374 c-8 -8 1 -24 14 -24 5 0 9 7 9 15 0 15 -12 20 -23 9z"/>
<path d="M885 7347 c-9 -22 -2 -62 10 -60 6 1 11 14 13 29 4 32 -14 56 -23 31z"/>
<path d="M170 7116 c-10 -13 -9 -17 4 -22 22 -8 49 3 44 19 -7 18 -33 20 -48
3z"/>
<path d="M165 6970 c-8 -13 20 -24 41 -16 20 8 9 26 -16 26 -10 0 -22 -5 -25
-10z"/>
<path d="M535 6731 c-7 -12 12 -24 25 -16 11 7 4 25 -10 25 -5 0 -11 -4 -15
-9z"/>
<path d="M534 6689 c-10 -17 13 -36 27 -22 12 12 4 33 -11 33 -5 0 -12 -5 -16
-11z"/>
<path d="M615 6727 c-9 -22 -2 -62 10 -60 6 1 11 14 13 29 4 32 -14 56 -23 31z"/>
<path d="M684 6726 c-8 -21 -1 -59 13 -63 6 -2 14 5 18 16 12 40 -17 84 -31
47z"/>
<path d="M762 6704 c2 -22 8 -38 13 -36 15 3 12 65 -3 70 -10 3 -13 -6 -10
-34z"/>
<path d="M834 6726 c-8 -21 -1 -59 13 -63 6 -2 14 5 18 16 12 40 -17 84 -31
47z"/>
<path d="M905 6721 c-8 -27 3 -63 18 -58 7 2 12 19 12 37 0 38 -20 52 -30 21z"/>
<path d="M171 6527 c-13 -16 -5 -27 20 -27 24 0 35 20 18 31 -19 12 -25 11
-38 -4z"/>
<path d="M535 6081 c-8 -15 3 -31 21 -31 9 0 14 7 12 17 -4 20 -24 28 -33 14z"/>
<path d="M610 6085 c0 -24 5 -35 15 -35 10 0 15 11 15 35 0 24 -5 35 -15 35
-10 0 -15 -11 -15 -35z"/>
<path d="M684 6106 c-9 -23 0 -51 16 -51 10 0 15 10 15 29 0 32 -21 47 -31 22z"/>
<path d="M758 6103 c-6 -28 2 -53 18 -53 9 0 14 11 14 35 0 37 -24 50 -32 18z"/>
<path d="M830 6091 c0 -34 18 -51 31 -30 14 21 6 53 -13 57 -14 3 -18 -3 -18
-27z"/>
<path d="M905 6101 c-7 -23 4 -53 19 -48 18 6 20 67 2 67 -8 0 -17 -8 -21 -19z"/>
<path d="M166 6102 c-9 -15 19 -33 38 -26 9 4 15 12 13 18 -5 14 -43 20 -51 8z"/>
<path d="M140 5940 c0 -11 7 -20 15 -20 8 0 15 9 15 20 0 11 -7 20 -15 20 -8
0 -15 -9 -15 -20z"/>
<path d="M540 5465 c-10 -12 -10 -15 4 -15 9 0 16 7 16 15 0 8 -2 15 -4 15 -2
0 -9 -7 -16 -15z"/>
<path d="M616 5493 c-3 -3 -6 -21 -6 -40 0 -23 5 -33 15 -33 10 0 15 10 15 34
0 34 -11 52 -24 39z"/>
<path d="M684 5487 c-9 -25 0 -62 16 -62 21 0 25 49 6 64 -13 11 -17 11 -22
-2z"/>
<path d="M762 5480 c-11 -29 -4 -62 12 -57 15 5 20 57 7 70 -7 7 -13 3 -19
-13z"/>
<path d="M835 5488 c-9 -24 -2 -61 12 -65 20 -7 28 46 10 65 -15 14 -17 14
-22 0z"/>
<path d="M910 5486 c-15 -19 -5 -69 13 -63 15 4 22 56 9 69 -5 5 -14 3 -22 -6z"/>
<path d="M610 4845 c0 -24 5 -35 15 -35 10 0 15 11 15 35 0 24 -5 35 -15 35
-10 0 -15 -11 -15 -35z"/>
<path d="M684 4866 c-9 -23 0 -51 16 -51 10 0 15 10 15 29 0 32 -21 47 -31 22z"/>
<path d="M758 4863 c-6 -28 2 -53 18 -53 9 0 14 11 14 35 0 37 -24 50 -32 18z"/>
<path d="M837 4873 c-13 -13 -7 -63 7 -63 21 0 29 17 22 46 -6 24 -17 30 -29
17z"/>
<path d="M906 4862 c-8 -25 2 -52 21 -52 10 0 13 9 11 32 -3 36 -23 48 -32 20z"/>
<path d="M1015 4251 c-8 -27 3 -63 18 -58 7 2 12 19 12 37 0 38 -20 52 -30 21z"/>
<path d="M3150 4020 c-9 -16 -8 -20 5 -20 8 0 15 9 15 20 0 11 -2 20 -5 20 -2
0 -9 -9 -15 -20z"/>
<path d="M5153 4005 c-7 -20 2 -29 21 -22 9 4 13 13 10 22 -8 19 -23 19 -31 0z"/>
<path d="M7047 4013 c-13 -12 -7 -33 8 -33 8 0 15 9 15 20 0 20 -11 26 -23 13z"/>
<path d="M7120 4021 c-7 -15 -7 -21 0 -21 12 0 25 28 17 36 -3 3 -10 -4 -17
-15z"/>
<path d="M9105 4011 c-8 -15 3 -31 21 -31 9 0 14 7 12 17 -4 20 -24 28 -33 14z"/>
<path d="M10960 4015 c0 -24 5 -35 15 -35 10 0 15 11 15 35 0 24 -5 35 -15 35
-10 0 -15 -11 -15 -35z"/>
<path d="M11117 4026 c-4 -10 -5 -21 -2 -24 9 -9 17 6 13 25 -3 17 -4 17 -11
-1z"/>
<path d="M5314 3695 c-7 -18 3 -35 22 -35 8 0 14 10 14 25 0 27 -27 35 -36 10z"/>
<path d="M5685 3700 c-3 -5 3 -10 14 -10 12 0 21 5 21 10 0 6 -6 10 -14 10 -8
0 -18 -4 -21 -10z"/>
<path d="M5994 3696 c-7 -19 3 -36 22 -36 10 0 14 8 12 22 -4 26 -26 36 -34
14z"/>
<path d="M6210 3700 c0 -5 9 -10 21 -10 11 0 17 5 14 10 -3 6 -13 10 -21 10
-8 0 -14 -4 -14 -10z"/>
<path d="M6414 3695 c-7 -18 3 -35 22 -35 8 0 14 10 14 25 0 27 -27 35 -36 10z"/>
</g>
</svg>
