<svg version="1.1" xmlns="http://www.w3.org/2000/svg" viewBox="0 0 997.3322024061326 431.68651618988287" width="997.3322024061326" height="431.68651618988287" filter="invert(93%) hue-rotate(180deg)">
  <!-- svg-source:excalidraw -->
  
  <defs>
    <style class="style-fonts">
      @font-face {
        font-family: "Virgil";
        src: url("https://excalidraw.com/Virgil.woff2");
      }
      @font-face {
        font-family: "Cascadia";
        src: url("https://excalidraw.com/Cascadia.woff2");
      }
      @font-face {
        font-family: "Assistant";
        src: url("https://excalidraw.com/Assistant-Regular.woff2");
      }
    </style>
    
  </defs>
  <g stroke-linecap="round" transform="translate(198 56.65142145508747) rotate(0 268 181)"><path d="M32 0 C138.53 -1.53, 244.74 -1.83, 504 0 M32 0 C195.07 -1.03, 358.81 -1.18, 504 0 M504 0 C524.26 -0.62, 535.65 10.04, 536 32 M504 0 C523.72 -0.31, 537.91 12.06, 536 32 M536 32 C536.7 117.16, 536.12 201.97, 536 330 M536 32 C534.59 123.77, 533.26 215.75, 536 330 M536 330 C534.98 353.2, 526.63 361.31, 504 362 M536 330 C535.77 350.95, 526.24 363.35, 504 362 M504 362 C403.78 361.68, 302.09 361.07, 32 362 M504 362 C378.84 363.16, 253.7 363.41, 32 362 M32 362 C10.52 363.22, -0.37 352.95, 0 330 M32 362 C10.6 360.91, -1.06 349.82, 0 330 M0 330 C-1.95 245.45, -0.94 161.96, 0 32 M0 330 C1.56 220.51, 2.28 110.72, 0 32 M0 32 C-0.67 10.73, 11.33 1.35, 32 0 M0 32 C-1.77 9.75, 11.29 1.31, 32 0" stroke="#1e1e1e" stroke-width="2" fill="none"></path></g><g transform="translate(180 68.65142145508747) rotate(0 -30.5 174.5)" stroke="none"><path fill="#1e1e1e" d="M 4.07,0.40 Q 4.07,0.40 3.86,3.29 3.65,6.17 3.73,10.01 3.81,13.85 3.75,17.05 3.69,20.25 2.82,25.03 1.96,29.82 0.92,34.40 -0.11,38.99 -0.88,43.39 -1.65,47.78 -0.46,53.01 0.72,58.25 0.89,63.11 1.06,67.98 0.79,72.41 0.51,76.83 0.35,86.64 0.20,96.45 -0.18,102.71 -0.56,108.98 -1.62,115.78 -2.68,122.57 -3.71,128.31 -4.75,134.04 -5.48,139.01 -6.21,143.98 -7.35,147.82 -8.50,151.67 -11.23,155.55 -13.96,159.44 -17.77,163.38 -21.58,167.32 -25.59,170.48 -29.60,173.64 -33.12,175.70 -36.63,177.76 -41.83,179.22 -47.02,180.69 -50.98,181.37 -54.93,182.05 -50.43,183.18 -45.92,184.30 -42.62,185.71 -39.32,187.12 -34.83,191.40 -30.34,195.68 -25.74,200.97 -21.15,206.26 -17.85,214.40 -14.55,222.53 -13.24,228.93 -11.92,235.33 -11.68,245.97 -11.44,256.61 -11.37,264.19 -11.30,271.77 -10.99,277.80 -10.69,283.84 -10.01,288.60 -9.33,293.37 -8.81,296.35 -8.29,299.32 -7.95,303.76 -7.60,308.19 -7.48,313.61 -7.35,319.03 -6.97,322.93 -6.59,326.83 -6.24,329.72 -5.88,332.61 -4.99,334.93 -4.10,337.26 -3.12,339.66 -2.15,342.06 -0.75,343.57 0.64,345.08 1.20,345.61 1.75,346.13 2.11,346.81 2.47,347.48 2.59,348.24 2.72,348.99 2.59,349.74 2.47,350.50 2.11,351.17 1.76,351.85 1.20,352.37 0.65,352.90 -0.03,353.22 -0.73,353.54 -1.49,353.63 -2.25,353.71 -2.99,353.55 -3.74,353.38 -4.39,352.99 -5.05,352.60 -5.54,352.01 -6.04,351.43 -6.32,350.72 -6.61,350.01 -6.65,349.25 -6.69,348.49 -6.49,347.75 -6.28,347.02 -5.85,346.38 -5.43,345.75 -4.82,345.29 -4.21,344.83 -3.49,344.58 -2.76,344.34 -2.00,344.34 -1.24,344.34 -0.51,344.58 0.20,344.82 0.81,345.28 1.42,345.75 1.85,346.38 2.28,347.01 2.48,347.74 2.69,348.48 2.65,349.24 2.61,350.01 2.32,350.72 2.04,351.43 1.55,352.01 1.05,352.59 0.40,352.99 -0.24,353.38 -0.99,353.54 -1.74,353.71 -2.50,353.63 -3.25,353.55 -3.95,353.23 -4.64,352.90 -4.64,352.91 -4.64,352.91 -7.47,348.92 -10.30,344.94 -10.99,342.62 -11.68,340.30 -12.12,336.64 -12.56,332.97 -12.52,330.17 -12.47,327.37 -12.82,323.29 -13.17,319.22 -13.39,313.99 -13.62,308.76 -14.11,304.37 -14.60,299.98 -14.69,297.07 -14.78,294.17 -15.54,289.16 -16.29,284.15 -16.66,278.00 -17.04,271.86 -17.20,264.31 -17.36,256.76 -17.66,246.69 -17.96,236.61 -19.28,230.79 -20.60,224.98 -23.50,217.91 -26.40,210.84 -30.97,206.05 -35.54,201.27 -39.09,198.08 -42.64,194.90 -46.08,193.62 -49.53,192.34 -52.12,191.09 -54.71,189.83 -57.93,187.77 -61.15,185.71 -61.58,182.45 -62.01,179.18 -58.92,177.70 -55.83,176.22 -52.19,175.73 -48.54,175.25 -43.98,173.97 -39.42,172.69 -36.21,171.01 -33.00,169.33 -29.30,166.38 -25.60,163.44 -22.11,159.78 -18.61,156.12 -16.33,152.95 -14.05,149.77 -12.86,146.48 -11.67,143.19 -10.98,138.13 -10.28,133.08 -9.33,127.40 -8.37,121.72 -7.43,115.20 -6.49,108.67 -6.24,102.54 -5.99,96.40 -6.01,86.50 -6.03,76.59 -5.99,72.51 -5.95,68.44 -6.37,64.13 -6.80,59.81 -7.50,56.29 -8.21,52.77 -8.33,49.83 -8.45,46.88 -7.95,42.27 -7.45,37.65 -6.84,33.20 -6.23,28.76 -5.93,24.47 -5.63,20.18 -5.64,16.90 -5.66,13.63 -5.23,9.48 -4.80,5.32 -4.44,2.45 -4.07,-0.40 -3.96,-0.88 -3.85,-1.37 -3.63,-1.81 -3.41,-2.25 -3.09,-2.63 -2.77,-3.00 -2.37,-3.29 -1.97,-3.58 -1.52,-3.77 -1.06,-3.95 -0.57,-4.02 -0.08,-4.09 0.40,-4.04 0.89,-3.99 1.36,-3.83 1.82,-3.66 2.23,-3.39 2.65,-3.12 2.98,-2.75 3.32,-2.39 3.55,-1.96 3.79,-1.53 3.92,-1.05 4.05,-0.57 4.06,-0.08 4.07,0.40 4.07,0.40 L 4.07,0.40 Z"></path></g><g transform="translate(178 417.6514214550875) rotate(0 0.00004999999998744897 0.00005000000000165983)" stroke="none"><path fill="#1e1e1e" d="M 3.14,-3.14 Q 3.14,-3.14 3.55,-2.55 3.97,-1.97 4.18,-1.28 4.40,-0.59 4.38,0.11 4.36,0.83 4.11,1.51 3.86,2.18 3.41,2.74 2.96,3.30 2.36,3.69 1.75,4.08 1.05,4.25 0.36,4.42 -0.35,4.36 -1.07,4.31 -1.73,4.02 -2.39,3.74 -2.92,3.26 -3.46,2.78 -3.81,2.15 -4.16,1.53 -4.30,0.82 -4.43,0.11 -4.34,-0.59 -4.24,-1.30 -3.92,-1.94 -3.60,-2.59 -3.09,-3.09 -2.59,-3.60 -1.94,-3.92 -1.30,-4.24 -0.59,-4.34 0.12,-4.43 0.82,-4.30 1.53,-4.16 2.15,-3.81 2.78,-3.46 3.26,-2.92 3.74,-2.39 4.02,-1.73 4.31,-1.07 4.36,-0.35 4.42,0.36 4.25,1.05 4.07,1.75 3.69,2.36 3.30,2.96 2.74,3.41 2.18,3.86 1.51,4.11 0.83,4.36 0.11,4.38 -0.60,4.40 -1.28,4.18 -1.97,3.97 -2.55,3.55 -3.14,3.13 -3.14,3.14 -3.14,3.14 -3.47,2.71 -3.80,2.29 -4.02,1.80 -4.24,1.32 -4.33,0.79 -4.43,0.26 -4.40,-0.26 -4.36,-0.80 -4.20,-1.31 -4.04,-1.82 -3.77,-2.28 -3.49,-2.73 -3.11,-3.11 -2.73,-3.49 -2.28,-3.77 -1.82,-4.05 -1.31,-4.20 -0.80,-4.36 -0.26,-4.40 0.26,-4.43 0.79,-4.33 1.32,-4.24 1.80,-4.02 2.29,-3.80 2.71,-3.47 3.14,-3.14 3.14,-3.14 L 3.14,-3.14 Z"></path></g><g transform="translate(178 70.65142145508747) rotate(0 4.5 -5)" stroke="none"><path fill="#1e1e1e" d="M -3.95,-3.16 Q -3.95,-3.16 -2.87,-4.65 -1.78,-6.14 -0.38,-7.95 1.01,-9.76 3.77,-12.20 6.53,-14.64 7.36,-15.07 8.20,-15.50 9.12,-15.64 10.05,-15.78 10.97,-15.62 11.89,-15.47 12.72,-15.02 13.54,-14.57 14.18,-13.89 14.82,-13.20 15.20,-12.35 15.59,-11.49 15.68,-10.56 15.77,-9.63 15.56,-8.72 15.35,-7.80 14.86,-7.01 14.37,-6.21 13.65,-5.61 12.94,-5.01 12.06,-4.67 11.19,-4.33 10.25,-4.29 9.32,-4.24 8.42,-4.50 7.52,-4.76 6.75,-5.29 5.98,-5.83 5.42,-6.58 4.86,-7.33 4.56,-8.22 4.27,-9.11 4.28,-10.05 4.29,-10.98 4.60,-11.87 4.90,-12.75 5.48,-13.49 6.05,-14.23 6.83,-14.75 7.61,-15.27 8.52,-15.51 9.42,-15.76 10.36,-15.70 11.29,-15.64 12.16,-15.28 13.03,-14.93 13.73,-14.32 14.44,-13.70 14.92,-12.90 15.39,-12.09 15.59,-11.17 15.78,-10.26 15.67,-9.33 15.56,-8.40 15.16,-7.55 14.76,-6.70 14.11,-6.03 13.46,-5.35 13.46,-5.35 13.46,-5.35 11.86,-4.28 10.26,-3.21 8.32,-1.41 6.38,0.39 5.17,1.78 3.95,3.16 3.52,3.59 3.08,4.02 2.55,4.33 2.03,4.64 1.44,4.81 0.86,4.99 0.25,5.02 -0.35,5.05 -0.95,4.93 -1.55,4.82 -2.11,4.56 -2.66,4.30 -3.14,3.92 -3.61,3.54 -3.99,3.06 -4.36,2.57 -4.60,2.01 -4.85,1.45 -4.95,0.85 -5.06,0.25 -5.01,-0.35 -4.97,-0.96 -4.78,-1.54 -4.59,-2.12 -4.27,-2.64 -3.95,-3.16 -3.95,-3.16 L -3.95,-3.16 Z"></path></g><g transform="translate(181 63.65142145508747) rotate(0 -2.5 15.5)" stroke="none"><path fill="#1e1e1e" d="M 5.18,1.03 Q 5.18,1.03 4.97,2.49 4.76,3.95 3.98,6.19 3.20,8.43 2.53,10.83 1.86,13.23 1.99,16.05 2.13,18.88 1.78,21.56 1.42,24.25 1.28,27.78 1.14,31.30 0.93,32.28 0.72,33.25 0.21,34.10 -0.29,34.96 -1.05,35.61 -1.80,36.25 -2.73,36.63 -3.65,37.00 -4.64,37.06 -5.64,37.11 -6.60,36.85 -7.56,36.59 -8.38,36.03 -9.21,35.48 -9.81,34.69 -10.42,33.90 -10.74,32.96 -11.06,32.01 -11.07,31.02 -11.07,30.02 -10.76,29.08 -10.44,28.13 -9.84,27.34 -9.24,26.55 -8.42,25.98 -7.60,25.42 -6.64,25.15 -5.68,24.88 -4.69,24.93 -3.70,24.98 -2.77,25.35 -1.84,25.71 -1.08,26.35 -0.32,26.99 0.18,27.85 0.70,28.70 0.92,29.67 1.14,30.64 1.03,31.63 0.93,32.62 0.51,33.52 0.10,34.43 -0.57,35.15 -1.25,35.88 -2.13,36.35 -3.01,36.82 -3.99,36.98 -4.97,37.15 -5.95,36.99 -6.94,36.83 -7.82,36.37 -8.70,35.91 -9.39,35.19 -10.07,34.47 -10.50,33.56 -10.92,32.66 -11.03,31.67 -11.14,30.68 -11.14,30.69 -11.14,30.69 -10.83,26.71 -10.53,22.73 -10.21,19.07 -9.89,15.42 -9.00,11.59 -8.11,7.76 -7.01,4.77 -5.91,1.79 -5.55,0.37 -5.18,-1.03 -4.98,-1.64 -4.78,-2.24 -4.45,-2.78 -4.11,-3.33 -3.65,-3.77 -3.19,-4.21 -2.64,-4.53 -2.09,-4.85 -1.48,-5.03 -0.86,-5.21 -0.23,-5.24 0.40,-5.27 1.03,-5.15 1.65,-5.02 2.23,-4.75 2.81,-4.48 3.30,-4.08 3.80,-3.68 4.18,-3.17 4.57,-2.66 4.82,-2.07 5.07,-1.49 5.18,-0.86 5.28,-0.23 5.23,0.40 5.18,1.03 5.18,1.03 L 5.18,1.03 Z"></path></g><g transform="translate(10 232.65142145508747) rotate(0 45.375 12.5)"><text x="0" y="0" font-family="Virgil, Segoe UI Emoji" font-size="20px" fill="#1e1e1e" text-anchor="start" style="white-space: pre;" direction="ltr" dominant-baseline="text-before-edge">48 bytes</text></g><g stroke-linecap="round" transform="translate(207 60.65142145508747) rotate(0 258 27.5)"><path d="M13.75 0 C124.27 -0.38, 235.64 0.4, 502.25 0 M13.75 0 C135.78 -1.51, 257.58 -1.76, 502.25 0 M502.25 0 C513.4 0.22, 516.62 3.79, 516 13.75 M502.25 0 C512.45 1.23, 514.1 6.05, 516 13.75 M516 13.75 C517.95 22.66, 516.54 30.3, 516 41.25 M516 13.75 C515.61 21.54, 515.52 30.91, 516 41.25 M516 41.25 C517.71 50.62, 512 56.81, 502.25 55 M516 41.25 C517.05 51, 510.77 54.03, 502.25 55 M502.25 55 C326.05 53.36, 149.28 53.65, 13.75 55 M502.25 55 C337.75 56.28, 172.38 56.17, 13.75 55 M13.75 55 C5.5 55.39, 1.62 49.56, 0 41.25 M13.75 55 C5.05 57.24, 0.81 51.05, 0 41.25 M0 41.25 C0.21 31.87, 0.94 21.57, 0 13.75 M0 41.25 C0.09 34.27, -0.25 28.39, 0 13.75 M0 13.75 C-0.09 5.8, 2.81 -0.67, 13.75 0 M0 13.75 C2.18 4.95, 5.12 0.5, 13.75 0" stroke="#1e1e1e" stroke-width="2" fill="none"></path></g><g transform="translate(446.3500003814697 65.65142145508747) rotate(0 18.649999618530273 22.5)"><text x="18.649999618530273" y="0" font-family="Virgil, Segoe UI Emoji" font-size="36px" fill="#1e1e1e" text-anchor="middle" style="white-space: pre;" direction="ltr" dominant-baseline="text-before-edge">sp</text></g><g stroke-linecap="round" transform="translate(208 113.15142145508747) rotate(0 258 27.5)"><path d="M13.75 0 C183.28 1.62, 353.6 2.01, 502.25 0 M13.75 0 C122.72 -1.28, 232.08 -1.11, 502.25 0 M502.25 0 C509.43 1.62, 516.94 4.74, 516 13.75 M502.25 0 C509.16 0.74, 516.57 6.15, 516 13.75 M516 13.75 C518.07 20.81, 518.01 24.86, 516 41.25 M516 13.75 C515.64 23.29, 515.73 31.5, 516 41.25 M516 41.25 C516.86 51, 509.86 54.81, 502.25 55 M516 41.25 C517.48 48.22, 511.45 57.13, 502.25 55 M502.25 55 C401.72 55.04, 301.27 56.49, 13.75 55 M502.25 55 C332.65 56.71, 162.84 56.98, 13.75 55 M13.75 55 C4.99 56.56, 0.9 48.49, 0 41.25 M13.75 55 C5.35 53.12, 1.36 51.11, 0 41.25 M0 41.25 C2.04 30.6, 1.77 22.44, 0 13.75 M0 41.25 C-0.42 35.38, -1.04 27.32, 0 13.75 M0 13.75 C1.93 3.52, 5.07 -0.72, 13.75 0 M0 13.75 C-1.12 5.69, 3.81 -0.64, 13.75 0" stroke="#1e1e1e" stroke-width="2" fill="none"></path></g><g stroke-linecap="round" transform="translate(210 175.46976060408224) rotate(0 258 87.84083042550262)"><path d="M32 0 C160.38 2.61, 287.28 1.22, 484 0 M32 0 C181.66 -1.27, 332.71 -1.01, 484 0 M484 0 C506.85 1.89, 516.03 10.97, 516 32 M484 0 C503.71 1.56, 515.61 12.67, 516 32 M516 32 C517.03 63.11, 516.27 98.63, 516 143.68 M516 32 C515.08 55.07, 516.43 77.85, 516 143.68 M516 143.68 C514.09 166.06, 506.88 176.64, 484 175.68 M516 143.68 C515.34 167.2, 507.04 174.39, 484 175.68 M484 175.68 C305.56 176.56, 124.69 176.44, 32 175.68 M484 175.68 C385.7 176, 286.68 176.78, 32 175.68 M32 175.68 C9.79 177.26, 0.73 163.84, 0 143.68 M32 175.68 C11.39 173.99, -0.77 166.78, 0 143.68 M0 143.68 C-0.34 121.31, 0.01 97, 0 32 M0 143.68 C-0.3 105.06, -0.29 65.09, 0 32 M0 32 C0.37 10.1, 11.74 0.98, 32 0 M0 32 C1.47 9.04, 12.58 0.61, 32 0" stroke="#1e1e1e" stroke-width="2" fill="none"></path></g><g transform="translate(376.19166564941406 240.81059102958486) rotate(0 91.80833435058594 22.5)"><text x="91.80833435058594" y="0" font-family="Virgil, Segoe UI Emoji" font-size="36px" fill="#1e1e1e" text-anchor="middle" style="white-space: pre;" direction="ltr" dominant-baseline="text-before-edge">my_struct</text></g><g stroke-linecap="round" transform="translate(211 359.1514214550875) rotate(0 258 27.5)"><path d="M13.75 0 C183.59 2.21, 353.46 1.18, 502.25 0 M13.75 0 C181.48 -1.61, 348.58 -1.94, 502.25 0 M502.25 0 C510.01 1.35, 515.66 6.33, 516 13.75 M502.25 0 C511.25 0.94, 516.99 5.25, 516 13.75 M516 13.75 C514.06 19.88, 517.83 24.08, 516 41.25 M516 13.75 C515.16 23.22, 516.89 32.12, 516 41.25 M516 41.25 C515.43 52.31, 512.9 53.87, 502.25 55 M516 41.25 C518.22 50.65, 511.89 56.79, 502.25 55 M502.25 55 C333.03 56.18, 165.44 56.14, 13.75 55 M502.25 55 C389.64 57.22, 277.55 56.65, 13.75 55 M13.75 55 C5.22 53.53, -0.67 51.95, 0 41.25 M13.75 55 C2.39 53.51, 2.22 49.2, 0 41.25 M0 41.25 C1.06 31.66, -0.46 22.07, 0 13.75 M0 41.25 C0.37 32.02, 0.72 23.85, 0 13.75 M0 13.75 C1.28 3.17, 6.25 0.53, 13.75 0 M0 13.75 C2.29 4.32, 2.37 0.01, 13.75 0" stroke="#1e1e1e" stroke-width="2" fill="none"></path></g><g stroke-linecap="round"><g transform="translate(757 365.6514214550875) rotate(0 -0.5 26.5)"><path d="M-1.18 0.51 C-1.21 9.41, -0.08 45.24, 0.1 54.17 M0.4 -0.26 C0.28 8.25, -0.14 43.89, -0.27 52.67" stroke="#1e1e1e" stroke-width="2" fill="none"></path></g></g><mask></mask><g stroke-linecap="round"><g transform="translate(775.6901143810264 363.87153226260074) rotate(0 -18.703938005694454 -0.14387644619765183)"><path d="M-0.53 0.18 C-6.91 0.15, -31.74 0.07, -37.86 0.04 M0.2 -0.2 C-6.05 -0.41, -30.57 -0.64, -36.86 -0.76" stroke="#1e1e1e" stroke-width="2" fill="none"></path></g></g><mask></mask><g stroke-linecap="round"><g transform="translate(780.2941606593515 421.4221107416603) rotate(0 -23.88349006880992 7.105427357601002e-15)"><path d="M0.13 -0.2 C-7.96 -0.1, -40.02 0.26, -48.04 0.26 M-0.46 -0.77 C-8.42 -0.82, -38.95 -0.76, -46.94 -0.57" stroke="#1e1e1e" stroke-width="2" fill="none"></path></g></g><mask></mask><g transform="translate(785.7614656148619 384.3019876226669) rotate(0 38.974998474121094 12.5)"><text x="0" y="0" font-family="Virgil, Segoe UI Emoji" font-size="20px" fill="#1e1e1e" text-anchor="start" style="white-space: pre;" direction="ltr" dominant-baseline="text-before-edge">8 bytes</text></g><g stroke-linecap="round"><g transform="translate(863.5321993543744 243.51410798812395) rotate(0 -73.09580271056802 51.51046499738027)"><path d="M-0.18 0.03 C-24.29 17.2, -121.14 86.27, -145.31 103.29 M-1.74 -1.01 C-25.87 15.77, -121.85 83.97, -145.79 101.32" stroke="#1e1e1e" stroke-width="2" fill="none"></path></g><g transform="translate(863.5321993543744 243.51410798812395) rotate(0 -73.09580271056802 51.51046499738027)"><path d="M-131.67 80.69 C-135.04 87.18, -138.07 92.47, -145.79 101.32 M-131.67 80.69 C-134.43 85.11, -138.32 90.79, -145.79 101.32" stroke="#1e1e1e" stroke-width="2" fill="none"></path></g><g transform="translate(863.5321993543744 243.51410798812395) rotate(0 -73.09580271056802 51.51046499738027)"><path d="M-121.71 94.59 C-127.54 97.67, -133.01 99.56, -145.79 101.32 M-121.71 94.59 C-126.65 95.91, -132.82 98.4, -145.79 101.32" stroke="#1e1e1e" stroke-width="2" fill="none"></path></g></g><mask></mask><g transform="translate(863.5321993543748 215.43767399056895) rotate(0 61.900001525878906 25)"><text x="0" y="0" font-family="Virgil, Segoe UI Emoji" font-size="20px" fill="#1e1e1e" text-anchor="start" style="white-space: pre;" direction="ltr" dominant-baseline="text-before-edge">a0 holds </text><text x="0" y="25" font-family="Virgil, Segoe UI Emoji" font-size="20px" fill="#1e1e1e" text-anchor="start" style="white-space: pre;" direction="ltr" dominant-baseline="text-before-edge">this address</text></g><g transform="translate(363.144825094109 10) rotate(0 93.20833587646479 12.5)"><text x="0" y="0" font-family="Virgil, Segoe UI Emoji" font-size="20px" fill="#1e1e1e" text-anchor="start" style="white-space: pre;" direction="ltr" dominant-baseline="text-before-edge">main's stack frame</text></g><g stroke-linecap="round"><g transform="translate(723.2275042186529 288.6470868429714) rotate(0 -257.5523249869013 0.9811517142358639)"><path d="M-0.29 -0.54 C-86.2 -0.08, -429.68 2.62, -515.34 2.96 M1.76 1.79 C-84.34 1.92, -430.35 1.23, -516.4 1.35" stroke="#1e1e1e" stroke-width="1" fill="none"></path></g></g><mask></mask><g transform="translate(227.74588852956663 321.56278998428166) rotate(0 32.483333587646484 10)"><text x="0" y="0" font-family="Virgil, Segoe UI Emoji" font-size="16px" fill="#1971c2" text-anchor="start" style="white-space: pre;" direction="ltr" dominant-baseline="text-before-edge">int area</text></g><g stroke-linecap="round"><g transform="translate(210.08515767332187 231.74028741729416) rotate(0 255.099445701312 -0.4905758571179035)"><path d="M0.95 -0.15 C85.82 -0.4, 424.48 -0.03, 509.35 -0.31 M-0.01 -1.27 C85.22 -1.36, 426.71 -2.13, 511.62 -2.07" stroke="#1e1e1e" stroke-width="1" fill="none"></path></g></g><mask></mask><g transform="translate(216.847892655108 260.98635598672666) rotate(0 61.141666412353516 10)"><text x="0" y="0" font-family="Virgil, Segoe UI Emoji" font-size="16px" fill="#1971c2" text-anchor="start" style="white-space: pre;" direction="ltr" dominant-baseline="text-before-edge">uint64_t count</text></g><g transform="translate(220.56756640018284 203.0984048468137) rotate(0 24.758333206176758 10)"><text x="0" y="0" font-family="Virgil, Segoe UI Emoji" font-size="16px" fill="#1971c2" text-anchor="start" style="white-space: pre;" direction="ltr" dominant-baseline="text-before-edge">char c</text></g></svg>