<svg version="1.1" xmlns="http://www.w3.org/2000/svg" viewBox="0 0 740 160" width="740" height="160" filter="invert(93%) hue-rotate(180deg)">
  <!-- svg-source:excalidraw -->
  
  <defs>
    <style class="style-fonts">
      @font-face {
        font-family: "Virgil";
        src: url("https://excalidraw.com/Virgil.woff2");
      }
      @font-face {
        font-family: "Cascadia";
        src: url("https://excalidraw.com/Cascadia.woff2");
      }
      @font-face {
        font-family: "Assistant";
        src: url("https://excalidraw.com/Assistant-Regular.woff2");
      }
    </style>
    
  </defs>
  <g stroke-linecap="round" transform="translate(90 10) rotate(0 20 20)"><path d="M10 0 C16.65 1.3, 26.12 -0.77, 30 0 M10 0 C15.57 0.78, 21.97 0.23, 30 0 M30 0 C35.99 0.07, 41.15 3.07, 40 10 M30 0 C36.69 1.5, 38.9 1.9, 40 10 M40 10 C41.41 16.13, 40.39 22.83, 40 30 M40 10 C39.45 14.61, 40.44 20.02, 40 30 M40 30 C39.69 35.81, 38 40.08, 30 40 M40 30 C40.26 36.28, 36.01 41.99, 30 40 M30 40 C25.22 41.32, 21.26 41.18, 10 40 M30 40 C22.18 40.13, 15.96 40.63, 10 40 M10 40 C2.92 41.64, -0.27 37.9, 0 30 M10 40 C3.87 38.85, -0.06 36.12, 0 30 M0 30 C1.62 26.4, 0.28 22.15, 0 10 M0 30 C0.63 25.19, -1.06 18.61, 0 10 M0 10 C1.45 1.73, 4.65 -1.21, 10 0 M0 10 C-1.55 2.55, 5.42 0.15, 10 0" stroke="#1e1e1e" stroke-width="2" fill="none"></path></g><g stroke-linecap="round" transform="translate(130 10) rotate(0 20 20)"><path d="M10 0 C16.38 -0.02, 19.25 -1.09, 30 0 M10 0 C15.66 -0.4, 21.32 0.54, 30 0 M30 0 C37.63 0, 39.76 2.82, 40 10 M30 0 C37.47 1.33, 40.48 4.93, 40 10 M40 10 C41.82 14.86, 38.85 19.9, 40 30 M40 10 C39.51 16.55, 40.68 22.7, 40 30 M40 30 C39.78 35.39, 34.8 41.44, 30 40 M40 30 C39.43 36.36, 35.37 39.37, 30 40 M30 40 C25.3 41.23, 20.49 41.48, 10 40 M30 40 C23.01 40.89, 17.47 39.78, 10 40 M10 40 C3.62 39.7, -1.07 38.09, 0 30 M10 40 C1.89 38.59, 0.18 38.9, 0 30 M0 30 C-0.45 24.78, 0.83 16.76, 0 10 M0 30 C-0.77 22.65, -0.37 14.48, 0 10 M0 10 C0.42 4.4, 1.35 0.96, 10 0 M0 10 C-1.63 1.95, 2.34 0.02, 10 0" stroke="#2f9e44" stroke-width="2" fill="none"></path></g><g transform="translate(144.00833320617676 17.5) rotate(0 5.991666793823242 12.5)"><text x="5.991666793823242" y="17.52" font-family="Virgil, Segoe UI Emoji" font-size="20px" fill="#2f9e44" text-anchor="middle" style="white-space: pre;" direction="ltr" dominant-baseline="alphabetic">L</text></g><g stroke-linecap="round" transform="translate(170 10) rotate(0 20 20)"><path d="M10 0 C16.22 2.08, 23.69 -0.87, 30 0 M10 0 C15.98 -0.14, 20.88 -0.39, 30 0 M30 0 C37.36 1.15, 40.42 4.72, 40 10 M30 0 C34.43 1.74, 39.25 5.26, 40 10 M40 10 C39.87 17.46, 41.28 22.5, 40 30 M40 10 C40.02 16.45, 39.19 24.9, 40 30 M40 30 C39.51 36.4, 35.54 39.45, 30 40 M40 30 C38.91 36.71, 35.39 40.41, 30 40 M30 40 C22.81 39.38, 14.77 38.46, 10 40 M30 40 C22.26 39.81, 13.7 40.68, 10 40 M10 40 C2.08 38.77, 0.16 38.61, 0 30 M10 40 C4.29 39.26, -0.23 36.08, 0 30 M0 30 C1.33 22.5, 1.29 13.25, 0 10 M0 30 C0.28 24.42, -0.92 18.26, 0 10 M0 10 C-1.41 2.13, 2.47 0.02, 10 0 M0 10 C-0.82 4.37, 4.96 -1.85, 10 0" stroke="#1e1e1e" stroke-width="2" fill="none"></path></g><g stroke-linecap="round" transform="translate(210 10) rotate(0 20 20)"><path d="M10 0 C17.48 -1.84, 27.34 1.06, 30 0 M10 0 C16.35 0.63, 22.22 0.74, 30 0 M30 0 C34.72 1.51, 39.35 5.01, 40 10 M30 0 C37.59 -1.49, 42.05 3.34, 40 10 M40 10 C41.23 17.89, 41.53 23.09, 40 30 M40 10 C39.57 14.59, 39.25 19.17, 40 30 M40 30 C39.05 36.7, 35.56 40.35, 30 40 M40 30 C41.54 37.35, 38.5 40.16, 30 40 M30 40 C26.66 39.34, 19.22 40.11, 10 40 M30 40 C23.68 39.53, 18.69 41.11, 10 40 M10 40 C4.16 39.35, -0.2 36.15, 0 30 M10 40 C5.19 40.87, 0.48 38.29, 0 30 M0 30 C-0.02 23.17, -1.54 18.19, 0 10 M0 30 C-0.51 22.33, -0.23 15.88, 0 10 M0 10 C-0.71 4.23, 4.75 -1.61, 10 0 M0 10 C-1.42 3.37, 2.83 2.04, 10 0" stroke="#2f9e44" stroke-width="2" fill="none"></path></g><g transform="translate(223.44166660308838 17.5) rotate(0 6.558333396911621 12.5)"><text x="6.558333396911621" y="17.52" font-family="Virgil, Segoe UI Emoji" font-size="20px" fill="#2f9e44" text-anchor="middle" style="white-space: pre;" direction="ltr" dominant-baseline="alphabetic">A</text></g><g stroke-linecap="round" transform="translate(250 10) rotate(0 20 20)"><path d="M10 0 C14.07 -0.34, 17.61 0.6, 30 0 M10 0 C16.18 0.62, 23.98 0.7, 30 0 M30 0 C37.47 -1.3, 41.78 3.33, 40 10 M30 0 C37.42 1.62, 38.72 4.59, 40 10 M40 10 C38.86 15.37, 41.58 23.98, 40 30 M40 10 C39.41 15.75, 39.33 21.65, 40 30 M40 30 C41.34 37.26, 38.26 40.14, 30 40 M40 30 C39.11 36.03, 34.71 42.16, 30 40 M30 40 C24.19 38.96, 20.41 38.78, 10 40 M30 40 C25.65 39.87, 20.36 39.94, 10 40 M10 40 C4.95 40.76, 0.42 38.08, 0 30 M10 40 C3.46 41.57, -1.75 36.8, 0 30 M0 30 C1.2 22.73, 1.1 18.02, 0 10 M0 30 C-0.27 25.65, 0.8 19.61, 0 10 M0 10 C-1.24 3.36, 2.89 1.77, 10 0 M0 10 C-0.95 5.52, 3.57 -1.27, 10 0" stroke="#1e1e1e" stroke-width="2" fill="none"></path></g><g stroke-linecap="round" transform="translate(290 10) rotate(0 20 20)"><path d="M10 0 C15.52 1.57, 24.29 -0.14, 30 0 M10 0 C14.89 -0.46, 19.91 0.76, 30 0 M30 0 C37.26 1.59, 40.14 2.56, 40 10 M30 0 C36.03 -1.96, 42.16 2.77, 40 10 M40 10 C38.96 17.1, 38.78 20.11, 40 30 M40 10 C39.87 16.06, 39.94 23.12, 40 30 M40 30 C40.76 37.08, 38.08 40.11, 30 40 M40 30 C41.57 34.92, 36.8 39.17, 30 40 M30 40 C23.42 41.07, 19.39 38.9, 10 40 M30 40 C25.31 40.64, 18.92 39.31, 10 40 M10 40 C3.36 39.56, 1.77 35.84, 0 30 M10 40 C5.52 40.24, -1.27 37.4, 0 30 M0 30 C1 20.77, -0.93 16.12, 0 10 M0 30 C-1 23.91, 0.09 15.55, 0 10 M0 10 C-0.89 2.35, 2.28 1.07, 10 0 M0 10 C-0.67 2.41, 4.33 0.81, 10 0" stroke="#2f9e44" stroke-width="2" fill="none"></path></g><g transform="translate(304.25833320617676 17.5) rotate(0 5.741666793823242 12.5)"><text x="5.741666793823242" y="17.52" font-family="Virgil, Segoe UI Emoji" font-size="20px" fill="#2f9e44" text-anchor="middle" style="white-space: pre;" direction="ltr" dominant-baseline="alphabetic">F</text></g><g stroke-linecap="round" transform="translate(330 10) rotate(0 20 20)"><path d="M10 0 C14.23 -0.41, 18.31 -0.69, 30 0 M10 0 C15.23 0.78, 20.4 0.91, 30 0 M30 0 C36.81 -0.78, 39.44 1.63, 40 10 M30 0 C38.83 -0.56, 39.62 3.66, 40 10 M40 10 C38.64 14.47, 40.05 23.33, 40 30 M40 10 C39.68 17.64, 40.32 23.87, 40 30 M40 30 C41.41 36.78, 38.03 38.48, 30 40 M40 30 C40.13 35.84, 35.05 40.48, 30 40 M30 40 C21.52 38.89, 15.01 40.11, 10 40 M30 40 C23.91 39.52, 19.43 39.92, 10 40 M10 40 C5.1 39.17, 1.9 36.87, 0 30 M10 40 C2.07 40.73, 1.5 38.89, 0 30 M0 30 C-0.86 23.13, 0.72 15.93, 0 10 M0 30 C0.37 24.59, -0.27 20.22, 0 10 M0 10 C-1.05 4.4, 2.75 -0.8, 10 0 M0 10 C0.99 4.15, 1.37 2.05, 10 0" stroke="#2f9e44" stroke-width="2" fill="none"></path></g><g transform="translate(343.5583333969116 17.5) rotate(0 6.441666603088379 12.5)"><text x="6.441666603088379" y="17.52" font-family="Virgil, Segoe UI Emoji" font-size="20px" fill="#2f9e44" text-anchor="middle" style="white-space: pre;" direction="ltr" dominant-baseline="alphabetic">C</text></g><g stroke-linecap="round" transform="translate(370 10) rotate(0 20 20)"><path d="M10 0 C16.31 -0.52, 23.94 0.06, 30 0 M10 0 C15.19 0.66, 19.85 -0.52, 30 0 M30 0 C36.11 -1.7, 41.88 2.84, 40 10 M30 0 C36.28 0.33, 39.65 2.1, 40 10 M40 10 C40.03 19.37, 40.7 24.21, 40 30 M40 10 C40.33 16.01, 40.65 21.66, 40 30 M40 30 C41.36 35.15, 36.78 39.28, 30 40 M40 30 C38.39 37.14, 37.89 37.72, 30 40 M30 40 C22.18 39.9, 15.37 40.78, 10 40 M30 40 C22.6 39.66, 16.05 39.46, 10 40 M10 40 C5.24 40.21, -1.1 37.3, 0 30 M10 40 C4.83 42.22, 1.83 38.04, 0 30 M0 30 C0.91 27.04, -1.28 20.09, 0 10 M0 30 C-0.49 22.01, -0.57 15.55, 0 10 M0 10 C-0.58 2.53, 4.2 0.71, 10 0 M0 10 C-1.96 5.38, 2.53 -0.47, 10 0" stroke="#1e1e1e" stroke-width="2" fill="none"></path></g><g stroke-linecap="round" transform="translate(410 10) rotate(0 20 20)"><path d="M10 0 C14.79 0.09, 20.36 0.41, 30 0 M10 0 C17.41 -0.55, 24.39 -1.01, 30 0 M30 0 C38.55 -0.49, 39.67 3.62, 40 10 M30 0 C36.32 -1.23, 41.64 1.89, 40 10 M40 10 C40.85 14.12, 39.82 19.03, 40 30 M40 10 C40.78 17.67, 40.76 24.47, 40 30 M40 30 C40.11 35.95, 35.26 40.42, 30 40 M40 30 C41.22 34.38, 37.77 38.37, 30 40 M30 40 C24.5 40.9, 21.83 38.39, 10 40 M30 40 C26.12 39.54, 21.43 40.06, 10 40 M10 40 C2.23 40.64, 1.3 38.6, 0 30 M10 40 C5.16 41.38, -2.22 35.82, 0 30 M0 30 C-1.44 21.51, 1.41 16.95, 0 10 M0 30 C-0.44 26.07, -0.2 20.66, 0 10 M0 10 C0.86 4.04, 1.63 1.78, 10 0 M0 10 C-0.81 2.86, 5.53 0.5, 10 0" stroke="#1e1e1e" stroke-width="2" fill="none"></path></g><g stroke-linecap="round" transform="translate(450 10) rotate(0 20 20)"><path d="M10 0 C14.35 0.35, 22.25 0.59, 30 0 M10 0 C17.31 -0.77, 26.12 -0.17, 30 0 M30 0 C36.33 0.28, 39.7 2.26, 40 10 M30 0 C38.31 -1.44, 38.59 3.51, 40 10 M40 10 C39.89 17.43, 41.7 26.64, 40 30 M40 10 C40.82 15.65, 40.2 22.47, 40 30 M40 30 C38.6 37.08, 37.73 38.01, 30 40 M40 30 C41.1 35.04, 35.28 39.01, 30 40 M30 40 C25.4 38.48, 16.72 40.12, 10 40 M30 40 C25.39 40.02, 18.33 40.23, 10 40 M10 40 C4.64 41.93, 1.59 37.86, 0 30 M10 40 C1.11 39.15, 0.83 37.63, 0 30 M0 30 C1.63 23.28, -1.4 14.89, 0 10 M0 30 C-0.18 24.59, 0.54 20.33, 0 10 M0 10 C-1.71 5.11, 2.63 -0.41, 10 0 M0 10 C2.2 3.84, 3.88 -0.16, 10 0" stroke="#2f9e44" stroke-width="2" fill="none"></path></g><g transform="translate(462.19999980926514 17.5) rotate(0 7.800000190734863 12.5)"><text x="7.800000190734863" y="17.52" font-family="Virgil, Segoe UI Emoji" font-size="20px" fill="#2f9e44" text-anchor="middle" style="white-space: pre;" direction="ltr" dominant-baseline="alphabetic">D</text></g><g stroke-linecap="round" transform="translate(490 10) rotate(0 20 20)"><path d="M10 0 C15.6 -0.84, 19.34 -0.71, 30 0 M10 0 C18.32 0.01, 25.91 -0.8, 30 0 M30 0 C36.78 -0.72, 38.6 3.75, 40 10 M30 0 C37.89 -2.28, 41.1 1.71, 40 10 M40 10 C39.2 15.69, 41.33 17.98, 40 30 M40 10 C40.89 14.35, 40.95 19.63, 40 30 M40 30 C38.9 37.3, 37.97 41.93, 30 40 M40 30 C41.83 38.04, 34.45 39.15, 30 40 M30 40 C21.92 38.34, 18.05 40.5, 10 40 M30 40 C25.01 40.43, 20.78 39.5, 10 40 M10 40 C4.2 40.71, -1.71 38.45, 0 30 M10 40 C2.53 39.53, 2.2 37.17, 0 30 M0 30 C-1.21 23.19, -0.39 16.49, 0 10 M0 30 C0.4 24.97, -0.86 22.03, 0 10 M0 10 C-1.25 4.4, 1.42 -0.55, 10 0 M0 10 C-2.2 4.48, 2.64 0.68, 10 0" stroke="#1e1e1e" stroke-width="2" fill="none"></path></g><g stroke-linecap="round" transform="translate(530 10) rotate(0 20 20)"><path d="M10 0 C17.74 -0.45, 27.5 0.83, 30 0 M10 0 C17.1 -0.77, 22.89 -0.37, 30 0 M30 0 C35.26 0.42, 41.06 1.35, 40 10 M30 0 C37.77 -1.63, 38.61 2.34, 40 10 M40 10 C41.35 14.41, 38.69 22.06, 40 30 M40 10 C41.13 15.66, 39.63 21.44, 40 30 M40 30 C41.3 38.6, 38.26 41.2, 30 40 M40 30 C37.78 35.82, 37.5 40.97, 30 40 M30 40 C24.38 40.22, 14.25 38.93, 10 40 M30 40 C24.7 39.7, 20.41 40.46, 10 40 M10 40 C1.63 41.78, -0.7 36.26, 0 30 M10 40 C5.53 40.5, 0.54 36.51, 0 30 M0 30 C-0.28 23.92, -1.53 20.17, 0 10 M0 30 C-0.84 23.92, -0.73 16.9, 0 10 M0 10 C-1.92 2.78, 1.42 1, 10 0 M0 10 C-0.7 4.01, 2.86 -0.32, 10 0" stroke="#2f9e44" stroke-width="2" fill="none"></path></g><g transform="translate(543.3916668891907 17.5) rotate(0 6.608333110809326 12.5)"><text x="6.608333110809326" y="17.52" font-family="Virgil, Segoe UI Emoji" font-size="20px" fill="#2f9e44" text-anchor="middle" style="white-space: pre;" direction="ltr" dominant-baseline="alphabetic">P</text></g><g stroke-linecap="round" transform="translate(570 10) rotate(0 20 20)"><path d="M10 0 C16.97 0.81, 21.12 1.46, 30 0 M10 0 C16.17 -0.21, 21.52 0.36, 30 0 M30 0 C37.73 -1.99, 40.96 1.92, 40 10 M30 0 C35.28 -0.99, 40.02 2.52, 40 10 M40 10 C38.9 16.93, 39.7 25.57, 40 30 M40 10 C39.64 15.49, 40.84 21.31, 40 30 M40 30 C41.59 37.86, 34.74 39.26, 30 40 M40 30 C40.83 37.63, 37.94 38.44, 30 40 M30 40 C24.24 39.15, 20.55 38.99, 10 40 M30 40 C23.36 40.27, 15.01 40.81, 10 40 M10 40 C2.63 39.59, 1.91 37.1, 0 30 M10 40 C3.88 39.84, -0.55 35.26, 0 30 M0 30 C-1.61 25.55, 0.86 19.71, 0 10 M0 30 C-0.48 25.89, -0.81 20.44, 0 10 M0 10 C-1.92 4.33, 2.73 0.59, 10 0 M0 10 C-0.47 3.02, 2.26 -1.55, 10 0" stroke="#2f9e44" stroke-width="2" fill="none"></path></g><g transform="translate(582.7333331108093 17.5) rotate(0 7.266666889190674 12.5)"><text x="7.266666889190674" y="17.52" font-family="Virgil, Segoe UI Emoji" font-size="20px" fill="#2f9e44" text-anchor="middle" style="white-space: pre;" direction="ltr" dominant-baseline="alphabetic">B</text></g><g stroke-linecap="round" transform="translate(610 10) rotate(0 20 20)"><path d="M10 0 C15.9 1.33, 21.09 1.29, 30 0 M10 0 C13.78 0.28, 19.49 -0.92, 30 0 M30 0 C37.63 -1.41, 38.8 2.47, 40 10 M30 0 C36.69 -0.82, 41.03 4.96, 40 10 M40 10 C39.44 16.16, 39.05 20.69, 40 30 M40 10 C40.54 17.17, 40.69 23.01, 40 30 M40 30 C38.07 35.93, 37.39 40.84, 30 40 M40 30 C41.28 35.11, 34.63 41.72, 30 40 M30 40 C22.62 38.86, 18.28 39.33, 10 40 M30 40 C23.95 40.96, 19.26 39.87, 10 40 M10 40 C5.24 40.44, 0.47 36.53, 0 30 M10 40 C2.79 38.6, -0.39 36.2, 0 30 M0 30 C0.98 25.6, -1.19 17.65, 0 10 M0 30 C-0.83 22.26, -0.83 15.56, 0 10 M0 10 C-0.61 3.92, 2.92 -0.27, 10 0 M0 10 C-1.08 1.78, 2.07 0.56, 10 0" stroke="#2f9e44" stroke-width="2" fill="none"></path></g><g transform="translate(622.9499998092651 17.5) rotate(0 7.050000190734863 12.5)"><text x="7.050000190734863" y="17.52" font-family="Virgil, Segoe UI Emoji" font-size="20px" fill="#2f9e44" text-anchor="middle" style="white-space: pre;" direction="ltr" dominant-baseline="alphabetic">Q</text></g><g stroke-linecap="round" transform="translate(650 10) rotate(0 20 20)"><path d="M10 0 C16.87 1.22, 22 -0.03, 30 0 M10 0 C15.81 -1.03, 21.05 -0.75, 30 0 M30 0 C35.46 -0.86, 40.02 2.62, 40 10 M30 0 C37.7 1.63, 38.15 1.91, 40 10 M40 10 C39.13 17.93, 40.16 20.95, 40 30 M40 10 C40.93 17.23, 39.17 22.9, 40 30 M40 30 C40.72 37.51, 37.78 38.64, 30 40 M40 30 C37.96 38.38, 37.12 38.24, 30 40 M30 40 C25.96 39.32, 18.98 40.76, 10 40 M30 40 C22.94 39.97, 17.54 40.4, 10 40 M10 40 C3.81 39.86, -0.48 35.45, 0 30 M10 40 C2.95 39.54, -0.64 34.77, 0 30 M0 30 C-1.44 21.32, 1.39 14.32, 0 10 M0 30 C-0.77 23.43, -0.11 16.16, 0 10 M0 10 C-0.41 3.06, 2.4 -1.35, 10 0 M0 10 C-1.27 3.89, 1.89 -0.76, 10 0" stroke="#1e1e1e" stroke-width="2" fill="none"></path></g><g stroke-linecap="round" transform="translate(690 10) rotate(0 20 20)"><path d="M10 0 C18.19 0.25, 22.64 0.14, 30 0 M10 0 C16.4 0.53, 21.86 -0.34, 30 0 M30 0 C34.87 0.03, 41.38 2.33, 40 10 M30 0 C36.38 -0.34, 39.28 5.48, 40 10 M40 10 C39.41 13.32, 37.97 21.61, 40 30 M40 10 C39.99 16.51, 40.67 21.33, 40 30 M40 30 C38.55 37.31, 36.19 40.48, 30 40 M40 30 C41.98 34.99, 37.83 40.6, 30 40 M30 40 C24.57 40.5, 18.86 40.35, 10 40 M30 40 C23.77 40.11, 16.92 39.44, 10 40 M10 40 C4.84 38.87, -1.92 37.71, 0 30 M10 40 C5.23 37.8, 1.22 37.32, 0 30 M0 30 C0.46 22.85, 0.81 15.97, 0 10 M0 30 C0.81 24.45, 1 17.23, 0 10 M0 10 C-1.94 1.41, 4.75 -0.06, 10 0 M0 10 C-0.32 4.62, 5.51 -0.12, 10 0" stroke="#1e1e1e" stroke-width="2" fill="none"></path></g><g stroke-linecap="round" transform="translate(50 10) rotate(0 20 20)"><path d="M10 0 C16.05 -0.38, 24.38 1.44, 30 0 M10 0 C16.49 0.05, 25.47 -0.46, 30 0 M30 0 C36.42 -0.29, 39.38 5.2, 40 10 M30 0 C35.87 -0.44, 39.67 2.7, 40 10 M40 10 C39.83 14.97, 39.99 17.81, 40 30 M40 10 C39.39 17.28, 39.88 24.17, 40 30 M40 30 C41.72 35.21, 37.68 40.52, 30 40 M40 30 C39.6 35.73, 34.84 40.26, 30 40 M30 40 C23.57 39.01, 16.84 40.04, 10 40 M30 40 C24.57 39.32, 16.67 40.4, 10 40 M10 40 C4.98 38.09, 1.06 37.23, 0 30 M10 40 C4.38 38.52, 1.91 37.05, 0 30 M0 30 C0.24 22.82, -1.08 19.81, 0 10 M0 30 C-1.14 21.51, 0.54 14.91, 0 10 M0 10 C-0.28 4.45, 5.23 -0.11, 10 0 M0 10 C2.28 2.02, 2.52 -1.37, 10 0" stroke="#1e1e1e" stroke-width="2" fill="none"></path></g><g stroke-linecap="round" transform="translate(10 10) rotate(0 20 20)"><path d="M10 0 C17.03 0.9, 20.93 -1.94, 30 0 M10 0 C15.9 -0.05, 21.74 1.03, 30 0 M30 0 C35.97 -0.38, 39.71 2.78, 40 10 M30 0 C34.38 -2.29, 41.15 3.37, 40 10 M40 10 C40.98 18.09, 38.55 22.46, 40 30 M40 10 C40.81 15.91, 40.46 23.55, 40 30 M40 30 C39.66 35.85, 35.08 40.23, 30 40 M40 30 C40.75 36.86, 37.25 40.25, 30 40 M30 40 C25.23 38.72, 18.94 41.51, 10 40 M30 40 C25.95 39.15, 20.79 40.39, 10 40 M10 40 C4.24 38.71, 1.66 37, 0 30 M10 40 C3.06 40.78, -0.24 37.02, 0 30 M0 30 C1.63 27.13, -0.2 18.89, 0 10 M0 30 C-0.28 26.48, 0.81 21.79, 0 10 M0 10 C1.99 2.2, 2.62 -1.19, 10 0 M0 10 C-1.76 4.01, 5.27 -1.15, 10 0" stroke="#2f9e44" stroke-width="2" fill="none"></path></g><g transform="translate(22.03333330154419 17.5) rotate(0 7.9666666984558105 12.5)"><text x="7.9666666984558105" y="17.52" font-family="Virgil, Segoe UI Emoji" font-size="20px" fill="#2f9e44" text-anchor="middle" style="white-space: pre;" direction="ltr" dominant-baseline="alphabetic">Z</text></g><g stroke-linecap="round" transform="translate(450 110) rotate(0 20 20)"><path d="M10 0 C13.47 0.54, 19.59 0.92, 30 0 M10 0 C18.57 0.04, 24.87 -0.62, 30 0 M30 0 C35.36 0.28, 38.56 1.5, 40 10 M30 0 C37.37 2.23, 37.8 3.59, 40 10 M40 10 C40.09 16.49, 38.08 21.96, 40 30 M40 10 C39.32 14.08, 40.76 19.19, 40 30 M40 30 C39.24 37.39, 34.83 39.43, 30 40 M40 30 C40.79 34.92, 37.96 41.44, 30 40 M30 40 C21.96 40.04, 14.73 39.78, 10 40 M30 40 C26.41 39.3, 20.53 40.34, 10 40 M10 40 C2.68 38.73, -0.75 35.38, 0 30 M10 40 C2.97 42.22, -0.94 38.21, 0 30 M0 30 C0.29 22.87, -1.02 16.05, 0 10 M0 30 C-0.42 24.95, 0.32 18.8, 0 10 M0 10 C1.71 3.68, 2.51 0.71, 10 0 M0 10 C0.01 2.43, 1.12 1.51, 10 0" stroke="#1e1e1e" stroke-width="2" fill="none"></path></g><g stroke-linecap="round" transform="translate(210 110) rotate(0 20 20)"><path d="M10 0 C18.33 1.01, 27.2 -1.87, 30 0 M10 0 C13.63 -0.76, 18.24 0.16, 30 0 M30 0 C35.23 -1.83, 40.61 5.27, 40 10 M30 0 C34.46 0.25, 38.83 1.45, 40 10 M40 10 C38.27 16.17, 39.01 18.19, 40 30 M40 10 C40.65 16.55, 39.48 25.02, 40 30 M40 30 C38.17 36.1, 37.35 38.48, 30 40 M40 30 C41.29 38.11, 38.89 40.5, 30 40 M30 40 C22.78 39.58, 12.79 41.22, 10 40 M30 40 C25.31 40.43, 21.48 39.27, 10 40 M10 40 C2.59 38.72, -0.32 38.6, 0 30 M10 40 C2.39 41.55, 2.05 36.53, 0 30 M0 30 C-1.06 24.47, -0.09 14.99, 0 10 M0 30 C0.34 24.05, 0.95 16.92, 0 10 M0 10 C-0.83 4.04, 3.34 -0.79, 10 0 M0 10 C-2.21 4.85, 1.19 -1.1, 10 0" stroke="#2f9e44" stroke-width="2" fill="none"></path></g><g transform="translate(224.00833320617676 117.5) rotate(0 5.991666793823242 12.5)"><text x="5.991666793823242" y="17.52" font-family="Virgil, Segoe UI Emoji" font-size="20px" fill="#2f9e44" text-anchor="middle" style="white-space: pre;" direction="ltr" dominant-baseline="alphabetic">L</text></g><g stroke-linecap="round" transform="translate(530 110) rotate(0 20 20)"><path d="M10 0 C15.53 1.64, 23.94 -1.45, 30 0 M10 0 C13.72 -0.94, 19.19 0.94, 30 0 M30 0 C34.75 0.22, 38.98 1.69, 40 10 M30 0 C34.56 0.29, 41.74 1.31, 40 10 M40 10 C41.23 16.66, 38.09 27.55, 40 30 M40 10 C39.01 14.15, 40.27 18.11, 40 30 M40 30 C41.12 37.92, 38.6 40.43, 30 40 M40 30 C42.1 36.55, 36.5 40.7, 30 40 M30 40 C22.5 41.83, 17.8 38.93, 10 40 M30 40 C22.56 39.23, 15.72 40.84, 10 40 M10 40 C2.51 41.34, 1.78 36.55, 0 30 M10 40 C4.64 40.32, 0.75 35.48, 0 30 M0 30 C0.63 21.4, 1.79 15.28, 0 10 M0 30 C-0.58 23, -0.17 14.9, 0 10 M0 10 C-1.92 4.65, 1.47 -0.95, 10 0 M0 10 C-0.11 4.33, 1.33 1.8, 10 0" stroke="#1e1e1e" stroke-width="2" fill="none"></path></g><g stroke-linecap="round" transform="translate(10 110) rotate(0 20 20)"><path d="M10 0 C13.97 -1.78, 16.85 -1.46, 30 0 M10 0 C16.58 1.15, 21.6 0.29, 30 0 M30 0 C35.65 -1.64, 38.17 3.59, 40 10 M30 0 C38.41 -2.02, 42.29 2.17, 40 10 M40 10 C38.33 17.4, 38.57 20.93, 40 30 M40 10 C40.16 15.96, 40.38 24.07, 40 30 M40 30 C41.94 37.1, 38.49 39.9, 30 40 M40 30 C39.83 37.36, 36.2 38.2, 30 40 M30 40 C21.75 38.98, 16.6 39.52, 10 40 M30 40 C25.11 40.84, 20.12 40.54, 10 40 M10 40 C5.11 39.88, 1.13 36.95, 0 30 M10 40 C4.08 38.82, 1.84 36.6, 0 30 M0 30 C1.72 25.23, 1.29 21.19, 0 10 M0 30 C0.09 23.26, -0.88 17.97, 0 10 M0 10 C-1.87 2.38, 3.24 0.87, 10 0 M0 10 C-2 5.13, 2.53 0.12, 10 0" stroke="#2f9e44" stroke-width="2" fill="none"></path></g><g transform="translate(23.44166660308838 117.5) rotate(0 6.558333396911621 12.5)"><text x="6.558333396911621" y="17.52" font-family="Virgil, Segoe UI Emoji" font-size="20px" fill="#2f9e44" text-anchor="middle" style="white-space: pre;" direction="ltr" dominant-baseline="alphabetic">A</text></g><g stroke-linecap="round" transform="translate(570 110) rotate(0 20 20)"><path d="M10 0 C14.64 -1.31, 16.9 0.74, 30 0 M10 0 C17.43 -0.84, 24.96 0.1, 30 0 M30 0 C38.18 -1.76, 42 2.32, 40 10 M30 0 C36.49 1.53, 38.47 1.26, 40 10 M40 10 C40.57 15.72, 39.27 25.8, 40 30 M40 10 C41.08 14.7, 41.02 18.91, 40 30 M40 30 C39.85 37.27, 36.26 38.44, 30 40 M40 30 C41.42 34.48, 38.62 38.83, 30 40 M30 40 C23.93 39.19, 19.1 39.62, 10 40 M30 40 C22.96 40.08, 14.71 40.28, 10 40 M10 40 C3.99 38.97, 1.6 36.61, 0 30 M10 40 C2.48 40.72, -1.14 38.72, 0 30 M0 30 C0.21 22.68, 0.57 17.03, 0 10 M0 30 C-0.74 24.31, 0.15 20.01, 0 10 M0 10 C-1.74 4.9, 2.64 0.11, 10 0 M0 10 C0.58 5.11, 2 -1.33, 10 0" stroke="#1e1e1e" stroke-width="2" fill="none"></path></g><g stroke-linecap="round" transform="translate(170 110) rotate(0 20 20)"><path d="M10 0 C12.86 0.75, 21.31 -1.77, 30 0 M10 0 C15.31 0.29, 23.2 -0.71, 30 0 M30 0 C38.66 -1.02, 39.85 4.66, 40 10 M30 0 C35.13 -2.08, 41.79 1.53, 40 10 M40 10 C39.5 15.92, 38.55 21.6, 40 30 M40 10 C41.11 17.2, 40.12 24.81, 40 30 M40 30 C39.59 35.1, 37.9 38.1, 30 40 M40 30 C41.96 35.5, 35.3 41.22, 30 40 M30 40 C23.37 39.61, 21.23 39.11, 10 40 M30 40 C23.22 40.13, 15.64 39.47, 10 40 M10 40 C4.94 39.94, -0.74 37.29, 0 30 M10 40 C2.19 42.05, 0.56 38.22, 0 30 M0 30 C0.67 22.3, -0.82 12.66, 0 10 M0 30 C0.14 23.12, -0.68 16.15, 0 10 M0 10 C-0.7 3.44, 3.84 1.54, 10 0 M0 10 C-1.33 2.01, 2.08 -1.35, 10 0" stroke="#2f9e44" stroke-width="2" fill="none"></path></g><g transform="translate(184.25833320617676 117.5) rotate(0 5.741666793823242 12.5)"><text x="5.741666793823242" y="17.52" font-family="Virgil, Segoe UI Emoji" font-size="20px" fill="#2f9e44" text-anchor="middle" style="white-space: pre;" direction="ltr" dominant-baseline="alphabetic">F</text></g><g stroke-linecap="round" transform="translate(90 110) rotate(0 20 20)"><path d="M10 0 C16.83 -0.83, 21.58 -1.64, 30 0 M10 0 C17.25 -0.33, 22.43 0.84, 30 0 M30 0 C35.33 -1.81, 41.56 1.77, 40 10 M30 0 C35.79 0.83, 37.89 2.68, 40 10 M40 10 C41.1 18.62, 40.28 25.19, 40 30 M40 10 C39.78 15.12, 40.6 20.85, 40 30 M40 30 C41.7 35.65, 35.47 41.06, 30 40 M40 30 C39.25 35.21, 35.81 38.53, 30 40 M30 40 C25.66 41.7, 18.51 41.05, 10 40 M30 40 C24.52 39.87, 17.06 40.21, 10 40 M10 40 C2.34 41.78, 0.49 38.02, 0 30 M10 40 C5.3 40.39, -0.95 37.48, 0 30 M0 30 C1.4 22.13, -0.88 17.9, 0 10 M0 30 C-0.18 23.19, 0.43 17.04, 0 10 M0 10 C-1.16 2.18, 2.24 -1.17, 10 0 M0 10 C1.2 3.29, 5.01 -1.93, 10 0" stroke="#2f9e44" stroke-width="2" fill="none"></path></g><g transform="translate(103.55833339691162 117.5) rotate(0 6.441666603088379 12.5)"><text x="6.441666603088379" y="17.52" font-family="Virgil, Segoe UI Emoji" font-size="20px" fill="#2f9e44" text-anchor="middle" style="white-space: pre;" direction="ltr" dominant-baseline="alphabetic">C</text></g><g stroke-linecap="round" transform="translate(370 110) rotate(0 20 20)"><path d="M10 0 C15.24 1.7, 18.21 2.18, 30 0 M10 0 C14.32 -1.04, 20.75 -0.92, 30 0 M30 0 C35.9 0.72, 38.17 2.76, 40 10 M30 0 C37.45 -1.75, 41.29 4.77, 40 10 M40 10 C39.94 17.79, 40.65 25.47, 40 30 M40 10 C40.97 13.93, 39.53 19.41, 40 30 M40 30 C39.35 35.4, 35.92 38.72, 30 40 M40 30 C39.64 38.88, 35.72 41.55, 30 40 M30 40 C22.5 40.77, 13.41 41.72, 10 40 M30 40 C23.56 40.95, 18.37 40.74, 10 40 M10 40 C5.04 40.34, -0.83 37.37, 0 30 M10 40 C3.34 39.09, -2.21 38.18, 0 30 M0 30 C0.96 24.13, 1.66 21.04, 0 10 M0 30 C-0.63 23.32, -0.6 17.2, 0 10 M0 10 C1.04 3.3, 4.79 -1.68, 10 0 M0 10 C0.41 4.93, 1.12 2.29, 10 0" stroke="#1e1e1e" stroke-width="2" fill="none"></path></g><g stroke-linecap="round" transform="translate(410 110) rotate(0 20 20)"><path d="M10 0 C12.41 1.84, 17.33 -0.31, 30 0 M10 0 C18.11 -0.6, 24.28 0.54, 30 0 M30 0 C34.83 -0.57, 40.68 1.81, 40 10 M30 0 C37.96 1.44, 42.23 3.83, 40 10 M40 10 C40.6 17.42, 38.43 26.88, 40 30 M40 10 C39.57 14.63, 39.85 17.56, 40 30 M40 30 C39.25 35.38, 36.35 41.93, 30 40 M40 30 C39.06 38.21, 38.71 39.86, 30 40 M30 40 C21.83 41.67, 15.67 39.32, 10 40 M30 40 C23.62 40.85, 17.6 40.35, 10 40 M10 40 C2.51 40.71, 0.01 35.88, 0 30 M10 40 C1.12 41.51, -2.15 35.57, 0 30 M0 30 C1.48 23.39, 0.02 18.69, 0 10 M0 30 C-0.43 21.87, 0.64 14.9, 0 10 M0 10 C1.46 1.65, 3.69 1.39, 10 0 M0 10 C-2.21 5.63, 2.4 0.15, 10 0" stroke="#1e1e1e" stroke-width="2" fill="none"></path></g><g stroke-linecap="round" transform="translate(130 110) rotate(0 20 20)"><path d="M10 0 C16.5 -0.35, 26.36 -1.53, 30 0 M10 0 C13.81 0.52, 17.47 -0.13, 30 0 M30 0 C37.35 -1.52, 41.12 4.59, 40 10 M30 0 C38.89 0.5, 42.1 3.22, 40 10 M40 10 C38.5 17.09, 38.16 23.41, 40 30 M40 10 C39.56 14.35, 39.51 19.33, 40 30 M40 30 C39.68 38.6, 35.85 41.34, 30 40 M40 30 C42.05 36.53, 37.97 40.32, 30 40 M30 40 C23.29 39.42, 17.32 39.17, 10 40 M30 40 C23.07 40.31, 14.02 40.49, 10 40 M10 40 C3.34 39.21, -1.92 37.98, 0 30 M10 40 C1.19 38.9, -0.11 37.66, 0 30 M0 30 C-0.05 26.24, 1.38 20.32, 0 10 M0 30 C0.63 25.13, 0.84 19.47, 0 10 M0 10 C0.36 4.73, 1.41 1.99, 10 0 M0 10 C-0.94 3.48, 4.05 1.01, 10 0" stroke="#2f9e44" stroke-width="2" fill="none"></path></g><g transform="translate(142.19999980926514 117.5) rotate(0 7.800000190734863 12.5)"><text x="7.800000190734863" y="17.52" font-family="Virgil, Segoe UI Emoji" font-size="20px" fill="#2f9e44" text-anchor="middle" style="white-space: pre;" direction="ltr" dominant-baseline="alphabetic">D</text></g><g stroke-linecap="round" transform="translate(490 110) rotate(0 20 20)"><path d="M10 0 C14.04 1.69, 20.13 -0.63, 30 0 M10 0 C17.07 -0.7, 24.01 0.68, 30 0 M30 0 C38.6 0.43, 41.82 3.23, 40 10 M30 0 C36.5 0.7, 39.53 1.54, 40 10 M40 10 C38.8 16.04, 40.87 23.82, 40 30 M40 10 C39.77 15.7, 39.52 20.14, 40 30 M40 30 C41.78 36.55, 37.8 40.28, 30 40 M40 30 C40.75 35.48, 38.51 39.93, 30 40 M30 40 C26.52 40.39, 20.84 41.61, 10 40 M30 40 C23.66 39.68, 16.35 40.73, 10 40 M10 40 C1.47 39.05, -0.09 37.53, 0 30 M10 40 C1.33 41.8, -0.8 36.79, 0 30 M0 30 C-1.31 22.4, -1.33 18.03, 0 10 M0 30 C0.03 24.73, -1.11 19.07, 0 10 M0 10 C-0.82 3.46, 3.96 0.88, 10 0 M0 10 C-0.18 3.61, 2.07 -1.08, 10 0" stroke="#1e1e1e" stroke-width="2" fill="none"></path></g><g stroke-linecap="round" transform="translate(250 110) rotate(0 20 20)"><path d="M10 0 C13.1 -0.92, 20.06 -1.99, 30 0 M10 0 C15.99 0.78, 21.83 0.37, 30 0 M30 0 C38.49 -0.1, 39.85 3.94, 40 10 M30 0 C36.2 -1.8, 41.42 1.15, 40 10 M40 10 C40.96 17.05, 38.63 24.66, 40 30 M40 10 C39.56 15.39, 40.86 19.38, 40 30 M40 30 C41.13 36.95, 37.32 38.97, 30 40 M40 30 C41.84 36.6, 35.81 40.72, 30 40 M30 40 C26.34 41.76, 20.33 39.22, 10 40 M30 40 C22.33 40.58, 15.65 39.44, 10 40 M10 40 C3.24 40.87, -1.74 38.23, 0 30 M10 40 C2.53 40.12, 0.58 38.44, 0 30 M0 30 C-1.06 26.2, 0.08 21.77, 0 10 M0 30 C-1 26.68, -0.44 21.42, 0 10 M0 10 C0.63 4.21, 3.18 0.24, 10 0 M0 10 C-1.26 2.25, 4.03 0.98, 10 0" stroke="#2f9e44" stroke-width="2" fill="none"></path></g><g transform="translate(263.3916668891907 117.5) rotate(0 6.608333110809326 12.5)"><text x="6.608333110809326" y="17.52" font-family="Virgil, Segoe UI Emoji" font-size="20px" fill="#2f9e44" text-anchor="middle" style="white-space: pre;" direction="ltr" dominant-baseline="alphabetic">P</text></g><g stroke-linecap="round" transform="translate(50 110) rotate(0 20 20)"><path d="M10 0 C14.67 0.87, 18.95 1.31, 30 0 M10 0 C18.16 -0.09, 24.43 0.26, 30 0 M30 0 C36.26 -1.56, 41.23 1.43, 40 10 M30 0 C38.62 -1.17, 38.63 4.56, 40 10 M40 10 C38.59 15.04, 41.8 19.88, 40 30 M40 10 C40.75 17.48, 40.5 24.17, 40 30 M40 30 C41.6 36.61, 35.92 40.63, 30 40 M40 30 C38.86 38.72, 37.23 41.55, 30 40 M30 40 C23 39.92, 13.79 38, 10 40 M30 40 C22.64 40.34, 14.5 40.69, 10 40 M10 40 C2.64 40.11, 0.5 38.21, 0 30 M10 40 C2 38.67, -1.26 35.32, 0 30 M0 30 C-1.68 23.32, 1.4 13.99, 0 10 M0 30 C0.39 22.44, 0 14.13, 0 10 M0 10 C-1.1 2.39, 3.94 0.85, 10 0 M0 10 C0.74 5.29, 2.97 0.16, 10 0" stroke="#2f9e44" stroke-width="2" fill="none"></path></g><g transform="translate(62.733333110809326 117.5) rotate(0 7.266666889190674 12.5)"><text x="7.266666889190674" y="17.52" font-family="Virgil, Segoe UI Emoji" font-size="20px" fill="#2f9e44" text-anchor="middle" style="white-space: pre;" direction="ltr" dominant-baseline="alphabetic">B</text></g><g stroke-linecap="round" transform="translate(290 110) rotate(0 20 20)"><path d="M10 0 C17.94 1.82, 23.8 1.71, 30 0 M10 0 C15.7 -0.84, 22.42 -1.01, 30 0 M30 0 C38.37 -1.01, 38.81 4.4, 40 10 M30 0 C35.92 -1.46, 39.14 1.86, 40 10 M40 10 C41.54 17.46, 40.08 22.5, 40 30 M40 10 C40.87 16.25, 39.69 22.88, 40 30 M40 30 C39.01 38.45, 37.16 41.35, 30 40 M40 30 C41.97 37.06, 35.72 40.81, 30 40 M30 40 C25.31 37.94, 17.03 39.71, 10 40 M30 40 C22.78 40.21, 16.52 40.93, 10 40 M10 40 C2.17 38.85, -1.09 35.49, 0 30 M10 40 C4.53 39.96, 1.68 34.74, 0 30 M0 30 C1.85 22.82, -0.01 17.91, 0 10 M0 30 C-0.53 22.65, 0.32 16.67, 0 10 M0 10 C0.64 5.03, 3.01 0.14, 10 0 M0 10 C-0.55 2.2, 2.41 -0.73, 10 0" stroke="#2f9e44" stroke-width="2" fill="none"></path></g><g transform="translate(302.94999980926514 117.5) rotate(0 7.050000190734863 12.5)"><text x="7.050000190734863" y="17.52" font-family="Virgil, Segoe UI Emoji" font-size="20px" fill="#2f9e44" text-anchor="middle" style="white-space: pre;" direction="ltr" dominant-baseline="alphabetic">Q</text></g><g stroke-linecap="round" transform="translate(650 110) rotate(0 20 20)"><path d="M10 0 C17.84 -0.33, 26.48 -0.59, 30 0 M10 0 C15.29 -0.32, 18.28 0.72, 30 0 M30 0 C36.02 -1.27, 39.25 2.05, 40 10 M30 0 C36.3 2.22, 39.06 4.88, 40 10 M40 10 C40.27 18.43, 38.96 27.16, 40 30 M40 10 C39.43 16.83, 40.17 22.55, 40 30 M40 30 C41.71 37.01, 35.84 40.71, 30 40 M40 30 C40.01 35.76, 34.46 41.51, 30 40 M30 40 C26.73 38.25, 23.3 39.29, 10 40 M30 40 C23.31 39.58, 17.24 39.57, 10 40 M10 40 C4.38 39.96, 1.46 34.99, 0 30 M10 40 C3.75 41.6, -2.21 38.96, 0 30 M0 30 C0.86 24.66, 0.23 18.53, 0 10 M0 30 C0.26 25.79, -0.22 19.95, 0 10 M0 10 C-0.48 2.35, 2.53 -0.64, 10 0 M0 10 C-0.99 1.36, 4.77 -1.35, 10 0" stroke="#1e1e1e" stroke-width="2" fill="none"></path></g><g stroke-linecap="round" transform="translate(690 110) rotate(0 20 20)"><path d="M10 0 C18.43 -0.39, 24.08 1.25, 30 0 M10 0 C13.5 0.63, 17.87 -0.53, 30 0 M30 0 C35.92 -1.28, 39.68 5.26, 40 10 M30 0 C35.72 1.55, 42.05 3.2, 40 10 M40 10 C39 18.74, 39.97 23.53, 40 30 M40 10 C40.15 17.3, 40.76 23.42, 40 30 M40 30 C39.17 37.37, 36.67 39.21, 30 40 M40 30 C37.79 38.18, 34.52 38.9, 30 40 M30 40 C25.65 39.13, 18.29 40.33, 10 40 M30 40 C21.91 39.3, 15.44 39.87, 10 40 M10 40 C4.79 38.32, 0.36 38.06, 0 30 M10 40 C1.12 42.29, -0.94 36.82, 0 30 M0 30 C0.15 22.28, -1.03 17.36, 0 10 M0 30 C-0.22 23.22, -0.31 15.81, 0 10 M0 10 C-0.8 2.7, 2.47 -1.71, 10 0 M0 10 C1.43 1.99, 4.55 -0.17, 10 0" stroke="#1e1e1e" stroke-width="2" fill="none"></path></g><g stroke-linecap="round" transform="translate(610 110) rotate(0 20 20)"><path d="M10 0 C14.29 1.27, 19.81 1.74, 30 0 M10 0 C14.66 -0.74, 19.6 -0.75, 30 0 M30 0 C36.35 1.93, 39.18 4.68, 40 10 M30 0 C38.71 -0.14, 41.31 3.66, 40 10 M40 10 C39.84 15.91, 40.52 22.31, 40 30 M40 10 C40.9 17.95, 39.64 25.92, 40 30 M40 30 C40.01 35.88, 34.74 41.32, 30 40 M40 30 C37.85 35.57, 36.56 41, 30 40 M30 40 C25.84 40.43, 23.02 38.77, 10 40 M30 40 C25.67 39.86, 21.03 39.04, 10 40 M10 40 C3.69 41.39, -1.92 38.66, 0 30 M10 40 C2.4 40.15, 0.72 37.67, 0 30 M0 30 C-0.96 24.76, 0.83 18.95, 0 10 M0 30 C-0.21 21.81, -0.37 14.28, 0 10 M0 10 C-0.86 1.62, 4.58 -1.17, 10 0 M0 10 C1.21 3.17, 3.15 2.2, 10 0" stroke="#1e1e1e" stroke-width="2" fill="none"></path></g><g stroke-linecap="round" transform="translate(330 110) rotate(0 20 20)"><path d="M10 0 C13.69 1.58, 20.17 -1.32, 30 0 M10 0 C16.69 -0.51, 23.97 1.09, 30 0 M30 0 C35.85 1.34, 41.78 3.22, 40 10 M30 0 C37.97 0.32, 40.75 2.15, 40 10 M40 10 C40.62 16.61, 41.78 25.7, 40 30 M40 10 C39.76 17.7, 40.17 24.31, 40 30 M40 30 C38.08 37.98, 34.8 39.05, 30 40 M40 30 C39.89 37.66, 34.67 41.8, 30 40 M30 40 C26.24 38.89, 18.24 38.96, 10 40 M30 40 C25.9 39.16, 20.53 40.69, 10 40 M10 40 C1.41 41.99, -0.82 36.8, 0 30 M10 40 C4.05 41.01, -0.18 36.95, 0 30 M0 30 C0.94 25.74, 1.79 19.87, 0 10 M0 30 C-0.35 23.54, -0.38 16.86, 0 10 M0 10 C1.25 2.16, 4.39 -0.15, 10 0 M0 10 C-0.18 5.53, 4.2 1.29, 10 0" stroke="#2f9e44" stroke-width="2" fill="none"></path></g><g transform="translate(342.0333333015442 117.5) rotate(0 7.9666666984558105 12.5)"><text x="7.9666666984558105" y="17.52" font-family="Virgil, Segoe UI Emoji" font-size="20px" fill="#2f9e44" text-anchor="middle" style="white-space: pre;" direction="ltr" dominant-baseline="alphabetic">Z</text></g></svg>